%
M48
M72
T01C0.01378
T02C0.03150
T03C0.03200
T04C0.03543
T05C0.03937
T06C0.04400
T07C0.07874
T08C0.13000
T09C0.14950
%
T01
X41500Y188506
X81500Y198506
X91500Y208506
X111500Y198506
X116500Y188506
X116500Y213506
X101500Y243506
X51500Y283506
X76500Y293506
X156500Y293506
X166500Y283506
X186500Y263506
X216500Y263506
X236500Y263506
X241500Y268506
X216500Y303506
X266500Y303506
X301500Y268506
X307760Y237246
X303500Y233506
X311500Y228506
X264500Y203506
X249947Y218281
X196500Y208506
X161500Y203506
X161500Y193506
T02
X161500Y338506
X151500Y338506
X151500Y348506
X161500Y348506
X171500Y348506
X181500Y348506
X191500Y348506
X201500Y348506
X211500Y348506
X221500Y348506
X231500Y348506
X231500Y338506
X221500Y338506
X211500Y338506
X201500Y338506
X191500Y338506
X181500Y338506
X171500Y338506
X241500Y338506
X241500Y348506
T03
X236500Y308506
X246500Y308506
X256500Y308506
X286500Y308506
X296500Y308506
X306500Y308506
X316500Y308506
X316500Y278506
X306500Y278506
X296500Y278506
X286500Y278506
X296500Y253506
X296500Y243506
X296500Y233506
X296500Y223506
X266500Y223506
X266500Y233506
X266500Y243506
X266500Y253506
X256500Y278506
X246500Y278506
X236500Y278506
X226500Y278506
X226500Y308506
X176500Y238506
X176500Y228506
X176500Y218506
X176500Y208506
X186500Y188506
X196500Y188506
X206500Y188506
X216500Y188506
X216500Y158506
X206500Y158506
X196500Y158506
X186500Y158506
X146500Y208506
X146500Y218506
X146500Y228506
X146500Y238506
X131500Y263506
X131500Y273506
X131500Y283506
X131500Y293506
X101500Y293506
X101500Y283506
X101500Y273506
X101500Y263506
X261500Y188506
X271500Y188506
X281500Y188506
X291500Y188506
X291500Y158506
X281500Y158506
X271500Y158506
X261500Y158506
T04
X261500Y133506
X271500Y133506
X336500Y133506
X346500Y133506
X411500Y133506
X421500Y133506
X196500Y133506
X186500Y133506
X121500Y133506
X111500Y133506
X46500Y133506
X36500Y133506
T05
X26500Y203506
X26500Y213506
X26500Y223506
X26500Y233506
X26500Y243506
X26500Y253506
X26500Y263506
X26500Y273506
X31500Y303506
X31500Y313506
X31500Y323506
X151500Y388506
X161500Y388506
X171500Y388506
X181500Y388506
X191500Y388506
X201500Y388506
X211500Y388506
X221500Y388506
X361500Y283506
X361500Y273506
X361500Y263506
X361500Y253506
X361500Y243506
X361500Y233506
X361500Y223506
X361500Y213506
X361500Y193506
X361500Y183506
T06
X91500Y343506
X91500Y353506
X91500Y363506
T07
X16500Y113506
X56500Y113506
X91500Y113506
X131500Y113506
X166500Y113506
X206500Y113506
X241500Y113506
X281500Y113506
X316500Y113506
X356500Y113506
X391500Y113506
X431500Y113506
T08
X32500Y353506
T09
X11500Y393506
X11500Y168506
X436500Y168506
X436500Y393506
M30
