G75*
%MOIN*%
%OFA0B0*%
%FSLAX25Y25*%
%IPPOS*%
%LPD*%
%AMOC8*
5,1,8,0,0,1.08239X$1,22.5*
%
%ADD10R,0.05150X0.05150*%
%ADD11C,0.05543*%
%ADD12C,0.05937*%
%ADD13C,0.06600*%
%ADD14R,0.06000X0.06000*%
%ADD15C,0.06000*%
%ADD16C,0.05200*%
%ADD17C,0.02978*%
%ADD18C,0.01500*%
%ADD19C,0.01000*%
D10*
X0151500Y0338506D03*
X0161500Y0338506D03*
X0171500Y0338506D03*
X0181500Y0338506D03*
X0191500Y0338506D03*
X0201500Y0338506D03*
X0211500Y0338506D03*
X0221500Y0338506D03*
X0231500Y0338506D03*
X0241500Y0338506D03*
X0241500Y0348506D03*
X0231500Y0348506D03*
X0221500Y0348506D03*
X0211500Y0348506D03*
X0201500Y0348506D03*
X0191500Y0348506D03*
X0181500Y0348506D03*
X0171500Y0348506D03*
X0161500Y0348506D03*
X0151500Y0348506D03*
D11*
X0121500Y0133506D03*
X0111500Y0133506D03*
X0046500Y0133506D03*
X0036500Y0133506D03*
X0186500Y0133506D03*
X0196500Y0133506D03*
X0261500Y0133506D03*
X0271500Y0133506D03*
X0336500Y0133506D03*
X0346500Y0133506D03*
X0411500Y0133506D03*
X0421500Y0133506D03*
D12*
X0364469Y0183506D02*
X0358531Y0183506D01*
X0358531Y0193506D02*
X0364469Y0193506D01*
X0364469Y0213506D02*
X0358531Y0213506D01*
X0358531Y0223506D02*
X0364469Y0223506D01*
X0364469Y0233506D02*
X0358531Y0233506D01*
X0358531Y0243506D02*
X0364469Y0243506D01*
X0364469Y0253506D02*
X0358531Y0253506D01*
X0358531Y0263506D02*
X0364469Y0263506D01*
X0364469Y0273506D02*
X0358531Y0273506D01*
X0358531Y0283506D02*
X0364469Y0283506D01*
X0221500Y0385538D02*
X0221500Y0391475D01*
X0211500Y0391475D02*
X0211500Y0385538D01*
X0201500Y0385538D02*
X0201500Y0391475D01*
X0191500Y0391475D02*
X0191500Y0385538D01*
X0181500Y0385538D02*
X0181500Y0391475D01*
X0171500Y0391475D02*
X0171500Y0385538D01*
X0161500Y0385538D02*
X0161500Y0391475D01*
X0151500Y0391475D02*
X0151500Y0385538D01*
X0034469Y0323506D02*
X0028531Y0323506D01*
X0028531Y0313506D02*
X0034469Y0313506D01*
X0034469Y0303506D02*
X0028531Y0303506D01*
X0029469Y0273506D02*
X0023531Y0273506D01*
X0023531Y0263506D02*
X0029469Y0263506D01*
X0029469Y0253506D02*
X0023531Y0253506D01*
X0023531Y0243506D02*
X0029469Y0243506D01*
X0029469Y0233506D02*
X0023531Y0233506D01*
X0023531Y0223506D02*
X0029469Y0223506D01*
X0029469Y0213506D02*
X0023531Y0213506D01*
X0023531Y0203506D02*
X0029469Y0203506D01*
D13*
X0088200Y0343506D02*
X0094800Y0343506D01*
X0094800Y0353506D02*
X0088200Y0353506D01*
X0088200Y0363506D02*
X0094800Y0363506D01*
D14*
X0186500Y0158506D03*
X0261500Y0158506D03*
D15*
X0271500Y0158506D03*
X0281500Y0158506D03*
X0291500Y0158506D03*
X0291500Y0188506D03*
X0281500Y0188506D03*
X0271500Y0188506D03*
X0261500Y0188506D03*
X0216500Y0188506D03*
X0206500Y0188506D03*
X0196500Y0188506D03*
X0186500Y0188506D03*
X0196500Y0158506D03*
X0206500Y0158506D03*
X0216500Y0158506D03*
D16*
X0176500Y0208506D03*
X0176500Y0218506D03*
X0176500Y0228506D03*
X0176500Y0238506D03*
X0146500Y0238506D03*
X0146500Y0228506D03*
X0146500Y0218506D03*
X0146500Y0208506D03*
X0131500Y0263506D03*
X0131500Y0273506D03*
X0131500Y0283506D03*
X0131500Y0293506D03*
X0101500Y0293506D03*
X0101500Y0283506D03*
X0101500Y0273506D03*
X0101500Y0263506D03*
X0226500Y0278506D03*
X0236500Y0278506D03*
X0246500Y0278506D03*
X0256500Y0278506D03*
X0266500Y0253506D03*
X0266500Y0243506D03*
X0266500Y0233506D03*
X0266500Y0223506D03*
X0296500Y0223506D03*
X0296500Y0233506D03*
X0296500Y0243506D03*
X0296500Y0253506D03*
X0296500Y0278506D03*
X0286500Y0278506D03*
X0306500Y0278506D03*
X0316500Y0278506D03*
X0316500Y0308506D03*
X0306500Y0308506D03*
X0296500Y0308506D03*
X0286500Y0308506D03*
X0256500Y0308506D03*
X0246500Y0308506D03*
X0236500Y0308506D03*
X0226500Y0308506D03*
D17*
X0216500Y0303506D03*
X0241500Y0268506D03*
X0236500Y0263506D03*
X0216500Y0263506D03*
X0186500Y0263506D03*
X0166500Y0283506D03*
X0156500Y0293506D03*
X0101500Y0243506D03*
X0116500Y0213506D03*
X0111500Y0198506D03*
X0116500Y0188506D03*
X0091500Y0208506D03*
X0081500Y0198506D03*
X0041500Y0188506D03*
X0051500Y0283506D03*
X0076500Y0293506D03*
X0161500Y0203506D03*
X0161500Y0193506D03*
X0196500Y0208506D03*
X0249947Y0218281D03*
X0264500Y0203506D03*
X0303500Y0233506D03*
X0307760Y0237246D03*
X0311500Y0228506D03*
X0301500Y0268506D03*
X0266500Y0303506D03*
D18*
X0261500Y0298506D01*
X0241500Y0298506D01*
X0231500Y0288506D01*
X0216500Y0303506D01*
X0231500Y0288506D02*
X0231500Y0236728D01*
X0249947Y0218281D01*
X0249947Y0208506D01*
X0254947Y0203506D01*
X0264500Y0203506D01*
X0249947Y0208506D02*
X0196500Y0208506D01*
X0186500Y0263506D02*
X0216500Y0263506D01*
X0236500Y0263506D02*
X0241500Y0268506D01*
X0301500Y0268506D01*
X0307760Y0262246D01*
X0307760Y0237246D01*
X0166500Y0283506D02*
X0156500Y0293506D01*
X0101500Y0243506D02*
X0101500Y0228506D01*
X0111500Y0218506D01*
X0111500Y0198506D01*
X0101500Y0243506D02*
X0091500Y0243506D01*
X0051500Y0283506D01*
D19*
X0006000Y0157854D02*
X0006000Y0088006D01*
X0442000Y0088006D01*
X0442000Y0157854D01*
X0441122Y0157347D01*
X0438077Y0156531D01*
X0434923Y0156531D01*
X0431878Y0157347D01*
X0429147Y0158924D01*
X0426918Y0161153D01*
X0425341Y0163884D01*
X0424525Y0166930D01*
X0424525Y0170083D01*
X0425341Y0173128D01*
X0426918Y0175859D01*
X0429147Y0178089D01*
X0431878Y0179665D01*
X0434923Y0180481D01*
X0438077Y0180481D01*
X0441122Y0179665D01*
X0442000Y0179158D01*
X0442000Y0382854D01*
X0441122Y0382347D01*
X0438077Y0381531D01*
X0434923Y0381531D01*
X0431878Y0382347D01*
X0429147Y0383924D01*
X0426918Y0386153D01*
X0425341Y0388884D01*
X0424525Y0391930D01*
X0424525Y0395083D01*
X0425341Y0398128D01*
X0426918Y0400859D01*
X0429147Y0403089D01*
X0430737Y0404006D01*
X0017263Y0404006D01*
X0018853Y0403089D01*
X0021082Y0400859D01*
X0022659Y0398128D01*
X0023475Y0395083D01*
X0023475Y0391930D01*
X0022659Y0388884D01*
X0021082Y0386153D01*
X0018853Y0383924D01*
X0016122Y0382347D01*
X0013077Y0381531D01*
X0009923Y0381531D01*
X0006878Y0382347D01*
X0006000Y0382854D01*
X0006000Y0179158D01*
X0006878Y0179665D01*
X0009923Y0180481D01*
X0013077Y0180481D01*
X0016122Y0179665D01*
X0018743Y0178152D01*
X0010589Y0186306D01*
X0009300Y0187595D01*
X0009300Y0274418D01*
X0024300Y0289418D01*
X0029300Y0294418D01*
X0030589Y0295706D01*
X0074190Y0295706D01*
X0074694Y0296210D01*
X0075866Y0296695D01*
X0077134Y0296695D01*
X0078306Y0296210D01*
X0079203Y0295313D01*
X0079689Y0294141D01*
X0079689Y0292872D01*
X0079203Y0291700D01*
X0078306Y0290803D01*
X0077134Y0290317D01*
X0075866Y0290317D01*
X0074694Y0290803D01*
X0074190Y0291306D01*
X0032411Y0291306D01*
X0027411Y0286306D01*
X0013700Y0272595D01*
X0013700Y0189418D01*
X0047411Y0155706D01*
X0107411Y0155706D01*
X0108700Y0154418D01*
X0111500Y0151618D01*
X0114300Y0154418D01*
X0115589Y0155706D01*
X0165589Y0155706D01*
X0184300Y0174418D01*
X0184300Y0184330D01*
X0183838Y0184522D01*
X0182516Y0185844D01*
X0181800Y0187571D01*
X0181800Y0189441D01*
X0182516Y0191169D01*
X0183838Y0192491D01*
X0185565Y0193206D01*
X0187435Y0193206D01*
X0189162Y0192491D01*
X0190484Y0191169D01*
X0191200Y0189441D01*
X0191200Y0187571D01*
X0190484Y0185844D01*
X0189162Y0184522D01*
X0188700Y0184330D01*
X0188700Y0172595D01*
X0187411Y0171306D01*
X0167411Y0151306D01*
X0117411Y0151306D01*
X0113700Y0147595D01*
X0113700Y0137435D01*
X0114033Y0137297D01*
X0115291Y0136039D01*
X0115972Y0134396D01*
X0115972Y0132617D01*
X0115291Y0130973D01*
X0114033Y0129715D01*
X0112389Y0129035D01*
X0110611Y0129035D01*
X0108967Y0129715D01*
X0107709Y0130973D01*
X0107028Y0132617D01*
X0107028Y0134396D01*
X0107709Y0136039D01*
X0108967Y0137297D01*
X0109300Y0137435D01*
X0109300Y0147595D01*
X0105589Y0151306D01*
X0045589Y0151306D01*
X0044300Y0152595D01*
X0021146Y0175749D01*
X0022659Y0173128D01*
X0023475Y0170083D01*
X0023475Y0166930D01*
X0022659Y0163884D01*
X0021082Y0161153D01*
X0018853Y0158924D01*
X0016122Y0157347D01*
X0013077Y0156531D01*
X0009923Y0156531D01*
X0006878Y0157347D01*
X0006000Y0157854D01*
X0006000Y0157396D02*
X0006793Y0157396D01*
X0006000Y0156398D02*
X0040497Y0156398D01*
X0039499Y0157396D02*
X0016207Y0157396D01*
X0017936Y0158395D02*
X0038500Y0158395D01*
X0037502Y0159393D02*
X0019322Y0159393D01*
X0020321Y0160392D02*
X0036503Y0160392D01*
X0035505Y0161390D02*
X0021219Y0161390D01*
X0021796Y0162389D02*
X0034506Y0162389D01*
X0033508Y0163387D02*
X0022372Y0163387D01*
X0022793Y0164386D02*
X0032509Y0164386D01*
X0031511Y0165384D02*
X0023061Y0165384D01*
X0023328Y0166383D02*
X0030512Y0166383D01*
X0029514Y0167381D02*
X0023475Y0167381D01*
X0023475Y0168380D02*
X0028515Y0168380D01*
X0027517Y0169378D02*
X0023475Y0169378D01*
X0023396Y0170377D02*
X0026518Y0170377D01*
X0025520Y0171375D02*
X0023129Y0171375D01*
X0022861Y0172374D02*
X0024521Y0172374D01*
X0023523Y0173372D02*
X0022518Y0173372D01*
X0022524Y0174371D02*
X0021942Y0174371D01*
X0021526Y0175369D02*
X0021365Y0175369D01*
X0018530Y0178365D02*
X0018374Y0178365D01*
X0017532Y0179363D02*
X0016645Y0179363D01*
X0016533Y0180362D02*
X0013522Y0180362D01*
X0014536Y0182359D02*
X0006000Y0182359D01*
X0006000Y0183357D02*
X0013538Y0183357D01*
X0012539Y0184356D02*
X0006000Y0184356D01*
X0006000Y0185354D02*
X0011541Y0185354D01*
X0010542Y0186353D02*
X0006000Y0186353D01*
X0006000Y0187351D02*
X0009544Y0187351D01*
X0009300Y0188350D02*
X0006000Y0188350D01*
X0006000Y0189348D02*
X0009300Y0189348D01*
X0009300Y0190347D02*
X0006000Y0190347D01*
X0006000Y0191346D02*
X0009300Y0191346D01*
X0009300Y0192344D02*
X0006000Y0192344D01*
X0006000Y0193343D02*
X0009300Y0193343D01*
X0009300Y0194341D02*
X0006000Y0194341D01*
X0006000Y0195340D02*
X0009300Y0195340D01*
X0009300Y0196338D02*
X0006000Y0196338D01*
X0006000Y0197337D02*
X0009300Y0197337D01*
X0009300Y0198335D02*
X0006000Y0198335D01*
X0006000Y0199334D02*
X0009300Y0199334D01*
X0009300Y0200332D02*
X0006000Y0200332D01*
X0006000Y0201331D02*
X0009300Y0201331D01*
X0009300Y0202329D02*
X0006000Y0202329D01*
X0006000Y0203328D02*
X0009300Y0203328D01*
X0009300Y0204326D02*
X0006000Y0204326D01*
X0006000Y0205325D02*
X0009300Y0205325D01*
X0009300Y0206323D02*
X0006000Y0206323D01*
X0006000Y0207322D02*
X0009300Y0207322D01*
X0009300Y0208320D02*
X0006000Y0208320D01*
X0006000Y0209319D02*
X0009300Y0209319D01*
X0009300Y0210317D02*
X0006000Y0210317D01*
X0006000Y0211316D02*
X0009300Y0211316D01*
X0009300Y0212314D02*
X0006000Y0212314D01*
X0006000Y0213313D02*
X0009300Y0213313D01*
X0009300Y0214311D02*
X0006000Y0214311D01*
X0006000Y0215310D02*
X0009300Y0215310D01*
X0009300Y0216308D02*
X0006000Y0216308D01*
X0006000Y0217307D02*
X0009300Y0217307D01*
X0009300Y0218305D02*
X0006000Y0218305D01*
X0006000Y0219304D02*
X0009300Y0219304D01*
X0009300Y0220302D02*
X0006000Y0220302D01*
X0006000Y0221301D02*
X0009300Y0221301D01*
X0009300Y0222299D02*
X0006000Y0222299D01*
X0006000Y0223298D02*
X0009300Y0223298D01*
X0009300Y0224296D02*
X0006000Y0224296D01*
X0006000Y0225295D02*
X0009300Y0225295D01*
X0009300Y0226293D02*
X0006000Y0226293D01*
X0006000Y0227292D02*
X0009300Y0227292D01*
X0009300Y0228290D02*
X0006000Y0228290D01*
X0006000Y0229289D02*
X0009300Y0229289D01*
X0009300Y0230287D02*
X0006000Y0230287D01*
X0006000Y0231286D02*
X0009300Y0231286D01*
X0009300Y0232284D02*
X0006000Y0232284D01*
X0006000Y0233283D02*
X0009300Y0233283D01*
X0009300Y0234282D02*
X0006000Y0234282D01*
X0006000Y0235280D02*
X0009300Y0235280D01*
X0009300Y0236279D02*
X0006000Y0236279D01*
X0006000Y0237277D02*
X0009300Y0237277D01*
X0009300Y0238276D02*
X0006000Y0238276D01*
X0006000Y0239274D02*
X0009300Y0239274D01*
X0009300Y0240273D02*
X0006000Y0240273D01*
X0006000Y0241271D02*
X0009300Y0241271D01*
X0009300Y0242270D02*
X0006000Y0242270D01*
X0006000Y0243268D02*
X0009300Y0243268D01*
X0009300Y0244267D02*
X0006000Y0244267D01*
X0006000Y0245265D02*
X0009300Y0245265D01*
X0009300Y0246264D02*
X0006000Y0246264D01*
X0006000Y0247262D02*
X0009300Y0247262D01*
X0009300Y0248261D02*
X0006000Y0248261D01*
X0006000Y0249259D02*
X0009300Y0249259D01*
X0009300Y0250258D02*
X0006000Y0250258D01*
X0006000Y0251256D02*
X0009300Y0251256D01*
X0009300Y0252255D02*
X0006000Y0252255D01*
X0006000Y0253253D02*
X0009300Y0253253D01*
X0009300Y0254252D02*
X0006000Y0254252D01*
X0006000Y0255250D02*
X0009300Y0255250D01*
X0009300Y0256249D02*
X0006000Y0256249D01*
X0006000Y0257247D02*
X0009300Y0257247D01*
X0009300Y0258246D02*
X0006000Y0258246D01*
X0006000Y0259244D02*
X0009300Y0259244D01*
X0009300Y0260243D02*
X0006000Y0260243D01*
X0006000Y0261241D02*
X0009300Y0261241D01*
X0009300Y0262240D02*
X0006000Y0262240D01*
X0006000Y0263238D02*
X0009300Y0263238D01*
X0009300Y0264237D02*
X0006000Y0264237D01*
X0006000Y0265235D02*
X0009300Y0265235D01*
X0009300Y0266234D02*
X0006000Y0266234D01*
X0006000Y0267232D02*
X0009300Y0267232D01*
X0009300Y0268231D02*
X0006000Y0268231D01*
X0006000Y0269229D02*
X0009300Y0269229D01*
X0009300Y0270228D02*
X0006000Y0270228D01*
X0006000Y0271226D02*
X0009300Y0271226D01*
X0009300Y0272225D02*
X0006000Y0272225D01*
X0006000Y0273223D02*
X0009300Y0273223D01*
X0009300Y0274222D02*
X0006000Y0274222D01*
X0006000Y0275220D02*
X0010103Y0275220D01*
X0011101Y0276219D02*
X0006000Y0276219D01*
X0006000Y0277217D02*
X0012100Y0277217D01*
X0013098Y0278216D02*
X0006000Y0278216D01*
X0006000Y0279215D02*
X0014097Y0279215D01*
X0015095Y0280213D02*
X0006000Y0280213D01*
X0006000Y0281212D02*
X0016094Y0281212D01*
X0017092Y0282210D02*
X0006000Y0282210D01*
X0006000Y0283209D02*
X0018091Y0283209D01*
X0019090Y0284207D02*
X0006000Y0284207D01*
X0006000Y0285206D02*
X0020088Y0285206D01*
X0021087Y0286204D02*
X0006000Y0286204D01*
X0006000Y0287203D02*
X0022085Y0287203D01*
X0023084Y0288201D02*
X0006000Y0288201D01*
X0006000Y0289200D02*
X0024082Y0289200D01*
X0025081Y0290198D02*
X0006000Y0290198D01*
X0006000Y0291197D02*
X0026079Y0291197D01*
X0027078Y0292195D02*
X0006000Y0292195D01*
X0006000Y0293194D02*
X0028076Y0293194D01*
X0029075Y0294192D02*
X0006000Y0294192D01*
X0006000Y0295191D02*
X0030073Y0295191D01*
X0031500Y0293506D02*
X0076500Y0293506D01*
X0078700Y0291197D02*
X0098110Y0291197D01*
X0097993Y0291357D02*
X0098373Y0290835D01*
X0098829Y0290379D01*
X0099351Y0290000D01*
X0099926Y0289707D01*
X0100540Y0289507D01*
X0101177Y0289406D01*
X0101200Y0289406D01*
X0101200Y0293206D01*
X0101800Y0293206D01*
X0101800Y0289406D01*
X0101823Y0289406D01*
X0102460Y0289507D01*
X0103074Y0289707D01*
X0103649Y0290000D01*
X0104171Y0290379D01*
X0104627Y0290835D01*
X0105007Y0291357D01*
X0105300Y0291932D01*
X0105499Y0292546D01*
X0105600Y0293184D01*
X0105600Y0293206D01*
X0101800Y0293206D01*
X0101800Y0293806D01*
X0105600Y0293806D01*
X0105600Y0293829D01*
X0105499Y0294466D01*
X0105300Y0295080D01*
X0105007Y0295655D01*
X0104627Y0296177D01*
X0104171Y0296634D01*
X0103649Y0297013D01*
X0103074Y0297306D01*
X0102460Y0297505D01*
X0101823Y0297606D01*
X0101800Y0297606D01*
X0101800Y0293806D01*
X0101200Y0293806D01*
X0101200Y0293206D01*
X0097400Y0293206D01*
X0097400Y0293184D01*
X0097501Y0292546D01*
X0097700Y0291932D01*
X0097993Y0291357D01*
X0097615Y0292195D02*
X0079409Y0292195D01*
X0079689Y0293194D02*
X0097400Y0293194D01*
X0097400Y0293806D02*
X0101200Y0293806D01*
X0101200Y0297606D01*
X0101177Y0297606D01*
X0100540Y0297505D01*
X0099926Y0297306D01*
X0099351Y0297013D01*
X0098829Y0296634D01*
X0098373Y0296177D01*
X0097993Y0295655D01*
X0097700Y0295080D01*
X0097501Y0294466D01*
X0097400Y0293829D01*
X0097400Y0293806D01*
X0097458Y0294192D02*
X0079668Y0294192D01*
X0079254Y0295191D02*
X0097757Y0295191D01*
X0098385Y0296189D02*
X0078327Y0296189D01*
X0074673Y0296189D02*
X0006000Y0296189D01*
X0006000Y0297188D02*
X0099694Y0297188D01*
X0101200Y0297188D02*
X0101800Y0297188D01*
X0101800Y0296189D02*
X0101200Y0296189D01*
X0101200Y0295191D02*
X0101800Y0295191D01*
X0101800Y0294192D02*
X0101200Y0294192D01*
X0101200Y0293194D02*
X0101800Y0293194D01*
X0101800Y0292195D02*
X0101200Y0292195D01*
X0101200Y0291197D02*
X0101800Y0291197D01*
X0101800Y0290198D02*
X0101200Y0290198D01*
X0099078Y0290198D02*
X0031303Y0290198D01*
X0030305Y0289200D02*
X0157342Y0289200D01*
X0156343Y0290198D02*
X0134273Y0290198D01*
X0133936Y0289861D02*
X0135145Y0291071D01*
X0135800Y0292651D01*
X0135800Y0294362D01*
X0135145Y0295942D01*
X0133936Y0297152D01*
X0132355Y0297806D01*
X0130645Y0297806D01*
X0129064Y0297152D01*
X0127855Y0295942D01*
X0127200Y0294362D01*
X0127200Y0292651D01*
X0127855Y0291071D01*
X0129064Y0289861D01*
X0130645Y0289206D01*
X0132355Y0289206D01*
X0133936Y0289861D01*
X0135198Y0291197D02*
X0154300Y0291197D01*
X0154694Y0290803D02*
X0153797Y0291700D01*
X0153311Y0292872D01*
X0153311Y0294141D01*
X0153797Y0295313D01*
X0154694Y0296210D01*
X0155866Y0296695D01*
X0157134Y0296695D01*
X0158306Y0296210D01*
X0159203Y0295313D01*
X0159689Y0294141D01*
X0159689Y0293782D01*
X0166776Y0286695D01*
X0167134Y0286695D01*
X0168306Y0286210D01*
X0169203Y0285313D01*
X0169689Y0284141D01*
X0169689Y0282872D01*
X0169203Y0281700D01*
X0168306Y0280803D01*
X0167134Y0280317D01*
X0165866Y0280317D01*
X0164694Y0280803D01*
X0163797Y0281700D01*
X0163311Y0282872D01*
X0163311Y0283230D01*
X0156224Y0290317D01*
X0155866Y0290317D01*
X0154694Y0290803D01*
X0153591Y0292195D02*
X0135611Y0292195D01*
X0135800Y0293194D02*
X0153311Y0293194D01*
X0153332Y0294192D02*
X0135800Y0294192D01*
X0135457Y0295191D02*
X0153746Y0295191D01*
X0154673Y0296189D02*
X0134898Y0296189D01*
X0133849Y0297188D02*
X0219354Y0297188D01*
X0218355Y0298186D02*
X0006000Y0298186D01*
X0006000Y0299185D02*
X0026765Y0299185D01*
X0027603Y0298838D02*
X0035397Y0298838D01*
X0037113Y0299549D01*
X0038426Y0300862D01*
X0039137Y0302578D01*
X0039137Y0304435D01*
X0038426Y0306151D01*
X0037113Y0307464D01*
X0035397Y0308175D01*
X0027603Y0308175D01*
X0025887Y0307464D01*
X0024574Y0306151D01*
X0023863Y0304435D01*
X0023863Y0302578D01*
X0024574Y0300862D01*
X0025887Y0299549D01*
X0027603Y0298838D01*
X0025252Y0300183D02*
X0006000Y0300183D01*
X0006000Y0301182D02*
X0024441Y0301182D01*
X0024028Y0302180D02*
X0006000Y0302180D01*
X0006000Y0303179D02*
X0023863Y0303179D01*
X0023863Y0304177D02*
X0006000Y0304177D01*
X0006000Y0305176D02*
X0024170Y0305176D01*
X0024597Y0306174D02*
X0006000Y0306174D01*
X0006000Y0307173D02*
X0025596Y0307173D01*
X0027595Y0308171D02*
X0006000Y0308171D01*
X0006000Y0309170D02*
X0027417Y0309170D01*
X0027485Y0309148D02*
X0028180Y0309038D01*
X0031016Y0309038D01*
X0031016Y0313022D01*
X0031984Y0313022D01*
X0031984Y0309038D01*
X0034820Y0309038D01*
X0035515Y0309148D01*
X0036184Y0309365D01*
X0036811Y0309684D01*
X0037380Y0310098D01*
X0037877Y0310595D01*
X0038290Y0311164D01*
X0038610Y0311791D01*
X0038827Y0312460D01*
X0038916Y0313022D01*
X0031984Y0313022D01*
X0031984Y0313991D01*
X0031016Y0313991D01*
X0031016Y0317975D01*
X0028180Y0317975D01*
X0027485Y0317865D01*
X0026816Y0317647D01*
X0026189Y0317328D01*
X0025620Y0316915D01*
X0025123Y0316417D01*
X0024710Y0315848D01*
X0024390Y0315222D01*
X0024173Y0314553D01*
X0024084Y0313991D01*
X0031016Y0313991D01*
X0031016Y0313022D01*
X0024084Y0313022D01*
X0024173Y0312460D01*
X0024390Y0311791D01*
X0024710Y0311164D01*
X0025123Y0310595D01*
X0025620Y0310098D01*
X0026189Y0309684D01*
X0026816Y0309365D01*
X0027485Y0309148D01*
X0025550Y0310168D02*
X0006000Y0310168D01*
X0006000Y0311167D02*
X0024708Y0311167D01*
X0024269Y0312165D02*
X0006000Y0312165D01*
X0006000Y0313164D02*
X0031016Y0313164D01*
X0031984Y0313164D02*
X0318964Y0313164D01*
X0318350Y0312165D02*
X0319962Y0312165D01*
X0319171Y0311634D02*
X0318649Y0312013D01*
X0318074Y0312306D01*
X0317460Y0312505D01*
X0316823Y0312606D01*
X0316800Y0312606D01*
X0316800Y0308806D01*
X0320600Y0308806D01*
X0320600Y0308829D01*
X0320499Y0309466D01*
X0320300Y0310080D01*
X0320007Y0310655D01*
X0319627Y0311177D01*
X0319171Y0311634D01*
X0319635Y0311167D02*
X0320961Y0311167D01*
X0320255Y0310168D02*
X0321959Y0310168D01*
X0322958Y0309170D02*
X0320546Y0309170D01*
X0320600Y0308206D02*
X0316800Y0308206D01*
X0316800Y0304406D01*
X0316823Y0304406D01*
X0317460Y0304507D01*
X0318074Y0304707D01*
X0318649Y0305000D01*
X0319171Y0305379D01*
X0319627Y0305835D01*
X0320007Y0306357D01*
X0320300Y0306932D01*
X0320499Y0307546D01*
X0320600Y0308184D01*
X0320600Y0308206D01*
X0320598Y0308171D02*
X0323956Y0308171D01*
X0324300Y0307828D02*
X0324300Y0287595D01*
X0325589Y0286306D01*
X0355159Y0256736D01*
X0354574Y0256151D01*
X0353863Y0254435D01*
X0353863Y0252578D01*
X0354574Y0250862D01*
X0355887Y0249549D01*
X0357603Y0248838D01*
X0365397Y0248838D01*
X0367113Y0249549D01*
X0368426Y0250862D01*
X0369137Y0252578D01*
X0369137Y0254435D01*
X0368426Y0256151D01*
X0367113Y0257464D01*
X0365397Y0258175D01*
X0359943Y0258175D01*
X0359280Y0258838D01*
X0365397Y0258838D01*
X0367113Y0259549D01*
X0368426Y0260862D01*
X0369137Y0262578D01*
X0369137Y0264435D01*
X0368426Y0266151D01*
X0367113Y0267464D01*
X0365397Y0268175D01*
X0359943Y0268175D01*
X0359280Y0268838D01*
X0365397Y0268838D01*
X0367113Y0269549D01*
X0368426Y0270862D01*
X0369137Y0272578D01*
X0369137Y0274435D01*
X0368426Y0276151D01*
X0367113Y0277464D01*
X0365397Y0278175D01*
X0359943Y0278175D01*
X0359280Y0278838D01*
X0365397Y0278838D01*
X0367113Y0279549D01*
X0368426Y0280862D01*
X0369137Y0282578D01*
X0369137Y0284435D01*
X0368426Y0286151D01*
X0367113Y0287464D01*
X0365397Y0288175D01*
X0357603Y0288175D01*
X0355887Y0287464D01*
X0354574Y0286151D01*
X0353863Y0284435D01*
X0353863Y0284255D01*
X0338700Y0299418D01*
X0338700Y0319418D01*
X0327411Y0330706D01*
X0242411Y0330706D01*
X0238886Y0334231D01*
X0244779Y0334231D01*
X0245775Y0335227D01*
X0245775Y0341785D01*
X0244779Y0342781D01*
X0238221Y0342781D01*
X0237225Y0341785D01*
X0237225Y0335892D01*
X0235775Y0337343D01*
X0235775Y0341785D01*
X0234779Y0342781D01*
X0228221Y0342781D01*
X0227225Y0341785D01*
X0227225Y0335892D01*
X0225775Y0337343D01*
X0225775Y0341785D01*
X0224779Y0342781D01*
X0218221Y0342781D01*
X0217225Y0341785D01*
X0217225Y0335892D01*
X0215775Y0337343D01*
X0215775Y0341785D01*
X0214779Y0342781D01*
X0208221Y0342781D01*
X0207225Y0341785D01*
X0207225Y0335227D01*
X0208221Y0334231D01*
X0212664Y0334231D01*
X0230589Y0316306D01*
X0315821Y0316306D01*
X0324300Y0307828D01*
X0324300Y0307173D02*
X0320378Y0307173D01*
X0319874Y0306174D02*
X0324300Y0306174D01*
X0324300Y0305176D02*
X0318891Y0305176D01*
X0316800Y0305176D02*
X0316200Y0305176D01*
X0316200Y0304406D02*
X0316200Y0308206D01*
X0316800Y0308206D01*
X0316800Y0308806D01*
X0316200Y0308806D01*
X0316200Y0308206D01*
X0312400Y0308206D01*
X0312400Y0308184D01*
X0312501Y0307546D01*
X0312700Y0306932D01*
X0312993Y0306357D01*
X0313373Y0305835D01*
X0313829Y0305379D01*
X0314351Y0305000D01*
X0314926Y0304707D01*
X0315540Y0304507D01*
X0316177Y0304406D01*
X0316200Y0304406D01*
X0316200Y0306174D02*
X0316800Y0306174D01*
X0316800Y0307173D02*
X0316200Y0307173D01*
X0316200Y0308171D02*
X0316800Y0308171D01*
X0316200Y0308806D02*
X0312400Y0308806D01*
X0312400Y0308829D01*
X0312501Y0309466D01*
X0312700Y0310080D01*
X0312993Y0310655D01*
X0313373Y0311177D01*
X0313829Y0311634D01*
X0314351Y0312013D01*
X0314926Y0312306D01*
X0315540Y0312505D01*
X0316177Y0312606D01*
X0316200Y0312606D01*
X0316200Y0308806D01*
X0316200Y0309170D02*
X0316800Y0309170D01*
X0316800Y0310168D02*
X0316200Y0310168D01*
X0316200Y0311167D02*
X0316800Y0311167D01*
X0316800Y0312165D02*
X0316200Y0312165D01*
X0314650Y0312165D02*
X0308903Y0312165D01*
X0308936Y0312152D02*
X0307355Y0312806D01*
X0305645Y0312806D01*
X0304064Y0312152D01*
X0302855Y0310942D01*
X0302200Y0309362D01*
X0302200Y0307651D01*
X0302855Y0306071D01*
X0304064Y0304861D01*
X0305645Y0304206D01*
X0307355Y0304206D01*
X0308936Y0304861D01*
X0310145Y0306071D01*
X0310800Y0307651D01*
X0310800Y0309362D01*
X0310145Y0310942D01*
X0308936Y0312152D01*
X0309921Y0311167D02*
X0313365Y0311167D01*
X0312745Y0310168D02*
X0310466Y0310168D01*
X0310800Y0309170D02*
X0312454Y0309170D01*
X0312402Y0308171D02*
X0310800Y0308171D01*
X0310602Y0307173D02*
X0312622Y0307173D01*
X0313126Y0306174D02*
X0310188Y0306174D01*
X0309251Y0305176D02*
X0314109Y0305176D01*
X0317965Y0314162D02*
X0038889Y0314162D01*
X0038916Y0313991D02*
X0038827Y0314553D01*
X0038610Y0315222D01*
X0038290Y0315848D01*
X0037877Y0316417D01*
X0037380Y0316915D01*
X0036811Y0317328D01*
X0036184Y0317647D01*
X0035515Y0317865D01*
X0034820Y0317975D01*
X0031984Y0317975D01*
X0031984Y0313991D01*
X0038916Y0313991D01*
X0038629Y0315161D02*
X0316967Y0315161D01*
X0315968Y0316159D02*
X0038064Y0316159D01*
X0037045Y0317158D02*
X0229737Y0317158D01*
X0228739Y0318156D02*
X0006000Y0318156D01*
X0006000Y0317158D02*
X0025955Y0317158D01*
X0024936Y0316159D02*
X0006000Y0316159D01*
X0006000Y0315161D02*
X0024371Y0315161D01*
X0024111Y0314162D02*
X0006000Y0314162D01*
X0006000Y0319155D02*
X0026837Y0319155D01*
X0027603Y0318838D02*
X0035397Y0318838D01*
X0037113Y0319549D01*
X0038426Y0320862D01*
X0039137Y0322578D01*
X0039137Y0324435D01*
X0038426Y0326151D01*
X0037113Y0327464D01*
X0035397Y0328175D01*
X0027603Y0328175D01*
X0025887Y0327464D01*
X0024574Y0326151D01*
X0023863Y0324435D01*
X0023863Y0322578D01*
X0024574Y0320862D01*
X0025887Y0319549D01*
X0027603Y0318838D01*
X0025282Y0320153D02*
X0006000Y0320153D01*
X0006000Y0321152D02*
X0024454Y0321152D01*
X0024040Y0322151D02*
X0006000Y0322151D01*
X0006000Y0323149D02*
X0023863Y0323149D01*
X0023863Y0324148D02*
X0006000Y0324148D01*
X0006000Y0325146D02*
X0024158Y0325146D01*
X0024571Y0326145D02*
X0006000Y0326145D01*
X0006000Y0327143D02*
X0025566Y0327143D01*
X0027523Y0328142D02*
X0006000Y0328142D01*
X0006000Y0329140D02*
X0217755Y0329140D01*
X0218753Y0328142D02*
X0035477Y0328142D01*
X0037434Y0327143D02*
X0219752Y0327143D01*
X0220750Y0326145D02*
X0038429Y0326145D01*
X0038842Y0325146D02*
X0221749Y0325146D01*
X0222747Y0324148D02*
X0039137Y0324148D01*
X0039137Y0323149D02*
X0223746Y0323149D01*
X0224745Y0322151D02*
X0038960Y0322151D01*
X0038546Y0321152D02*
X0225743Y0321152D01*
X0226742Y0320153D02*
X0037718Y0320153D01*
X0036163Y0319155D02*
X0227740Y0319155D01*
X0231500Y0318506D02*
X0211500Y0338506D01*
X0215775Y0338127D02*
X0217225Y0338127D01*
X0217225Y0339125D02*
X0215775Y0339125D01*
X0215775Y0340124D02*
X0217225Y0340124D01*
X0217225Y0341122D02*
X0215775Y0341122D01*
X0215439Y0342121D02*
X0217561Y0342121D01*
X0218221Y0344231D02*
X0217225Y0345227D01*
X0217225Y0351785D01*
X0218221Y0352781D01*
X0224779Y0352781D01*
X0225775Y0351785D01*
X0225775Y0345227D01*
X0224779Y0344231D01*
X0218221Y0344231D01*
X0217336Y0345116D02*
X0215664Y0345116D01*
X0215775Y0345227D02*
X0215775Y0351785D01*
X0214779Y0352781D01*
X0208221Y0352781D01*
X0207225Y0351785D01*
X0207225Y0345227D01*
X0208221Y0344231D01*
X0214779Y0344231D01*
X0215775Y0345227D01*
X0215775Y0346115D02*
X0217225Y0346115D01*
X0217225Y0347113D02*
X0215775Y0347113D01*
X0215775Y0348112D02*
X0217225Y0348112D01*
X0217225Y0349110D02*
X0215775Y0349110D01*
X0215775Y0350109D02*
X0217225Y0350109D01*
X0217225Y0351107D02*
X0215775Y0351107D01*
X0215454Y0352106D02*
X0217546Y0352106D01*
X0225454Y0352106D02*
X0227546Y0352106D01*
X0227225Y0351785D02*
X0227225Y0345227D01*
X0228221Y0344231D01*
X0234779Y0344231D01*
X0235775Y0345227D01*
X0235775Y0351785D01*
X0234779Y0352781D01*
X0228221Y0352781D01*
X0227225Y0351785D01*
X0227225Y0351107D02*
X0225775Y0351107D01*
X0225775Y0350109D02*
X0227225Y0350109D01*
X0227225Y0349110D02*
X0225775Y0349110D01*
X0225775Y0348112D02*
X0227225Y0348112D01*
X0227225Y0347113D02*
X0225775Y0347113D01*
X0225775Y0346115D02*
X0227225Y0346115D01*
X0227336Y0345116D02*
X0225664Y0345116D01*
X0225439Y0342121D02*
X0227561Y0342121D01*
X0227225Y0341122D02*
X0225775Y0341122D01*
X0225775Y0340124D02*
X0227225Y0340124D01*
X0227225Y0339125D02*
X0225775Y0339125D01*
X0225775Y0338127D02*
X0227225Y0338127D01*
X0227225Y0337128D02*
X0225989Y0337128D01*
X0226988Y0336130D02*
X0227225Y0336130D01*
X0231500Y0338506D02*
X0241500Y0328506D01*
X0326500Y0328506D01*
X0336500Y0318506D01*
X0336500Y0298506D01*
X0361500Y0273506D01*
X0359902Y0278216D02*
X0442000Y0278216D01*
X0442000Y0277217D02*
X0367360Y0277217D01*
X0368358Y0276219D02*
X0442000Y0276219D01*
X0442000Y0275220D02*
X0368812Y0275220D01*
X0369137Y0274222D02*
X0442000Y0274222D01*
X0442000Y0273223D02*
X0369137Y0273223D01*
X0368991Y0272225D02*
X0442000Y0272225D01*
X0442000Y0271226D02*
X0368577Y0271226D01*
X0367792Y0270228D02*
X0442000Y0270228D01*
X0442000Y0269229D02*
X0366343Y0269229D01*
X0367345Y0267232D02*
X0442000Y0267232D01*
X0442000Y0266234D02*
X0368343Y0266234D01*
X0368805Y0265235D02*
X0442000Y0265235D01*
X0442000Y0264237D02*
X0369137Y0264237D01*
X0369137Y0263238D02*
X0442000Y0263238D01*
X0442000Y0262240D02*
X0368997Y0262240D01*
X0368583Y0261241D02*
X0442000Y0261241D01*
X0442000Y0260243D02*
X0367807Y0260243D01*
X0366378Y0259244D02*
X0442000Y0259244D01*
X0442000Y0258246D02*
X0359872Y0258246D01*
X0361500Y0253506D02*
X0326500Y0288506D01*
X0326500Y0308739D01*
X0316733Y0318506D01*
X0231500Y0318506D01*
X0228903Y0312165D02*
X0234097Y0312165D01*
X0234064Y0312152D02*
X0232855Y0310942D01*
X0232200Y0309362D01*
X0232200Y0307651D01*
X0232855Y0306071D01*
X0234064Y0304861D01*
X0235645Y0304206D01*
X0237355Y0304206D01*
X0238936Y0304861D01*
X0240145Y0306071D01*
X0240800Y0307651D01*
X0240800Y0309362D01*
X0240145Y0310942D01*
X0238936Y0312152D01*
X0237355Y0312806D01*
X0235645Y0312806D01*
X0234064Y0312152D01*
X0233079Y0311167D02*
X0229921Y0311167D01*
X0230145Y0310942D02*
X0228936Y0312152D01*
X0227355Y0312806D01*
X0225645Y0312806D01*
X0224064Y0312152D01*
X0222855Y0310942D01*
X0222200Y0309362D01*
X0222200Y0307651D01*
X0222855Y0306071D01*
X0224064Y0304861D01*
X0225645Y0304206D01*
X0227355Y0304206D01*
X0228936Y0304861D01*
X0230145Y0306071D01*
X0230800Y0307651D01*
X0230800Y0309362D01*
X0230145Y0310942D01*
X0230466Y0310168D02*
X0232534Y0310168D01*
X0232200Y0309170D02*
X0230800Y0309170D01*
X0230800Y0308171D02*
X0232200Y0308171D01*
X0232398Y0307173D02*
X0230602Y0307173D01*
X0230188Y0306174D02*
X0232812Y0306174D01*
X0233749Y0305176D02*
X0229251Y0305176D01*
X0223749Y0305176D02*
X0219260Y0305176D01*
X0219203Y0305313D02*
X0218306Y0306210D01*
X0217134Y0306695D01*
X0215866Y0306695D01*
X0214694Y0306210D01*
X0213797Y0305313D01*
X0213311Y0304141D01*
X0213311Y0302872D01*
X0213797Y0301700D01*
X0214694Y0300803D01*
X0215866Y0300317D01*
X0216224Y0300317D01*
X0229050Y0287491D01*
X0229050Y0281721D01*
X0228649Y0282013D01*
X0228074Y0282306D01*
X0227460Y0282505D01*
X0226823Y0282606D01*
X0226800Y0282606D01*
X0226800Y0278806D01*
X0226200Y0278806D01*
X0226200Y0278206D01*
X0226800Y0278206D01*
X0226800Y0274406D01*
X0226823Y0274406D01*
X0227460Y0274507D01*
X0228074Y0274707D01*
X0228649Y0275000D01*
X0229050Y0275291D01*
X0229050Y0236241D01*
X0229423Y0235340D01*
X0246758Y0218005D01*
X0246758Y0217646D01*
X0247244Y0216474D01*
X0247497Y0216221D01*
X0247497Y0210956D01*
X0198560Y0210956D01*
X0198306Y0211210D01*
X0197134Y0211695D01*
X0195866Y0211695D01*
X0194694Y0211210D01*
X0193797Y0210313D01*
X0193311Y0209141D01*
X0193311Y0207872D01*
X0193797Y0206700D01*
X0194694Y0205803D01*
X0195866Y0205317D01*
X0197134Y0205317D01*
X0198306Y0205803D01*
X0198560Y0206056D01*
X0248932Y0206056D01*
X0252870Y0202118D01*
X0253559Y0201429D01*
X0254460Y0201056D01*
X0262440Y0201056D01*
X0262694Y0200803D01*
X0263866Y0200317D01*
X0265134Y0200317D01*
X0266306Y0200803D01*
X0267203Y0201700D01*
X0267689Y0202872D01*
X0267689Y0204141D01*
X0267203Y0205313D01*
X0266306Y0206210D01*
X0265134Y0206695D01*
X0263866Y0206695D01*
X0262694Y0206210D01*
X0262440Y0205956D01*
X0255962Y0205956D01*
X0252397Y0209521D01*
X0252397Y0216221D01*
X0252651Y0216474D01*
X0253136Y0217646D01*
X0253136Y0218915D01*
X0252651Y0220087D01*
X0251754Y0220984D01*
X0250582Y0221470D01*
X0250223Y0221470D01*
X0233950Y0237743D01*
X0233950Y0261546D01*
X0234694Y0260803D01*
X0235866Y0260317D01*
X0237134Y0260317D01*
X0238306Y0260803D01*
X0239203Y0261700D01*
X0239689Y0262872D01*
X0239689Y0263230D01*
X0241776Y0265317D01*
X0242134Y0265317D01*
X0243306Y0265803D01*
X0243560Y0266056D01*
X0299440Y0266056D01*
X0299694Y0265803D01*
X0300866Y0265317D01*
X0301224Y0265317D01*
X0305310Y0261232D01*
X0305310Y0239306D01*
X0305056Y0239053D01*
X0304571Y0237881D01*
X0304571Y0236612D01*
X0304620Y0236494D01*
X0304134Y0236695D01*
X0302866Y0236695D01*
X0301694Y0236210D01*
X0300797Y0235313D01*
X0300601Y0234841D01*
X0300145Y0235942D01*
X0298936Y0237152D01*
X0297355Y0237806D01*
X0295645Y0237806D01*
X0294064Y0237152D01*
X0292855Y0235942D01*
X0292200Y0234362D01*
X0292200Y0232651D01*
X0292855Y0231071D01*
X0294064Y0229861D01*
X0295645Y0229206D01*
X0297355Y0229206D01*
X0298936Y0229861D01*
X0300145Y0231071D01*
X0300601Y0232171D01*
X0300797Y0231700D01*
X0301694Y0230803D01*
X0302866Y0230317D01*
X0303578Y0230317D01*
X0307589Y0226306D01*
X0309190Y0226306D01*
X0309694Y0225803D01*
X0310866Y0225317D01*
X0312134Y0225317D01*
X0313306Y0225803D01*
X0314203Y0226700D01*
X0314689Y0227872D01*
X0314689Y0229141D01*
X0314203Y0230313D01*
X0313306Y0231210D01*
X0312134Y0231695D01*
X0310866Y0231695D01*
X0309694Y0231210D01*
X0309301Y0230817D01*
X0306689Y0233429D01*
X0306689Y0234141D01*
X0306640Y0234259D01*
X0307126Y0234057D01*
X0308394Y0234057D01*
X0309566Y0234543D01*
X0310463Y0235440D01*
X0310949Y0236612D01*
X0310949Y0237881D01*
X0310463Y0239053D01*
X0310210Y0239306D01*
X0310210Y0262734D01*
X0309837Y0263634D01*
X0304689Y0268782D01*
X0304689Y0269141D01*
X0304203Y0270313D01*
X0303306Y0271210D01*
X0302134Y0271695D01*
X0300866Y0271695D01*
X0299694Y0271210D01*
X0299440Y0270956D01*
X0243560Y0270956D01*
X0243306Y0271210D01*
X0242134Y0271695D01*
X0240866Y0271695D01*
X0239694Y0271210D01*
X0238797Y0270313D01*
X0238311Y0269141D01*
X0238311Y0268782D01*
X0236224Y0266695D01*
X0235866Y0266695D01*
X0234694Y0266210D01*
X0233950Y0265466D01*
X0233950Y0274975D01*
X0234064Y0274861D01*
X0235645Y0274206D01*
X0237355Y0274206D01*
X0238936Y0274861D01*
X0240145Y0276071D01*
X0240800Y0277651D01*
X0240800Y0279362D01*
X0240145Y0280942D01*
X0238936Y0282152D01*
X0237355Y0282806D01*
X0235645Y0282806D01*
X0234064Y0282152D01*
X0233950Y0282037D01*
X0233950Y0287491D01*
X0242515Y0296056D01*
X0261987Y0296056D01*
X0262888Y0296429D01*
X0263577Y0297118D01*
X0266776Y0300317D01*
X0267134Y0300317D01*
X0268306Y0300803D01*
X0269203Y0301700D01*
X0269689Y0302872D01*
X0269689Y0304141D01*
X0269203Y0305313D01*
X0268306Y0306210D01*
X0267134Y0306695D01*
X0265866Y0306695D01*
X0264694Y0306210D01*
X0263797Y0305313D01*
X0263311Y0304141D01*
X0263311Y0303782D01*
X0260485Y0300956D01*
X0241013Y0300956D01*
X0240112Y0300583D01*
X0239423Y0299894D01*
X0231500Y0291971D01*
X0219689Y0303782D01*
X0219689Y0304141D01*
X0219203Y0305313D01*
X0218342Y0306174D02*
X0222812Y0306174D01*
X0222398Y0307173D02*
X0037404Y0307173D01*
X0038403Y0306174D02*
X0214658Y0306174D01*
X0213740Y0305176D02*
X0038830Y0305176D01*
X0039137Y0304177D02*
X0213326Y0304177D01*
X0213311Y0303179D02*
X0039137Y0303179D01*
X0038972Y0302180D02*
X0213598Y0302180D01*
X0214315Y0301182D02*
X0038559Y0301182D01*
X0037748Y0300183D02*
X0216358Y0300183D01*
X0217357Y0299185D02*
X0036235Y0299185D01*
X0031500Y0293506D02*
X0026500Y0288506D01*
X0011500Y0273506D01*
X0011500Y0188506D01*
X0046500Y0153506D01*
X0106500Y0153506D01*
X0111500Y0148506D01*
X0116500Y0153506D01*
X0166500Y0153506D01*
X0186500Y0173506D01*
X0186500Y0188506D01*
X0182175Y0190347D02*
X0181452Y0190347D01*
X0181800Y0189348D02*
X0180453Y0189348D01*
X0179455Y0188350D02*
X0181800Y0188350D01*
X0181891Y0187351D02*
X0178456Y0187351D01*
X0177458Y0186353D02*
X0182305Y0186353D01*
X0183005Y0185354D02*
X0176459Y0185354D01*
X0175461Y0184356D02*
X0184238Y0184356D01*
X0184300Y0183357D02*
X0174462Y0183357D01*
X0173700Y0182595D02*
X0184911Y0193806D01*
X0214300Y0193806D01*
X0214300Y0192682D01*
X0213838Y0192491D01*
X0212516Y0191169D01*
X0211800Y0189441D01*
X0211800Y0187571D01*
X0212516Y0185844D01*
X0213838Y0184522D01*
X0215565Y0183806D01*
X0217435Y0183806D01*
X0219162Y0184522D01*
X0220484Y0185844D01*
X0221200Y0187571D01*
X0221200Y0189441D01*
X0220484Y0191169D01*
X0219162Y0192491D01*
X0218700Y0192682D01*
X0218700Y0193806D01*
X0288089Y0193806D01*
X0289238Y0192657D01*
X0288838Y0192491D01*
X0287516Y0191169D01*
X0286800Y0189441D01*
X0286800Y0187571D01*
X0287516Y0185844D01*
X0288838Y0184522D01*
X0290565Y0183806D01*
X0292435Y0183806D01*
X0294162Y0184522D01*
X0295484Y0185844D01*
X0296200Y0187571D01*
X0296200Y0189441D01*
X0295484Y0191169D01*
X0294162Y0192491D01*
X0293762Y0192657D01*
X0312411Y0211306D01*
X0354390Y0211306D01*
X0354574Y0210862D01*
X0355887Y0209549D01*
X0357603Y0208838D01*
X0365397Y0208838D01*
X0367113Y0209549D01*
X0368426Y0210862D01*
X0369137Y0212578D01*
X0369137Y0214435D01*
X0368426Y0216151D01*
X0367113Y0217464D01*
X0365397Y0218175D01*
X0357603Y0218175D01*
X0355887Y0217464D01*
X0354574Y0216151D01*
X0354390Y0215706D01*
X0310589Y0215706D01*
X0309300Y0214418D01*
X0309300Y0214418D01*
X0291500Y0196618D01*
X0291200Y0196918D01*
X0289911Y0198206D01*
X0183089Y0198206D01*
X0170589Y0185706D01*
X0118073Y0185706D01*
X0118306Y0185803D01*
X0119203Y0186700D01*
X0119689Y0187872D01*
X0119689Y0189141D01*
X0119203Y0190313D01*
X0118700Y0190816D01*
X0118700Y0211196D01*
X0119203Y0211700D01*
X0119689Y0212872D01*
X0119689Y0214141D01*
X0119203Y0215313D01*
X0118306Y0216210D01*
X0117134Y0216695D01*
X0115866Y0216695D01*
X0114694Y0216210D01*
X0113950Y0215466D01*
X0113950Y0218994D01*
X0113577Y0219894D01*
X0103950Y0229521D01*
X0103950Y0241446D01*
X0104203Y0241700D01*
X0104689Y0242872D01*
X0104689Y0244141D01*
X0104203Y0245313D01*
X0103306Y0246210D01*
X0102134Y0246695D01*
X0100866Y0246695D01*
X0099694Y0246210D01*
X0099440Y0245956D01*
X0092515Y0245956D01*
X0054689Y0283782D01*
X0054689Y0284141D01*
X0054203Y0285313D01*
X0053306Y0286210D01*
X0052134Y0286695D01*
X0050866Y0286695D01*
X0049694Y0286210D01*
X0048797Y0285313D01*
X0048311Y0284141D01*
X0048311Y0282872D01*
X0048797Y0281700D01*
X0049694Y0280803D01*
X0050866Y0280317D01*
X0051224Y0280317D01*
X0089423Y0242118D01*
X0090112Y0241429D01*
X0091013Y0241056D01*
X0099050Y0241056D01*
X0099050Y0228019D01*
X0099423Y0227118D01*
X0100112Y0226429D01*
X0109050Y0217491D01*
X0109050Y0200566D01*
X0108797Y0200313D01*
X0108311Y0199141D01*
X0108311Y0197872D01*
X0108797Y0196700D01*
X0109694Y0195803D01*
X0110866Y0195317D01*
X0112134Y0195317D01*
X0113306Y0195803D01*
X0114203Y0196700D01*
X0114300Y0196933D01*
X0114300Y0190816D01*
X0113797Y0190313D01*
X0113311Y0189141D01*
X0113311Y0187872D01*
X0113797Y0186700D01*
X0114694Y0185803D01*
X0114927Y0185706D01*
X0047411Y0185706D01*
X0044689Y0188429D01*
X0044689Y0189141D01*
X0044203Y0190313D01*
X0043306Y0191210D01*
X0042134Y0191695D01*
X0040866Y0191695D01*
X0039694Y0191210D01*
X0038797Y0190313D01*
X0038311Y0189141D01*
X0038311Y0187872D01*
X0038797Y0186700D01*
X0039694Y0185803D01*
X0040866Y0185317D01*
X0041578Y0185317D01*
X0044300Y0182595D01*
X0045589Y0181306D01*
X0172411Y0181306D01*
X0173700Y0182595D01*
X0173464Y0182359D02*
X0184300Y0182359D01*
X0184300Y0181360D02*
X0172465Y0181360D01*
X0171500Y0183506D02*
X0046500Y0183506D01*
X0041500Y0188506D01*
X0038527Y0187351D02*
X0015766Y0187351D01*
X0016765Y0186353D02*
X0039143Y0186353D01*
X0040776Y0185354D02*
X0017763Y0185354D01*
X0018762Y0184356D02*
X0042539Y0184356D01*
X0043538Y0183357D02*
X0019760Y0183357D01*
X0020759Y0182359D02*
X0044536Y0182359D01*
X0044300Y0182595D02*
X0044300Y0182595D01*
X0045535Y0181360D02*
X0021757Y0181360D01*
X0022756Y0180362D02*
X0184300Y0180362D01*
X0184300Y0179363D02*
X0023754Y0179363D01*
X0024753Y0178365D02*
X0184300Y0178365D01*
X0184300Y0177366D02*
X0025751Y0177366D01*
X0026750Y0176368D02*
X0184300Y0176368D01*
X0184300Y0175369D02*
X0027748Y0175369D01*
X0028747Y0174371D02*
X0184253Y0174371D01*
X0183255Y0173372D02*
X0029745Y0173372D01*
X0030744Y0172374D02*
X0182256Y0172374D01*
X0181258Y0171375D02*
X0031742Y0171375D01*
X0032741Y0170377D02*
X0180259Y0170377D01*
X0179261Y0169378D02*
X0033739Y0169378D01*
X0034738Y0168380D02*
X0178262Y0168380D01*
X0177264Y0167381D02*
X0035736Y0167381D01*
X0036735Y0166383D02*
X0176265Y0166383D01*
X0175267Y0165384D02*
X0037733Y0165384D01*
X0038732Y0164386D02*
X0174268Y0164386D01*
X0173270Y0163387D02*
X0039730Y0163387D01*
X0040729Y0162389D02*
X0172271Y0162389D01*
X0171273Y0161390D02*
X0041727Y0161390D01*
X0042726Y0160392D02*
X0170274Y0160392D01*
X0169276Y0159393D02*
X0043724Y0159393D01*
X0044723Y0158395D02*
X0168277Y0158395D01*
X0167279Y0157396D02*
X0045721Y0157396D01*
X0046720Y0156398D02*
X0166280Y0156398D01*
X0169507Y0153402D02*
X0184300Y0153402D01*
X0184300Y0153806D02*
X0184300Y0137435D01*
X0183967Y0137297D01*
X0182709Y0136039D01*
X0182028Y0134396D01*
X0182028Y0132617D01*
X0182709Y0130973D01*
X0183967Y0129715D01*
X0185611Y0129035D01*
X0187389Y0129035D01*
X0189033Y0129715D01*
X0190291Y0130973D01*
X0190972Y0132617D01*
X0190972Y0134396D01*
X0190291Y0136039D01*
X0189033Y0137297D01*
X0188700Y0137435D01*
X0188700Y0153806D01*
X0190204Y0153806D01*
X0191200Y0154802D01*
X0191200Y0162210D01*
X0190204Y0163206D01*
X0182796Y0163206D01*
X0181800Y0162210D01*
X0181800Y0154802D01*
X0182796Y0153806D01*
X0184300Y0153806D01*
X0184300Y0152404D02*
X0168509Y0152404D01*
X0167510Y0151405D02*
X0184300Y0151405D01*
X0184300Y0150407D02*
X0116512Y0150407D01*
X0115513Y0149408D02*
X0184300Y0149408D01*
X0184300Y0148410D02*
X0114515Y0148410D01*
X0113700Y0147411D02*
X0184300Y0147411D01*
X0184300Y0146413D02*
X0113700Y0146413D01*
X0113700Y0145414D02*
X0184300Y0145414D01*
X0184300Y0144415D02*
X0113700Y0144415D01*
X0113700Y0143417D02*
X0184300Y0143417D01*
X0184300Y0142418D02*
X0113700Y0142418D01*
X0113700Y0141420D02*
X0184300Y0141420D01*
X0184300Y0140421D02*
X0113700Y0140421D01*
X0113700Y0139423D02*
X0184300Y0139423D01*
X0184300Y0138424D02*
X0113700Y0138424D01*
X0113722Y0137426D02*
X0119784Y0137426D01*
X0119860Y0137465D02*
X0119261Y0137160D01*
X0118717Y0136765D01*
X0118242Y0136289D01*
X0117847Y0135745D01*
X0117541Y0135146D01*
X0117334Y0134507D01*
X0117236Y0133892D01*
X0121114Y0133892D01*
X0121114Y0133120D01*
X0121886Y0133120D01*
X0121886Y0129243D01*
X0122500Y0129340D01*
X0123140Y0129548D01*
X0123739Y0129853D01*
X0124283Y0130248D01*
X0124758Y0130723D01*
X0125153Y0131267D01*
X0125459Y0131867D01*
X0125666Y0132506D01*
X0125764Y0133120D01*
X0121886Y0133120D01*
X0121886Y0133892D01*
X0125764Y0133892D01*
X0125666Y0134507D01*
X0125459Y0135146D01*
X0125153Y0135745D01*
X0124758Y0136289D01*
X0124283Y0136765D01*
X0123739Y0137160D01*
X0123140Y0137465D01*
X0122500Y0137673D01*
X0121886Y0137770D01*
X0121886Y0133892D01*
X0121114Y0133892D01*
X0121114Y0137770D01*
X0120500Y0137673D01*
X0119860Y0137465D01*
X0121114Y0137426D02*
X0121886Y0137426D01*
X0121886Y0136427D02*
X0121114Y0136427D01*
X0121114Y0135429D02*
X0121886Y0135429D01*
X0121886Y0134430D02*
X0121114Y0134430D01*
X0121114Y0133432D02*
X0115972Y0133432D01*
X0115957Y0134430D02*
X0117321Y0134430D01*
X0117685Y0135429D02*
X0115544Y0135429D01*
X0114903Y0136427D02*
X0118380Y0136427D01*
X0117236Y0133120D02*
X0117334Y0132506D01*
X0117541Y0131867D01*
X0117847Y0131267D01*
X0118242Y0130723D01*
X0118717Y0130248D01*
X0119261Y0129853D01*
X0119860Y0129548D01*
X0120500Y0129340D01*
X0121114Y0129243D01*
X0121114Y0133120D01*
X0117236Y0133120D01*
X0117357Y0132433D02*
X0115896Y0132433D01*
X0115482Y0131435D02*
X0117761Y0131435D01*
X0118529Y0130436D02*
X0114754Y0130436D01*
X0113363Y0129438D02*
X0120198Y0129438D01*
X0121114Y0129438D02*
X0121886Y0129438D01*
X0122802Y0129438D02*
X0184637Y0129438D01*
X0183246Y0130436D02*
X0124471Y0130436D01*
X0125239Y0131435D02*
X0182518Y0131435D01*
X0182104Y0132433D02*
X0125643Y0132433D01*
X0125679Y0134430D02*
X0182043Y0134430D01*
X0182028Y0133432D02*
X0121886Y0133432D01*
X0121886Y0132433D02*
X0121114Y0132433D01*
X0121114Y0131435D02*
X0121886Y0131435D01*
X0121886Y0130436D02*
X0121114Y0130436D01*
X0125315Y0135429D02*
X0182456Y0135429D01*
X0183097Y0136427D02*
X0124620Y0136427D01*
X0123216Y0137426D02*
X0184278Y0137426D01*
X0188722Y0137426D02*
X0194784Y0137426D01*
X0194860Y0137465D02*
X0194261Y0137160D01*
X0193717Y0136765D01*
X0193242Y0136289D01*
X0192847Y0135745D01*
X0192541Y0135146D01*
X0192334Y0134507D01*
X0192236Y0133892D01*
X0196114Y0133892D01*
X0196114Y0133120D01*
X0196886Y0133120D01*
X0196886Y0129243D01*
X0197500Y0129340D01*
X0198140Y0129548D01*
X0198739Y0129853D01*
X0199283Y0130248D01*
X0199758Y0130723D01*
X0200153Y0131267D01*
X0200459Y0131867D01*
X0200666Y0132506D01*
X0200764Y0133120D01*
X0196886Y0133120D01*
X0196886Y0133892D01*
X0200764Y0133892D01*
X0200666Y0134507D01*
X0200459Y0135146D01*
X0200153Y0135745D01*
X0199758Y0136289D01*
X0199283Y0136765D01*
X0198739Y0137160D01*
X0198140Y0137465D01*
X0197500Y0137673D01*
X0196886Y0137770D01*
X0196886Y0133892D01*
X0196114Y0133892D01*
X0196114Y0137770D01*
X0195500Y0137673D01*
X0194860Y0137465D01*
X0196114Y0137426D02*
X0196886Y0137426D01*
X0196886Y0136427D02*
X0196114Y0136427D01*
X0196114Y0135429D02*
X0196886Y0135429D01*
X0196886Y0134430D02*
X0196114Y0134430D01*
X0196114Y0133432D02*
X0190972Y0133432D01*
X0190957Y0134430D02*
X0192321Y0134430D01*
X0192685Y0135429D02*
X0190544Y0135429D01*
X0189903Y0136427D02*
X0193380Y0136427D01*
X0192236Y0133120D02*
X0192334Y0132506D01*
X0192541Y0131867D01*
X0192847Y0131267D01*
X0193242Y0130723D01*
X0193717Y0130248D01*
X0194261Y0129853D01*
X0194860Y0129548D01*
X0195500Y0129340D01*
X0196114Y0129243D01*
X0196114Y0133120D01*
X0192236Y0133120D01*
X0192357Y0132433D02*
X0190896Y0132433D01*
X0190482Y0131435D02*
X0192761Y0131435D01*
X0193529Y0130436D02*
X0189754Y0130436D01*
X0188363Y0129438D02*
X0195198Y0129438D01*
X0196114Y0129438D02*
X0196886Y0129438D01*
X0197802Y0129438D02*
X0259637Y0129438D01*
X0258967Y0129715D02*
X0260611Y0129035D01*
X0262389Y0129035D01*
X0264033Y0129715D01*
X0265291Y0130973D01*
X0265972Y0132617D01*
X0265972Y0134396D01*
X0265291Y0136039D01*
X0264033Y0137297D01*
X0263700Y0137435D01*
X0263700Y0153806D01*
X0265204Y0153806D01*
X0266200Y0154802D01*
X0266200Y0162210D01*
X0265204Y0163206D01*
X0257796Y0163206D01*
X0256800Y0162210D01*
X0256800Y0154802D01*
X0257796Y0153806D01*
X0259300Y0153806D01*
X0259300Y0137435D01*
X0258967Y0137297D01*
X0257709Y0136039D01*
X0257028Y0134396D01*
X0257028Y0132617D01*
X0257709Y0130973D01*
X0258967Y0129715D01*
X0258246Y0130436D02*
X0199471Y0130436D01*
X0200239Y0131435D02*
X0257518Y0131435D01*
X0257104Y0132433D02*
X0200643Y0132433D01*
X0200679Y0134430D02*
X0257043Y0134430D01*
X0257028Y0133432D02*
X0196886Y0133432D01*
X0196886Y0132433D02*
X0196114Y0132433D01*
X0196114Y0131435D02*
X0196886Y0131435D01*
X0196886Y0130436D02*
X0196114Y0130436D01*
X0200315Y0135429D02*
X0257456Y0135429D01*
X0258097Y0136427D02*
X0199620Y0136427D01*
X0198216Y0137426D02*
X0259278Y0137426D01*
X0259300Y0138424D02*
X0188700Y0138424D01*
X0188700Y0139423D02*
X0259300Y0139423D01*
X0259300Y0140421D02*
X0188700Y0140421D01*
X0188700Y0141420D02*
X0259300Y0141420D01*
X0259300Y0142418D02*
X0188700Y0142418D01*
X0188700Y0143417D02*
X0259300Y0143417D01*
X0259300Y0144415D02*
X0188700Y0144415D01*
X0188700Y0145414D02*
X0259300Y0145414D01*
X0259300Y0146413D02*
X0188700Y0146413D01*
X0188700Y0147411D02*
X0259300Y0147411D01*
X0259300Y0148410D02*
X0188700Y0148410D01*
X0188700Y0149408D02*
X0259300Y0149408D01*
X0259300Y0150407D02*
X0188700Y0150407D01*
X0188700Y0151405D02*
X0259300Y0151405D01*
X0259300Y0152404D02*
X0188700Y0152404D01*
X0188700Y0153402D02*
X0259300Y0153402D01*
X0257202Y0154401D02*
X0218870Y0154401D01*
X0219162Y0154522D02*
X0220484Y0155844D01*
X0221200Y0157571D01*
X0221200Y0159441D01*
X0220484Y0161169D01*
X0219162Y0162491D01*
X0217435Y0163206D01*
X0215565Y0163206D01*
X0213838Y0162491D01*
X0212516Y0161169D01*
X0211800Y0159441D01*
X0211800Y0157571D01*
X0212516Y0155844D01*
X0213838Y0154522D01*
X0215565Y0153806D01*
X0217435Y0153806D01*
X0219162Y0154522D01*
X0220040Y0155399D02*
X0256800Y0155399D01*
X0256800Y0156398D02*
X0220714Y0156398D01*
X0221127Y0157396D02*
X0256800Y0157396D01*
X0256800Y0158395D02*
X0221200Y0158395D01*
X0221200Y0159393D02*
X0256800Y0159393D01*
X0256800Y0160392D02*
X0220806Y0160392D01*
X0220263Y0161390D02*
X0256800Y0161390D01*
X0256978Y0162389D02*
X0219264Y0162389D01*
X0213736Y0162389D02*
X0208792Y0162389D01*
X0208859Y0162355D02*
X0208227Y0162677D01*
X0207554Y0162895D01*
X0206854Y0163006D01*
X0206800Y0163006D01*
X0206800Y0158806D01*
X0211000Y0158806D01*
X0211000Y0158860D01*
X0210889Y0159560D01*
X0210670Y0160234D01*
X0210349Y0160865D01*
X0209932Y0161438D01*
X0209432Y0161939D01*
X0208859Y0162355D01*
X0209967Y0161390D02*
X0212737Y0161390D01*
X0212194Y0160392D02*
X0210590Y0160392D01*
X0210916Y0159393D02*
X0211800Y0159393D01*
X0211800Y0158395D02*
X0206800Y0158395D01*
X0206800Y0158206D02*
X0206800Y0158806D01*
X0206200Y0158806D01*
X0206200Y0158206D01*
X0206800Y0158206D01*
X0206800Y0154006D01*
X0206854Y0154006D01*
X0207554Y0154117D01*
X0208227Y0154336D01*
X0208859Y0154658D01*
X0209432Y0155074D01*
X0209932Y0155575D01*
X0210349Y0156148D01*
X0210670Y0156779D01*
X0210889Y0157453D01*
X0211000Y0158152D01*
X0211000Y0158206D01*
X0206800Y0158206D01*
X0206200Y0158206D02*
X0206200Y0154006D01*
X0206146Y0154006D01*
X0205446Y0154117D01*
X0204773Y0154336D01*
X0204141Y0154658D01*
X0203568Y0155074D01*
X0203068Y0155575D01*
X0202651Y0156148D01*
X0202330Y0156779D01*
X0202111Y0157453D01*
X0202000Y0158152D01*
X0202000Y0158206D01*
X0206200Y0158206D01*
X0206200Y0158395D02*
X0201200Y0158395D01*
X0201200Y0157571D02*
X0200484Y0155844D01*
X0199162Y0154522D01*
X0197435Y0153806D01*
X0195565Y0153806D01*
X0193838Y0154522D01*
X0192516Y0155844D01*
X0191800Y0157571D01*
X0191800Y0159441D01*
X0192516Y0161169D01*
X0193838Y0162491D01*
X0195565Y0163206D01*
X0197435Y0163206D01*
X0199162Y0162491D01*
X0200484Y0161169D01*
X0201200Y0159441D01*
X0201200Y0157571D01*
X0201127Y0157396D02*
X0202129Y0157396D01*
X0202524Y0156398D02*
X0200714Y0156398D01*
X0200040Y0155399D02*
X0203243Y0155399D01*
X0204646Y0154401D02*
X0198870Y0154401D01*
X0194130Y0154401D02*
X0190798Y0154401D01*
X0191200Y0155399D02*
X0192960Y0155399D01*
X0192286Y0156398D02*
X0191200Y0156398D01*
X0191200Y0157396D02*
X0191873Y0157396D01*
X0191800Y0158395D02*
X0191200Y0158395D01*
X0191200Y0159393D02*
X0191800Y0159393D01*
X0192194Y0160392D02*
X0191200Y0160392D01*
X0191200Y0161390D02*
X0192737Y0161390D01*
X0193736Y0162389D02*
X0191022Y0162389D01*
X0186500Y0158506D02*
X0186500Y0133506D01*
X0172485Y0119453D02*
X0200515Y0119453D01*
X0201513Y0120451D02*
X0171487Y0120451D01*
X0171279Y0120659D02*
X0168178Y0121943D01*
X0164822Y0121943D01*
X0161721Y0120659D01*
X0159347Y0118285D01*
X0158063Y0115185D01*
X0158063Y0111828D01*
X0159347Y0108727D01*
X0161721Y0106354D01*
X0164822Y0105069D01*
X0168178Y0105069D01*
X0171279Y0106354D01*
X0173653Y0108727D01*
X0174937Y0111828D01*
X0174937Y0115185D01*
X0173653Y0118285D01*
X0171279Y0120659D01*
X0169370Y0121450D02*
X0203630Y0121450D01*
X0204822Y0121943D02*
X0201721Y0120659D01*
X0199347Y0118285D01*
X0198063Y0115185D01*
X0198063Y0111828D01*
X0199347Y0108727D01*
X0201721Y0106354D01*
X0204822Y0105069D01*
X0208178Y0105069D01*
X0211279Y0106354D01*
X0213653Y0108727D01*
X0214937Y0111828D01*
X0214937Y0115185D01*
X0213653Y0118285D01*
X0211279Y0120659D01*
X0208178Y0121943D01*
X0204822Y0121943D01*
X0209370Y0121450D02*
X0238630Y0121450D01*
X0239822Y0121943D02*
X0236721Y0120659D01*
X0234347Y0118285D01*
X0233063Y0115185D01*
X0233063Y0111828D01*
X0234347Y0108727D01*
X0236721Y0106354D01*
X0239822Y0105069D01*
X0243178Y0105069D01*
X0246279Y0106354D01*
X0248653Y0108727D01*
X0249937Y0111828D01*
X0249937Y0115185D01*
X0248653Y0118285D01*
X0246279Y0120659D01*
X0243178Y0121943D01*
X0239822Y0121943D01*
X0236513Y0120451D02*
X0211487Y0120451D01*
X0212485Y0119453D02*
X0235515Y0119453D01*
X0234516Y0118454D02*
X0213484Y0118454D01*
X0213996Y0117456D02*
X0234004Y0117456D01*
X0233590Y0116457D02*
X0214410Y0116457D01*
X0214823Y0115459D02*
X0233177Y0115459D01*
X0233063Y0114460D02*
X0214937Y0114460D01*
X0214937Y0113462D02*
X0233063Y0113462D01*
X0233063Y0112463D02*
X0214937Y0112463D01*
X0214786Y0111465D02*
X0233214Y0111465D01*
X0233627Y0110466D02*
X0214373Y0110466D01*
X0213959Y0109468D02*
X0234041Y0109468D01*
X0234605Y0108469D02*
X0213395Y0108469D01*
X0212396Y0107471D02*
X0235604Y0107471D01*
X0236603Y0106472D02*
X0211397Y0106472D01*
X0209154Y0105474D02*
X0238846Y0105474D01*
X0244154Y0105474D02*
X0278846Y0105474D01*
X0279822Y0105069D02*
X0276721Y0106354D01*
X0274347Y0108727D01*
X0273063Y0111828D01*
X0273063Y0115185D01*
X0274347Y0118285D01*
X0276721Y0120659D01*
X0279822Y0121943D01*
X0283178Y0121943D01*
X0286279Y0120659D01*
X0288653Y0118285D01*
X0289937Y0115185D01*
X0289937Y0111828D01*
X0288653Y0108727D01*
X0286279Y0106354D01*
X0283178Y0105069D01*
X0279822Y0105069D01*
X0276603Y0106472D02*
X0246397Y0106472D01*
X0247396Y0107471D02*
X0275604Y0107471D01*
X0274605Y0108469D02*
X0248395Y0108469D01*
X0248959Y0109468D02*
X0274041Y0109468D01*
X0273627Y0110466D02*
X0249373Y0110466D01*
X0249786Y0111465D02*
X0273214Y0111465D01*
X0273063Y0112463D02*
X0249937Y0112463D01*
X0249937Y0113462D02*
X0273063Y0113462D01*
X0273063Y0114460D02*
X0249937Y0114460D01*
X0249823Y0115459D02*
X0273177Y0115459D01*
X0273590Y0116457D02*
X0249410Y0116457D01*
X0248996Y0117456D02*
X0274004Y0117456D01*
X0274516Y0118454D02*
X0248484Y0118454D01*
X0247485Y0119453D02*
X0275515Y0119453D01*
X0276513Y0120451D02*
X0246487Y0120451D01*
X0244370Y0121450D02*
X0278630Y0121450D01*
X0284370Y0121450D02*
X0313630Y0121450D01*
X0314822Y0121943D02*
X0311721Y0120659D01*
X0309347Y0118285D01*
X0308063Y0115185D01*
X0308063Y0111828D01*
X0309347Y0108727D01*
X0311721Y0106354D01*
X0314822Y0105069D01*
X0318178Y0105069D01*
X0321279Y0106354D01*
X0323653Y0108727D01*
X0324937Y0111828D01*
X0324937Y0115185D01*
X0323653Y0118285D01*
X0321279Y0120659D01*
X0318178Y0121943D01*
X0314822Y0121943D01*
X0311513Y0120451D02*
X0286487Y0120451D01*
X0287485Y0119453D02*
X0310515Y0119453D01*
X0309516Y0118454D02*
X0288484Y0118454D01*
X0288996Y0117456D02*
X0309004Y0117456D01*
X0308590Y0116457D02*
X0289410Y0116457D01*
X0289823Y0115459D02*
X0308177Y0115459D01*
X0308063Y0114460D02*
X0289937Y0114460D01*
X0289937Y0113462D02*
X0308063Y0113462D01*
X0308063Y0112463D02*
X0289937Y0112463D01*
X0289786Y0111465D02*
X0308214Y0111465D01*
X0308627Y0110466D02*
X0289373Y0110466D01*
X0288959Y0109468D02*
X0309041Y0109468D01*
X0309605Y0108469D02*
X0288395Y0108469D01*
X0287396Y0107471D02*
X0310604Y0107471D01*
X0311603Y0106472D02*
X0286397Y0106472D01*
X0284154Y0105474D02*
X0313846Y0105474D01*
X0319154Y0105474D02*
X0353846Y0105474D01*
X0354822Y0105069D02*
X0351721Y0106354D01*
X0349347Y0108727D01*
X0348063Y0111828D01*
X0348063Y0115185D01*
X0349347Y0118285D01*
X0351721Y0120659D01*
X0354822Y0121943D01*
X0358178Y0121943D01*
X0361279Y0120659D01*
X0363653Y0118285D01*
X0364937Y0115185D01*
X0364937Y0111828D01*
X0363653Y0108727D01*
X0361279Y0106354D01*
X0358178Y0105069D01*
X0354822Y0105069D01*
X0351603Y0106472D02*
X0321397Y0106472D01*
X0322396Y0107471D02*
X0350604Y0107471D01*
X0349605Y0108469D02*
X0323395Y0108469D01*
X0323959Y0109468D02*
X0349041Y0109468D01*
X0348627Y0110466D02*
X0324373Y0110466D01*
X0324786Y0111465D02*
X0348214Y0111465D01*
X0348063Y0112463D02*
X0324937Y0112463D01*
X0324937Y0113462D02*
X0348063Y0113462D01*
X0348063Y0114460D02*
X0324937Y0114460D01*
X0324823Y0115459D02*
X0348177Y0115459D01*
X0348590Y0116457D02*
X0324410Y0116457D01*
X0323996Y0117456D02*
X0349004Y0117456D01*
X0349516Y0118454D02*
X0323484Y0118454D01*
X0322485Y0119453D02*
X0350515Y0119453D01*
X0351513Y0120451D02*
X0321487Y0120451D01*
X0319370Y0121450D02*
X0353630Y0121450D01*
X0359370Y0121450D02*
X0388630Y0121450D01*
X0389822Y0121943D02*
X0386721Y0120659D01*
X0384347Y0118285D01*
X0383063Y0115185D01*
X0383063Y0111828D01*
X0384347Y0108727D01*
X0386721Y0106354D01*
X0389822Y0105069D01*
X0393178Y0105069D01*
X0396279Y0106354D01*
X0398653Y0108727D01*
X0399937Y0111828D01*
X0399937Y0115185D01*
X0398653Y0118285D01*
X0396279Y0120659D01*
X0393178Y0121943D01*
X0389822Y0121943D01*
X0386513Y0120451D02*
X0361487Y0120451D01*
X0362485Y0119453D02*
X0385515Y0119453D01*
X0384516Y0118454D02*
X0363484Y0118454D01*
X0363996Y0117456D02*
X0384004Y0117456D01*
X0383590Y0116457D02*
X0364410Y0116457D01*
X0364823Y0115459D02*
X0383177Y0115459D01*
X0383063Y0114460D02*
X0364937Y0114460D01*
X0364937Y0113462D02*
X0383063Y0113462D01*
X0383063Y0112463D02*
X0364937Y0112463D01*
X0364786Y0111465D02*
X0383214Y0111465D01*
X0383627Y0110466D02*
X0364373Y0110466D01*
X0363959Y0109468D02*
X0384041Y0109468D01*
X0384605Y0108469D02*
X0363395Y0108469D01*
X0362396Y0107471D02*
X0385604Y0107471D01*
X0386603Y0106472D02*
X0361397Y0106472D01*
X0359154Y0105474D02*
X0388846Y0105474D01*
X0394154Y0105474D02*
X0428846Y0105474D01*
X0429822Y0105069D02*
X0433178Y0105069D01*
X0436279Y0106354D01*
X0438653Y0108727D01*
X0439937Y0111828D01*
X0439937Y0115185D01*
X0438653Y0118285D01*
X0436279Y0120659D01*
X0433178Y0121943D01*
X0429822Y0121943D01*
X0426721Y0120659D01*
X0424347Y0118285D01*
X0423063Y0115185D01*
X0423063Y0111828D01*
X0424347Y0108727D01*
X0426721Y0106354D01*
X0429822Y0105069D01*
X0426603Y0106472D02*
X0396397Y0106472D01*
X0397396Y0107471D02*
X0425604Y0107471D01*
X0424605Y0108469D02*
X0398395Y0108469D01*
X0398959Y0109468D02*
X0424041Y0109468D01*
X0423627Y0110466D02*
X0399373Y0110466D01*
X0399786Y0111465D02*
X0423214Y0111465D01*
X0423063Y0112463D02*
X0399937Y0112463D01*
X0399937Y0113462D02*
X0423063Y0113462D01*
X0423063Y0114460D02*
X0399937Y0114460D01*
X0399823Y0115459D02*
X0423177Y0115459D01*
X0423590Y0116457D02*
X0399410Y0116457D01*
X0398996Y0117456D02*
X0424004Y0117456D01*
X0424516Y0118454D02*
X0398484Y0118454D01*
X0397485Y0119453D02*
X0425515Y0119453D01*
X0426513Y0120451D02*
X0396487Y0120451D01*
X0394370Y0121450D02*
X0428630Y0121450D01*
X0434370Y0121450D02*
X0442000Y0121450D01*
X0442000Y0122448D02*
X0006000Y0122448D01*
X0006000Y0121450D02*
X0013630Y0121450D01*
X0014822Y0121943D02*
X0011721Y0120659D01*
X0009347Y0118285D01*
X0008063Y0115185D01*
X0008063Y0111828D01*
X0009347Y0108727D01*
X0011721Y0106354D01*
X0014822Y0105069D01*
X0018178Y0105069D01*
X0021279Y0106354D01*
X0023653Y0108727D01*
X0024937Y0111828D01*
X0024937Y0115185D01*
X0023653Y0118285D01*
X0021279Y0120659D01*
X0018178Y0121943D01*
X0014822Y0121943D01*
X0011513Y0120451D02*
X0006000Y0120451D01*
X0006000Y0119453D02*
X0010515Y0119453D01*
X0009516Y0118454D02*
X0006000Y0118454D01*
X0006000Y0117456D02*
X0009004Y0117456D01*
X0008590Y0116457D02*
X0006000Y0116457D01*
X0006000Y0115459D02*
X0008177Y0115459D01*
X0008063Y0114460D02*
X0006000Y0114460D01*
X0006000Y0113462D02*
X0008063Y0113462D01*
X0008063Y0112463D02*
X0006000Y0112463D01*
X0006000Y0111465D02*
X0008214Y0111465D01*
X0008627Y0110466D02*
X0006000Y0110466D01*
X0006000Y0109468D02*
X0009041Y0109468D01*
X0009605Y0108469D02*
X0006000Y0108469D01*
X0006000Y0107471D02*
X0010604Y0107471D01*
X0011603Y0106472D02*
X0006000Y0106472D01*
X0006000Y0105474D02*
X0013846Y0105474D01*
X0006000Y0104475D02*
X0442000Y0104475D01*
X0442000Y0103477D02*
X0006000Y0103477D01*
X0006000Y0102478D02*
X0442000Y0102478D01*
X0442000Y0101480D02*
X0006000Y0101480D01*
X0006000Y0100481D02*
X0442000Y0100481D01*
X0442000Y0099482D02*
X0006000Y0099482D01*
X0006000Y0098484D02*
X0442000Y0098484D01*
X0442000Y0097485D02*
X0006000Y0097485D01*
X0006000Y0096487D02*
X0442000Y0096487D01*
X0442000Y0095488D02*
X0006000Y0095488D01*
X0006000Y0094490D02*
X0442000Y0094490D01*
X0442000Y0093491D02*
X0006000Y0093491D01*
X0006000Y0092493D02*
X0442000Y0092493D01*
X0442000Y0091494D02*
X0006000Y0091494D01*
X0006000Y0090496D02*
X0442000Y0090496D01*
X0442000Y0089497D02*
X0006000Y0089497D01*
X0006000Y0088499D02*
X0442000Y0088499D01*
X0442000Y0105474D02*
X0434154Y0105474D01*
X0436397Y0106472D02*
X0442000Y0106472D01*
X0442000Y0107471D02*
X0437396Y0107471D01*
X0438395Y0108469D02*
X0442000Y0108469D01*
X0442000Y0109468D02*
X0438959Y0109468D01*
X0439373Y0110466D02*
X0442000Y0110466D01*
X0442000Y0111465D02*
X0439786Y0111465D01*
X0439937Y0112463D02*
X0442000Y0112463D01*
X0442000Y0113462D02*
X0439937Y0113462D01*
X0439937Y0114460D02*
X0442000Y0114460D01*
X0442000Y0115459D02*
X0439823Y0115459D01*
X0439410Y0116457D02*
X0442000Y0116457D01*
X0442000Y0117456D02*
X0438996Y0117456D01*
X0438484Y0118454D02*
X0442000Y0118454D01*
X0442000Y0119453D02*
X0437485Y0119453D01*
X0436487Y0120451D02*
X0442000Y0120451D01*
X0442000Y0123447D02*
X0006000Y0123447D01*
X0006000Y0124445D02*
X0442000Y0124445D01*
X0442000Y0125444D02*
X0006000Y0125444D01*
X0006000Y0126442D02*
X0442000Y0126442D01*
X0442000Y0127441D02*
X0006000Y0127441D01*
X0006000Y0128439D02*
X0442000Y0128439D01*
X0442000Y0129438D02*
X0422802Y0129438D01*
X0422500Y0129340D02*
X0423140Y0129548D01*
X0423739Y0129853D01*
X0424283Y0130248D01*
X0424758Y0130723D01*
X0425153Y0131267D01*
X0425459Y0131867D01*
X0425666Y0132506D01*
X0425764Y0133120D01*
X0421886Y0133120D01*
X0421886Y0129243D01*
X0422500Y0129340D01*
X0421886Y0129438D02*
X0421114Y0129438D01*
X0421114Y0129243D02*
X0421114Y0133120D01*
X0421886Y0133120D01*
X0421886Y0133892D01*
X0425764Y0133892D01*
X0425666Y0134507D01*
X0425459Y0135146D01*
X0425153Y0135745D01*
X0424758Y0136289D01*
X0424283Y0136765D01*
X0423739Y0137160D01*
X0423140Y0137465D01*
X0422500Y0137673D01*
X0421886Y0137770D01*
X0421886Y0133892D01*
X0421114Y0133892D01*
X0421114Y0133120D01*
X0417236Y0133120D01*
X0417334Y0132506D01*
X0417541Y0131867D01*
X0417847Y0131267D01*
X0418242Y0130723D01*
X0418717Y0130248D01*
X0419261Y0129853D01*
X0419860Y0129548D01*
X0420500Y0129340D01*
X0421114Y0129243D01*
X0420198Y0129438D02*
X0413363Y0129438D01*
X0414033Y0129715D02*
X0415291Y0130973D01*
X0415972Y0132617D01*
X0415972Y0134396D01*
X0415291Y0136039D01*
X0414033Y0137297D01*
X0412389Y0137978D01*
X0410611Y0137978D01*
X0408967Y0137297D01*
X0407709Y0136039D01*
X0407028Y0134396D01*
X0407028Y0132617D01*
X0407709Y0130973D01*
X0408967Y0129715D01*
X0410611Y0129035D01*
X0412389Y0129035D01*
X0414033Y0129715D01*
X0414754Y0130436D02*
X0418529Y0130436D01*
X0417761Y0131435D02*
X0415482Y0131435D01*
X0415896Y0132433D02*
X0417357Y0132433D01*
X0417236Y0133892D02*
X0421114Y0133892D01*
X0421114Y0137770D01*
X0420500Y0137673D01*
X0419860Y0137465D01*
X0419261Y0137160D01*
X0418717Y0136765D01*
X0418242Y0136289D01*
X0417847Y0135745D01*
X0417541Y0135146D01*
X0417334Y0134507D01*
X0417236Y0133892D01*
X0417321Y0134430D02*
X0415957Y0134430D01*
X0415972Y0133432D02*
X0421114Y0133432D01*
X0421886Y0133432D02*
X0442000Y0133432D01*
X0442000Y0134430D02*
X0425679Y0134430D01*
X0425315Y0135429D02*
X0442000Y0135429D01*
X0442000Y0136427D02*
X0424620Y0136427D01*
X0423216Y0137426D02*
X0442000Y0137426D01*
X0442000Y0138424D02*
X0263700Y0138424D01*
X0263722Y0137426D02*
X0269784Y0137426D01*
X0269860Y0137465D02*
X0269261Y0137160D01*
X0268717Y0136765D01*
X0268242Y0136289D01*
X0267847Y0135745D01*
X0267541Y0135146D01*
X0267334Y0134507D01*
X0267236Y0133892D01*
X0271114Y0133892D01*
X0271114Y0133120D01*
X0271886Y0133120D01*
X0271886Y0129243D01*
X0272500Y0129340D01*
X0273140Y0129548D01*
X0273739Y0129853D01*
X0274283Y0130248D01*
X0274758Y0130723D01*
X0275153Y0131267D01*
X0275459Y0131867D01*
X0275666Y0132506D01*
X0275764Y0133120D01*
X0271886Y0133120D01*
X0271886Y0133892D01*
X0275764Y0133892D01*
X0275666Y0134507D01*
X0275459Y0135146D01*
X0275153Y0135745D01*
X0274758Y0136289D01*
X0274283Y0136765D01*
X0273739Y0137160D01*
X0273140Y0137465D01*
X0272500Y0137673D01*
X0271886Y0137770D01*
X0271886Y0133892D01*
X0271114Y0133892D01*
X0271114Y0137770D01*
X0270500Y0137673D01*
X0269860Y0137465D01*
X0271114Y0137426D02*
X0271886Y0137426D01*
X0271886Y0136427D02*
X0271114Y0136427D01*
X0271114Y0135429D02*
X0271886Y0135429D01*
X0271886Y0134430D02*
X0271114Y0134430D01*
X0271114Y0133432D02*
X0265972Y0133432D01*
X0265957Y0134430D02*
X0267321Y0134430D01*
X0267685Y0135429D02*
X0265544Y0135429D01*
X0264903Y0136427D02*
X0268380Y0136427D01*
X0267236Y0133120D02*
X0267334Y0132506D01*
X0267541Y0131867D01*
X0267847Y0131267D01*
X0268242Y0130723D01*
X0268717Y0130248D01*
X0269261Y0129853D01*
X0269860Y0129548D01*
X0270500Y0129340D01*
X0271114Y0129243D01*
X0271114Y0133120D01*
X0267236Y0133120D01*
X0267357Y0132433D02*
X0265896Y0132433D01*
X0265482Y0131435D02*
X0267761Y0131435D01*
X0268529Y0130436D02*
X0264754Y0130436D01*
X0263363Y0129438D02*
X0270198Y0129438D01*
X0271114Y0129438D02*
X0271886Y0129438D01*
X0272802Y0129438D02*
X0334637Y0129438D01*
X0333967Y0129715D02*
X0335611Y0129035D01*
X0337389Y0129035D01*
X0339033Y0129715D01*
X0340291Y0130973D01*
X0340972Y0132617D01*
X0340972Y0134396D01*
X0340291Y0136039D01*
X0339033Y0137297D01*
X0337389Y0137978D01*
X0335611Y0137978D01*
X0333967Y0137297D01*
X0332709Y0136039D01*
X0332028Y0134396D01*
X0332028Y0132617D01*
X0332709Y0130973D01*
X0333967Y0129715D01*
X0333246Y0130436D02*
X0274471Y0130436D01*
X0275239Y0131435D02*
X0332518Y0131435D01*
X0332104Y0132433D02*
X0275643Y0132433D01*
X0275679Y0134430D02*
X0332043Y0134430D01*
X0332028Y0133432D02*
X0271886Y0133432D01*
X0271886Y0132433D02*
X0271114Y0132433D01*
X0271114Y0131435D02*
X0271886Y0131435D01*
X0271886Y0130436D02*
X0271114Y0130436D01*
X0275315Y0135429D02*
X0332456Y0135429D01*
X0333097Y0136427D02*
X0274620Y0136427D01*
X0273216Y0137426D02*
X0334278Y0137426D01*
X0338722Y0137426D02*
X0344784Y0137426D01*
X0344860Y0137465D02*
X0344261Y0137160D01*
X0343717Y0136765D01*
X0343242Y0136289D01*
X0342847Y0135745D01*
X0342541Y0135146D01*
X0342334Y0134507D01*
X0342236Y0133892D01*
X0346114Y0133892D01*
X0346114Y0133120D01*
X0346886Y0133120D01*
X0346886Y0129243D01*
X0347500Y0129340D01*
X0348140Y0129548D01*
X0348739Y0129853D01*
X0349283Y0130248D01*
X0349758Y0130723D01*
X0350153Y0131267D01*
X0350459Y0131867D01*
X0350666Y0132506D01*
X0350764Y0133120D01*
X0346886Y0133120D01*
X0346886Y0133892D01*
X0350764Y0133892D01*
X0350666Y0134507D01*
X0350459Y0135146D01*
X0350153Y0135745D01*
X0349758Y0136289D01*
X0349283Y0136765D01*
X0348739Y0137160D01*
X0348140Y0137465D01*
X0347500Y0137673D01*
X0346886Y0137770D01*
X0346886Y0133892D01*
X0346114Y0133892D01*
X0346114Y0137770D01*
X0345500Y0137673D01*
X0344860Y0137465D01*
X0346114Y0137426D02*
X0346886Y0137426D01*
X0346886Y0136427D02*
X0346114Y0136427D01*
X0346114Y0135429D02*
X0346886Y0135429D01*
X0346886Y0134430D02*
X0346114Y0134430D01*
X0346114Y0133432D02*
X0340972Y0133432D01*
X0340957Y0134430D02*
X0342321Y0134430D01*
X0342685Y0135429D02*
X0340544Y0135429D01*
X0339903Y0136427D02*
X0343380Y0136427D01*
X0342236Y0133120D02*
X0342334Y0132506D01*
X0342541Y0131867D01*
X0342847Y0131267D01*
X0343242Y0130723D01*
X0343717Y0130248D01*
X0344261Y0129853D01*
X0344860Y0129548D01*
X0345500Y0129340D01*
X0346114Y0129243D01*
X0346114Y0133120D01*
X0342236Y0133120D01*
X0342357Y0132433D02*
X0340896Y0132433D01*
X0340482Y0131435D02*
X0342761Y0131435D01*
X0343529Y0130436D02*
X0339754Y0130436D01*
X0338363Y0129438D02*
X0345198Y0129438D01*
X0346114Y0129438D02*
X0346886Y0129438D01*
X0347802Y0129438D02*
X0409637Y0129438D01*
X0408246Y0130436D02*
X0349471Y0130436D01*
X0350239Y0131435D02*
X0407518Y0131435D01*
X0407104Y0132433D02*
X0350643Y0132433D01*
X0350679Y0134430D02*
X0407043Y0134430D01*
X0407028Y0133432D02*
X0346886Y0133432D01*
X0346886Y0132433D02*
X0346114Y0132433D01*
X0346114Y0131435D02*
X0346886Y0131435D01*
X0346886Y0130436D02*
X0346114Y0130436D01*
X0350315Y0135429D02*
X0407456Y0135429D01*
X0408097Y0136427D02*
X0349620Y0136427D01*
X0348216Y0137426D02*
X0409278Y0137426D01*
X0413722Y0137426D02*
X0419784Y0137426D01*
X0421114Y0137426D02*
X0421886Y0137426D01*
X0421886Y0136427D02*
X0421114Y0136427D01*
X0421114Y0135429D02*
X0421886Y0135429D01*
X0421886Y0134430D02*
X0421114Y0134430D01*
X0421114Y0132433D02*
X0421886Y0132433D01*
X0421886Y0131435D02*
X0421114Y0131435D01*
X0421114Y0130436D02*
X0421886Y0130436D01*
X0424471Y0130436D02*
X0442000Y0130436D01*
X0442000Y0131435D02*
X0425239Y0131435D01*
X0425643Y0132433D02*
X0442000Y0132433D01*
X0442000Y0139423D02*
X0263700Y0139423D01*
X0263700Y0140421D02*
X0442000Y0140421D01*
X0442000Y0141420D02*
X0263700Y0141420D01*
X0263700Y0142418D02*
X0442000Y0142418D01*
X0442000Y0143417D02*
X0263700Y0143417D01*
X0263700Y0144415D02*
X0442000Y0144415D01*
X0442000Y0145414D02*
X0263700Y0145414D01*
X0263700Y0146413D02*
X0442000Y0146413D01*
X0442000Y0147411D02*
X0263700Y0147411D01*
X0263700Y0148410D02*
X0442000Y0148410D01*
X0442000Y0149408D02*
X0263700Y0149408D01*
X0263700Y0150407D02*
X0442000Y0150407D01*
X0442000Y0151405D02*
X0263700Y0151405D01*
X0263700Y0152404D02*
X0442000Y0152404D01*
X0442000Y0153402D02*
X0263700Y0153402D01*
X0265798Y0154401D02*
X0269646Y0154401D01*
X0269773Y0154336D02*
X0270446Y0154117D01*
X0271146Y0154006D01*
X0271200Y0154006D01*
X0271200Y0158206D01*
X0271800Y0158206D01*
X0271800Y0154006D01*
X0271854Y0154006D01*
X0272554Y0154117D01*
X0273227Y0154336D01*
X0273859Y0154658D01*
X0274432Y0155074D01*
X0274932Y0155575D01*
X0275349Y0156148D01*
X0275670Y0156779D01*
X0275889Y0157453D01*
X0276000Y0158152D01*
X0276000Y0158206D01*
X0271800Y0158206D01*
X0271800Y0158806D01*
X0276000Y0158806D01*
X0276000Y0158860D01*
X0275889Y0159560D01*
X0275670Y0160234D01*
X0275349Y0160865D01*
X0274932Y0161438D01*
X0274432Y0161939D01*
X0273859Y0162355D01*
X0273227Y0162677D01*
X0272554Y0162895D01*
X0271854Y0163006D01*
X0271800Y0163006D01*
X0271800Y0158806D01*
X0271200Y0158806D01*
X0271200Y0158206D01*
X0267000Y0158206D01*
X0267000Y0158152D01*
X0267111Y0157453D01*
X0267330Y0156779D01*
X0267651Y0156148D01*
X0268068Y0155575D01*
X0268568Y0155074D01*
X0269141Y0154658D01*
X0269773Y0154336D01*
X0271200Y0154401D02*
X0271800Y0154401D01*
X0271800Y0155399D02*
X0271200Y0155399D01*
X0271200Y0156398D02*
X0271800Y0156398D01*
X0271800Y0157396D02*
X0271200Y0157396D01*
X0271200Y0158395D02*
X0266200Y0158395D01*
X0267000Y0158806D02*
X0271200Y0158806D01*
X0271200Y0163006D01*
X0271146Y0163006D01*
X0270446Y0162895D01*
X0269773Y0162677D01*
X0269141Y0162355D01*
X0268568Y0161939D01*
X0268068Y0161438D01*
X0267651Y0160865D01*
X0267330Y0160234D01*
X0267111Y0159560D01*
X0267000Y0158860D01*
X0267000Y0158806D01*
X0267084Y0159393D02*
X0266200Y0159393D01*
X0266200Y0160392D02*
X0267410Y0160392D01*
X0268033Y0161390D02*
X0266200Y0161390D01*
X0266022Y0162389D02*
X0269208Y0162389D01*
X0271200Y0162389D02*
X0271800Y0162389D01*
X0271800Y0161390D02*
X0271200Y0161390D01*
X0271200Y0160392D02*
X0271800Y0160392D01*
X0271800Y0159393D02*
X0271200Y0159393D01*
X0271800Y0158395D02*
X0281200Y0158395D01*
X0281200Y0158206D02*
X0277000Y0158206D01*
X0277000Y0158152D01*
X0277111Y0157453D01*
X0277330Y0156779D01*
X0277651Y0156148D01*
X0278068Y0155575D01*
X0278568Y0155074D01*
X0279141Y0154658D01*
X0279773Y0154336D01*
X0280446Y0154117D01*
X0281146Y0154006D01*
X0281200Y0154006D01*
X0281200Y0158206D01*
X0281800Y0158206D01*
X0281800Y0154006D01*
X0281854Y0154006D01*
X0282554Y0154117D01*
X0283227Y0154336D01*
X0283859Y0154658D01*
X0284432Y0155074D01*
X0284932Y0155575D01*
X0285349Y0156148D01*
X0285670Y0156779D01*
X0285889Y0157453D01*
X0286000Y0158152D01*
X0286000Y0158206D01*
X0281800Y0158206D01*
X0281800Y0158806D01*
X0286000Y0158806D01*
X0286000Y0158860D01*
X0285889Y0159560D01*
X0285670Y0160234D01*
X0285349Y0160865D01*
X0284932Y0161438D01*
X0284432Y0161939D01*
X0283859Y0162355D01*
X0283227Y0162677D01*
X0282554Y0162895D01*
X0281854Y0163006D01*
X0281800Y0163006D01*
X0281800Y0158806D01*
X0281200Y0158806D01*
X0281200Y0158206D01*
X0281200Y0158806D02*
X0277000Y0158806D01*
X0277000Y0158860D01*
X0277111Y0159560D01*
X0277330Y0160234D01*
X0277651Y0160865D01*
X0278068Y0161438D01*
X0278568Y0161939D01*
X0279141Y0162355D01*
X0279773Y0162677D01*
X0280446Y0162895D01*
X0281146Y0163006D01*
X0281200Y0163006D01*
X0281200Y0158806D01*
X0281200Y0159393D02*
X0281800Y0159393D01*
X0281800Y0158395D02*
X0286800Y0158395D01*
X0286800Y0157571D02*
X0287516Y0155844D01*
X0288838Y0154522D01*
X0290565Y0153806D01*
X0292435Y0153806D01*
X0294162Y0154522D01*
X0295484Y0155844D01*
X0296200Y0157571D01*
X0296200Y0159441D01*
X0295484Y0161169D01*
X0294162Y0162491D01*
X0292435Y0163206D01*
X0290565Y0163206D01*
X0288838Y0162491D01*
X0287516Y0161169D01*
X0286800Y0159441D01*
X0286800Y0157571D01*
X0286873Y0157396D02*
X0285871Y0157396D01*
X0285476Y0156398D02*
X0287286Y0156398D01*
X0287960Y0155399D02*
X0284757Y0155399D01*
X0283354Y0154401D02*
X0289130Y0154401D01*
X0293870Y0154401D02*
X0442000Y0154401D01*
X0442000Y0155399D02*
X0295040Y0155399D01*
X0295714Y0156398D02*
X0442000Y0156398D01*
X0442000Y0157396D02*
X0441207Y0157396D01*
X0431793Y0157396D02*
X0296127Y0157396D01*
X0296200Y0158395D02*
X0430064Y0158395D01*
X0428678Y0159393D02*
X0296200Y0159393D01*
X0295806Y0160392D02*
X0427679Y0160392D01*
X0426781Y0161390D02*
X0295263Y0161390D01*
X0294264Y0162389D02*
X0426204Y0162389D01*
X0425628Y0163387D02*
X0179492Y0163387D01*
X0178494Y0162389D02*
X0181978Y0162389D01*
X0181800Y0161390D02*
X0177495Y0161390D01*
X0176497Y0160392D02*
X0181800Y0160392D01*
X0181800Y0159393D02*
X0175498Y0159393D01*
X0174500Y0158395D02*
X0181800Y0158395D01*
X0181800Y0157396D02*
X0173501Y0157396D01*
X0172503Y0156398D02*
X0181800Y0156398D01*
X0181800Y0155399D02*
X0171504Y0155399D01*
X0170506Y0154401D02*
X0182202Y0154401D01*
X0180491Y0164386D02*
X0425207Y0164386D01*
X0424939Y0165384D02*
X0181489Y0165384D01*
X0182488Y0166383D02*
X0424672Y0166383D01*
X0424525Y0167381D02*
X0183486Y0167381D01*
X0184485Y0168380D02*
X0424525Y0168380D01*
X0424525Y0169378D02*
X0185483Y0169378D01*
X0186482Y0170377D02*
X0424604Y0170377D01*
X0424871Y0171375D02*
X0187480Y0171375D01*
X0188479Y0172374D02*
X0425139Y0172374D01*
X0425482Y0173372D02*
X0188700Y0173372D01*
X0188700Y0174371D02*
X0426058Y0174371D01*
X0426635Y0175369D02*
X0188700Y0175369D01*
X0188700Y0176368D02*
X0427426Y0176368D01*
X0428425Y0177366D02*
X0188700Y0177366D01*
X0188700Y0178365D02*
X0429626Y0178365D01*
X0431355Y0179363D02*
X0366178Y0179363D01*
X0366184Y0179365D02*
X0366811Y0179684D01*
X0367380Y0180098D01*
X0367877Y0180595D01*
X0368290Y0181164D01*
X0368610Y0181791D01*
X0368827Y0182460D01*
X0368916Y0183022D01*
X0361984Y0183022D01*
X0361984Y0179038D01*
X0364820Y0179038D01*
X0365515Y0179148D01*
X0366184Y0179365D01*
X0367644Y0180362D02*
X0434478Y0180362D01*
X0438522Y0180362D02*
X0442000Y0180362D01*
X0442000Y0181360D02*
X0368390Y0181360D01*
X0368794Y0182359D02*
X0442000Y0182359D01*
X0442000Y0183357D02*
X0361984Y0183357D01*
X0361984Y0183022D02*
X0361984Y0183991D01*
X0361016Y0183991D01*
X0361016Y0187975D01*
X0358180Y0187975D01*
X0357485Y0187865D01*
X0356816Y0187647D01*
X0356189Y0187328D01*
X0355620Y0186915D01*
X0355123Y0186417D01*
X0354710Y0185848D01*
X0354390Y0185222D01*
X0354173Y0184553D01*
X0354084Y0183991D01*
X0361016Y0183991D01*
X0361016Y0183022D01*
X0361984Y0183022D01*
X0361984Y0182359D02*
X0361016Y0182359D01*
X0361016Y0183022D02*
X0361016Y0179038D01*
X0358180Y0179038D01*
X0357485Y0179148D01*
X0356816Y0179365D01*
X0356189Y0179684D01*
X0355620Y0180098D01*
X0355123Y0180595D01*
X0354710Y0181164D01*
X0354390Y0181791D01*
X0354173Y0182460D01*
X0354084Y0183022D01*
X0361016Y0183022D01*
X0361016Y0183357D02*
X0188700Y0183357D01*
X0188700Y0182359D02*
X0354206Y0182359D01*
X0354610Y0181360D02*
X0188700Y0181360D01*
X0188700Y0180362D02*
X0355356Y0180362D01*
X0356822Y0179363D02*
X0188700Y0179363D01*
X0188762Y0184356D02*
X0194238Y0184356D01*
X0193838Y0184522D02*
X0195565Y0183806D01*
X0197435Y0183806D01*
X0199162Y0184522D01*
X0200484Y0185844D01*
X0201200Y0187571D01*
X0201200Y0189441D01*
X0200484Y0191169D01*
X0199162Y0192491D01*
X0197435Y0193206D01*
X0195565Y0193206D01*
X0193838Y0192491D01*
X0192516Y0191169D01*
X0191800Y0189441D01*
X0191800Y0187571D01*
X0192516Y0185844D01*
X0193838Y0184522D01*
X0193005Y0185354D02*
X0189995Y0185354D01*
X0190695Y0186353D02*
X0192305Y0186353D01*
X0191891Y0187351D02*
X0191109Y0187351D01*
X0191200Y0188350D02*
X0191800Y0188350D01*
X0191800Y0189348D02*
X0191200Y0189348D01*
X0190825Y0190347D02*
X0192175Y0190347D01*
X0192692Y0191346D02*
X0190308Y0191346D01*
X0189309Y0192344D02*
X0193691Y0192344D01*
X0199309Y0192344D02*
X0203691Y0192344D01*
X0203838Y0192491D02*
X0202516Y0191169D01*
X0201800Y0189441D01*
X0201800Y0187571D01*
X0202516Y0185844D01*
X0203838Y0184522D01*
X0205565Y0183806D01*
X0207435Y0183806D01*
X0209162Y0184522D01*
X0210484Y0185844D01*
X0211200Y0187571D01*
X0211200Y0189441D01*
X0210484Y0191169D01*
X0209162Y0192491D01*
X0207435Y0193206D01*
X0205565Y0193206D01*
X0203838Y0192491D01*
X0202692Y0191346D02*
X0200308Y0191346D01*
X0200825Y0190347D02*
X0202175Y0190347D01*
X0201800Y0189348D02*
X0201200Y0189348D01*
X0201200Y0188350D02*
X0201800Y0188350D01*
X0201891Y0187351D02*
X0201109Y0187351D01*
X0200695Y0186353D02*
X0202305Y0186353D01*
X0203005Y0185354D02*
X0199995Y0185354D01*
X0198762Y0184356D02*
X0204238Y0184356D01*
X0208762Y0184356D02*
X0214238Y0184356D01*
X0213005Y0185354D02*
X0209995Y0185354D01*
X0210695Y0186353D02*
X0212305Y0186353D01*
X0211891Y0187351D02*
X0211109Y0187351D01*
X0211200Y0188350D02*
X0211800Y0188350D01*
X0211800Y0189348D02*
X0211200Y0189348D01*
X0210825Y0190347D02*
X0212175Y0190347D01*
X0212692Y0191346D02*
X0210308Y0191346D01*
X0209309Y0192344D02*
X0213691Y0192344D01*
X0214300Y0193343D02*
X0184448Y0193343D01*
X0183691Y0192344D02*
X0183449Y0192344D01*
X0182692Y0191346D02*
X0182450Y0191346D01*
X0179223Y0194341D02*
X0164606Y0194341D01*
X0164689Y0194141D02*
X0164203Y0195313D01*
X0163700Y0195816D01*
X0163700Y0201196D01*
X0164203Y0201700D01*
X0164689Y0202872D01*
X0164689Y0204141D01*
X0164203Y0205313D01*
X0163306Y0206210D01*
X0162134Y0206695D01*
X0160866Y0206695D01*
X0159694Y0206210D01*
X0158797Y0205313D01*
X0158311Y0204141D01*
X0158311Y0202872D01*
X0158797Y0201700D01*
X0159300Y0201196D01*
X0159300Y0195816D01*
X0158797Y0195313D01*
X0158311Y0194141D01*
X0158311Y0192872D01*
X0158797Y0191700D01*
X0159694Y0190803D01*
X0160866Y0190317D01*
X0162134Y0190317D01*
X0163306Y0190803D01*
X0164203Y0191700D01*
X0164689Y0192872D01*
X0164689Y0194141D01*
X0164689Y0193343D02*
X0178225Y0193343D01*
X0177226Y0192344D02*
X0164470Y0192344D01*
X0163849Y0191346D02*
X0176228Y0191346D01*
X0175229Y0190347D02*
X0162206Y0190347D01*
X0160794Y0190347D02*
X0119169Y0190347D01*
X0119603Y0189348D02*
X0174231Y0189348D01*
X0173232Y0188350D02*
X0119689Y0188350D01*
X0119473Y0187351D02*
X0172234Y0187351D01*
X0171235Y0186353D02*
X0118857Y0186353D01*
X0116500Y0188506D02*
X0116500Y0213506D01*
X0119458Y0212314D02*
X0144457Y0212314D01*
X0144064Y0212152D02*
X0142855Y0210942D01*
X0142200Y0209362D01*
X0142200Y0207651D01*
X0142855Y0206071D01*
X0144064Y0204861D01*
X0145645Y0204206D01*
X0147355Y0204206D01*
X0148936Y0204861D01*
X0150145Y0206071D01*
X0150800Y0207651D01*
X0150800Y0209362D01*
X0150145Y0210942D01*
X0148936Y0212152D01*
X0147355Y0212806D01*
X0145645Y0212806D01*
X0144064Y0212152D01*
X0143228Y0211316D02*
X0118819Y0211316D01*
X0118700Y0210317D02*
X0142596Y0210317D01*
X0142200Y0209319D02*
X0118700Y0209319D01*
X0118700Y0208320D02*
X0142200Y0208320D01*
X0142336Y0207322D02*
X0118700Y0207322D01*
X0118700Y0206323D02*
X0142750Y0206323D01*
X0143600Y0205325D02*
X0118700Y0205325D01*
X0118700Y0204326D02*
X0145355Y0204326D01*
X0147645Y0204326D02*
X0158388Y0204326D01*
X0158311Y0203328D02*
X0118700Y0203328D01*
X0118700Y0202329D02*
X0158536Y0202329D01*
X0159166Y0201331D02*
X0118700Y0201331D01*
X0118700Y0200332D02*
X0159300Y0200332D01*
X0159300Y0199334D02*
X0118700Y0199334D01*
X0118700Y0198335D02*
X0159300Y0198335D01*
X0159300Y0197337D02*
X0118700Y0197337D01*
X0118700Y0196338D02*
X0159300Y0196338D01*
X0158823Y0195340D02*
X0118700Y0195340D01*
X0118700Y0194341D02*
X0158394Y0194341D01*
X0158311Y0193343D02*
X0118700Y0193343D01*
X0118700Y0192344D02*
X0158530Y0192344D01*
X0159151Y0191346D02*
X0118700Y0191346D01*
X0114300Y0191346D02*
X0042979Y0191346D01*
X0044169Y0190347D02*
X0113831Y0190347D01*
X0113397Y0189348D02*
X0044603Y0189348D01*
X0044768Y0188350D02*
X0113311Y0188350D01*
X0113527Y0187351D02*
X0045766Y0187351D01*
X0046765Y0186353D02*
X0114143Y0186353D01*
X0114300Y0192344D02*
X0013700Y0192344D01*
X0013700Y0191346D02*
X0040021Y0191346D01*
X0038831Y0190347D02*
X0013700Y0190347D01*
X0013769Y0189348D02*
X0038397Y0189348D01*
X0038311Y0188350D02*
X0014768Y0188350D01*
X0015535Y0181360D02*
X0006000Y0181360D01*
X0006000Y0180362D02*
X0009478Y0180362D01*
X0006355Y0179363D02*
X0006000Y0179363D01*
X0013700Y0193343D02*
X0114300Y0193343D01*
X0114300Y0194341D02*
X0013700Y0194341D01*
X0013700Y0195340D02*
X0080812Y0195340D01*
X0080866Y0195317D02*
X0082134Y0195317D01*
X0083306Y0195803D01*
X0084203Y0196700D01*
X0084689Y0197872D01*
X0084689Y0198584D01*
X0091422Y0205317D01*
X0092134Y0205317D01*
X0093306Y0205803D01*
X0094203Y0206700D01*
X0094689Y0207872D01*
X0094689Y0209141D01*
X0094203Y0210313D01*
X0093306Y0211210D01*
X0092134Y0211695D01*
X0090866Y0211695D01*
X0089694Y0211210D01*
X0088797Y0210313D01*
X0088311Y0209141D01*
X0088311Y0208429D01*
X0081578Y0201695D01*
X0080866Y0201695D01*
X0079694Y0201210D01*
X0078797Y0200313D01*
X0078311Y0199141D01*
X0078311Y0197872D01*
X0078797Y0196700D01*
X0079694Y0195803D01*
X0080866Y0195317D01*
X0082188Y0195340D02*
X0110812Y0195340D01*
X0112188Y0195340D02*
X0114300Y0195340D01*
X0114300Y0196338D02*
X0113842Y0196338D01*
X0109158Y0196338D02*
X0083842Y0196338D01*
X0084467Y0197337D02*
X0108533Y0197337D01*
X0108311Y0198335D02*
X0084689Y0198335D01*
X0085439Y0199334D02*
X0108391Y0199334D01*
X0108816Y0200332D02*
X0086437Y0200332D01*
X0087436Y0201331D02*
X0109050Y0201331D01*
X0109050Y0202329D02*
X0088434Y0202329D01*
X0089433Y0203328D02*
X0109050Y0203328D01*
X0109050Y0204326D02*
X0090431Y0204326D01*
X0092152Y0205325D02*
X0109050Y0205325D01*
X0109050Y0206323D02*
X0093827Y0206323D01*
X0094461Y0207322D02*
X0109050Y0207322D01*
X0109050Y0208320D02*
X0094689Y0208320D01*
X0094615Y0209319D02*
X0109050Y0209319D01*
X0109050Y0210317D02*
X0094199Y0210317D01*
X0093051Y0211316D02*
X0109050Y0211316D01*
X0109050Y0212314D02*
X0034028Y0212314D01*
X0034137Y0212578D02*
X0034137Y0214435D01*
X0033426Y0216151D01*
X0032113Y0217464D01*
X0030397Y0218175D01*
X0022603Y0218175D01*
X0020887Y0217464D01*
X0019574Y0216151D01*
X0018863Y0214435D01*
X0018863Y0212578D01*
X0019574Y0210862D01*
X0020887Y0209549D01*
X0022603Y0208838D01*
X0030397Y0208838D01*
X0032113Y0209549D01*
X0033426Y0210862D01*
X0034137Y0212578D01*
X0034137Y0213313D02*
X0109050Y0213313D01*
X0109050Y0214311D02*
X0034137Y0214311D01*
X0033775Y0215310D02*
X0109050Y0215310D01*
X0109050Y0216308D02*
X0033269Y0216308D01*
X0032270Y0217307D02*
X0109050Y0217307D01*
X0108236Y0218305D02*
X0013700Y0218305D01*
X0013700Y0217307D02*
X0020730Y0217307D01*
X0019731Y0216308D02*
X0013700Y0216308D01*
X0013700Y0215310D02*
X0019225Y0215310D01*
X0018863Y0214311D02*
X0013700Y0214311D01*
X0013700Y0213313D02*
X0018863Y0213313D01*
X0018972Y0212314D02*
X0013700Y0212314D01*
X0013700Y0211316D02*
X0019386Y0211316D01*
X0020118Y0210317D02*
X0013700Y0210317D01*
X0013700Y0209319D02*
X0021442Y0209319D01*
X0022603Y0208175D02*
X0020887Y0207464D01*
X0019574Y0206151D01*
X0018863Y0204435D01*
X0018863Y0202578D01*
X0019574Y0200862D01*
X0020887Y0199549D01*
X0022603Y0198838D01*
X0030397Y0198838D01*
X0032113Y0199549D01*
X0033426Y0200862D01*
X0034137Y0202578D01*
X0034137Y0204435D01*
X0033426Y0206151D01*
X0032113Y0207464D01*
X0030397Y0208175D01*
X0022603Y0208175D01*
X0020745Y0207322D02*
X0013700Y0207322D01*
X0013700Y0208320D02*
X0088203Y0208320D01*
X0088385Y0209319D02*
X0031558Y0209319D01*
X0032882Y0210317D02*
X0088801Y0210317D01*
X0089949Y0211316D02*
X0033614Y0211316D01*
X0032255Y0207322D02*
X0087204Y0207322D01*
X0086206Y0206323D02*
X0033254Y0206323D01*
X0033768Y0205325D02*
X0085207Y0205325D01*
X0084209Y0204326D02*
X0034137Y0204326D01*
X0034137Y0203328D02*
X0083210Y0203328D01*
X0082212Y0202329D02*
X0034034Y0202329D01*
X0033620Y0201331D02*
X0079985Y0201331D01*
X0078816Y0200332D02*
X0032897Y0200332D01*
X0031594Y0199334D02*
X0078391Y0199334D01*
X0078311Y0198335D02*
X0013700Y0198335D01*
X0013700Y0197337D02*
X0078533Y0197337D01*
X0079158Y0196338D02*
X0013700Y0196338D01*
X0013700Y0199334D02*
X0021406Y0199334D01*
X0020103Y0200332D02*
X0013700Y0200332D01*
X0013700Y0201331D02*
X0019380Y0201331D01*
X0018966Y0202329D02*
X0013700Y0202329D01*
X0013700Y0203328D02*
X0018863Y0203328D01*
X0018863Y0204326D02*
X0013700Y0204326D01*
X0013700Y0205325D02*
X0019232Y0205325D01*
X0019746Y0206323D02*
X0013700Y0206323D01*
X0013700Y0219304D02*
X0021478Y0219304D01*
X0020887Y0219549D02*
X0022603Y0218838D01*
X0030397Y0218838D01*
X0032113Y0219549D01*
X0033426Y0220862D01*
X0034137Y0222578D01*
X0034137Y0224435D01*
X0033426Y0226151D01*
X0032113Y0227464D01*
X0030397Y0228175D01*
X0022603Y0228175D01*
X0020887Y0227464D01*
X0019574Y0226151D01*
X0018863Y0224435D01*
X0018863Y0222578D01*
X0019574Y0220862D01*
X0020887Y0219549D01*
X0020133Y0220302D02*
X0013700Y0220302D01*
X0013700Y0221301D02*
X0019392Y0221301D01*
X0018978Y0222299D02*
X0013700Y0222299D01*
X0013700Y0223298D02*
X0018863Y0223298D01*
X0018863Y0224296D02*
X0013700Y0224296D01*
X0013700Y0225295D02*
X0019219Y0225295D01*
X0019716Y0226293D02*
X0013700Y0226293D01*
X0013700Y0227292D02*
X0020715Y0227292D01*
X0021514Y0229289D02*
X0013700Y0229289D01*
X0013700Y0230287D02*
X0020148Y0230287D01*
X0019574Y0230862D02*
X0020887Y0229549D01*
X0022603Y0228838D01*
X0030397Y0228838D01*
X0032113Y0229549D01*
X0033426Y0230862D01*
X0034137Y0232578D01*
X0034137Y0234435D01*
X0033426Y0236151D01*
X0032113Y0237464D01*
X0030397Y0238175D01*
X0022603Y0238175D01*
X0020887Y0237464D01*
X0019574Y0236151D01*
X0018863Y0234435D01*
X0018863Y0232578D01*
X0019574Y0230862D01*
X0019398Y0231286D02*
X0013700Y0231286D01*
X0013700Y0232284D02*
X0018984Y0232284D01*
X0018863Y0233283D02*
X0013700Y0233283D01*
X0013700Y0234282D02*
X0018863Y0234282D01*
X0019213Y0235280D02*
X0013700Y0235280D01*
X0013700Y0236279D02*
X0019701Y0236279D01*
X0020700Y0237277D02*
X0013700Y0237277D01*
X0013700Y0238276D02*
X0099050Y0238276D01*
X0099050Y0239274D02*
X0031450Y0239274D01*
X0032113Y0239549D02*
X0033426Y0240862D01*
X0034137Y0242578D01*
X0034137Y0244435D01*
X0033426Y0246151D01*
X0032113Y0247464D01*
X0030397Y0248175D01*
X0022603Y0248175D01*
X0020887Y0247464D01*
X0019574Y0246151D01*
X0018863Y0244435D01*
X0018863Y0242578D01*
X0019574Y0240862D01*
X0020887Y0239549D01*
X0022603Y0238838D01*
X0030397Y0238838D01*
X0032113Y0239549D01*
X0032837Y0240273D02*
X0099050Y0240273D01*
X0099050Y0237277D02*
X0032300Y0237277D01*
X0033299Y0236279D02*
X0099050Y0236279D01*
X0099050Y0235280D02*
X0033787Y0235280D01*
X0034137Y0234282D02*
X0099050Y0234282D01*
X0099050Y0233283D02*
X0034137Y0233283D01*
X0034016Y0232284D02*
X0099050Y0232284D01*
X0099050Y0231286D02*
X0033602Y0231286D01*
X0032852Y0230287D02*
X0099050Y0230287D01*
X0099050Y0229289D02*
X0031486Y0229289D01*
X0032285Y0227292D02*
X0099351Y0227292D01*
X0099050Y0228290D02*
X0013700Y0228290D01*
X0013700Y0239274D02*
X0021550Y0239274D01*
X0020163Y0240273D02*
X0013700Y0240273D01*
X0013700Y0241271D02*
X0019404Y0241271D01*
X0018991Y0242270D02*
X0013700Y0242270D01*
X0013700Y0243268D02*
X0018863Y0243268D01*
X0018863Y0244267D02*
X0013700Y0244267D01*
X0013700Y0245265D02*
X0019207Y0245265D01*
X0019687Y0246264D02*
X0013700Y0246264D01*
X0013700Y0247262D02*
X0020685Y0247262D01*
X0021586Y0249259D02*
X0013700Y0249259D01*
X0013700Y0248261D02*
X0083281Y0248261D01*
X0082282Y0249259D02*
X0031414Y0249259D01*
X0032113Y0249549D02*
X0033426Y0250862D01*
X0034137Y0252578D01*
X0034137Y0254435D01*
X0033426Y0256151D01*
X0032113Y0257464D01*
X0030397Y0258175D01*
X0022603Y0258175D01*
X0020887Y0257464D01*
X0019574Y0256151D01*
X0018863Y0254435D01*
X0018863Y0252578D01*
X0019574Y0250862D01*
X0020887Y0249549D01*
X0022603Y0248838D01*
X0030397Y0248838D01*
X0032113Y0249549D01*
X0032822Y0250258D02*
X0081284Y0250258D01*
X0080285Y0251256D02*
X0033590Y0251256D01*
X0034003Y0252255D02*
X0079287Y0252255D01*
X0078288Y0253253D02*
X0034137Y0253253D01*
X0034137Y0254252D02*
X0077290Y0254252D01*
X0076291Y0255250D02*
X0033799Y0255250D01*
X0033328Y0256249D02*
X0075293Y0256249D01*
X0074294Y0257247D02*
X0032330Y0257247D01*
X0031378Y0259244D02*
X0072297Y0259244D01*
X0073296Y0258246D02*
X0013700Y0258246D01*
X0013700Y0259244D02*
X0021621Y0259244D01*
X0020887Y0259549D02*
X0022603Y0258838D01*
X0030397Y0258838D01*
X0032113Y0259549D01*
X0033426Y0260862D01*
X0034137Y0262578D01*
X0034137Y0264435D01*
X0033426Y0266151D01*
X0032113Y0267464D01*
X0030397Y0268175D01*
X0022603Y0268175D01*
X0020887Y0267464D01*
X0019574Y0266151D01*
X0018863Y0264435D01*
X0018863Y0262578D01*
X0019574Y0260862D01*
X0020887Y0259549D01*
X0020193Y0260243D02*
X0013700Y0260243D01*
X0013700Y0261241D02*
X0019417Y0261241D01*
X0019003Y0262240D02*
X0013700Y0262240D01*
X0013700Y0263238D02*
X0018863Y0263238D01*
X0018863Y0264237D02*
X0013700Y0264237D01*
X0013700Y0265235D02*
X0019195Y0265235D01*
X0019657Y0266234D02*
X0013700Y0266234D01*
X0013700Y0267232D02*
X0020655Y0267232D01*
X0021657Y0269229D02*
X0013700Y0269229D01*
X0013700Y0268231D02*
X0063311Y0268231D01*
X0064309Y0267232D02*
X0032345Y0267232D01*
X0033343Y0266234D02*
X0065308Y0266234D01*
X0066306Y0265235D02*
X0033805Y0265235D01*
X0034137Y0264237D02*
X0067305Y0264237D01*
X0068303Y0263238D02*
X0034137Y0263238D01*
X0033997Y0262240D02*
X0069302Y0262240D01*
X0070300Y0261241D02*
X0033583Y0261241D01*
X0032807Y0260243D02*
X0071299Y0260243D01*
X0075233Y0263238D02*
X0097200Y0263238D01*
X0097200Y0262651D02*
X0097855Y0261071D01*
X0099064Y0259861D01*
X0100645Y0259206D01*
X0102355Y0259206D01*
X0103936Y0259861D01*
X0105145Y0261071D01*
X0105800Y0262651D01*
X0105800Y0264362D01*
X0105145Y0265942D01*
X0103936Y0267152D01*
X0102355Y0267806D01*
X0100645Y0267806D01*
X0099064Y0267152D01*
X0097855Y0265942D01*
X0097200Y0264362D01*
X0097200Y0262651D01*
X0097370Y0262240D02*
X0076231Y0262240D01*
X0077230Y0261241D02*
X0097784Y0261241D01*
X0098682Y0260243D02*
X0078228Y0260243D01*
X0079227Y0259244D02*
X0100553Y0259244D01*
X0102447Y0259244D02*
X0229050Y0259244D01*
X0229050Y0258246D02*
X0080225Y0258246D01*
X0081224Y0257247D02*
X0229050Y0257247D01*
X0229050Y0256249D02*
X0082222Y0256249D01*
X0083221Y0255250D02*
X0229050Y0255250D01*
X0229050Y0254252D02*
X0084219Y0254252D01*
X0085218Y0253253D02*
X0229050Y0253253D01*
X0229050Y0252255D02*
X0086216Y0252255D01*
X0087215Y0251256D02*
X0229050Y0251256D01*
X0229050Y0250258D02*
X0088213Y0250258D01*
X0089212Y0249259D02*
X0229050Y0249259D01*
X0229050Y0248261D02*
X0090210Y0248261D01*
X0091209Y0247262D02*
X0229050Y0247262D01*
X0229050Y0246264D02*
X0103176Y0246264D01*
X0104223Y0245265D02*
X0229050Y0245265D01*
X0229050Y0244267D02*
X0104637Y0244267D01*
X0104689Y0243268D02*
X0229050Y0243268D01*
X0229050Y0242270D02*
X0178651Y0242270D01*
X0178936Y0242152D02*
X0177355Y0242806D01*
X0175645Y0242806D01*
X0174064Y0242152D01*
X0172855Y0240942D01*
X0172200Y0239362D01*
X0172200Y0237651D01*
X0172855Y0236071D01*
X0174064Y0234861D01*
X0175645Y0234206D01*
X0177355Y0234206D01*
X0178936Y0234861D01*
X0180145Y0236071D01*
X0180800Y0237651D01*
X0180800Y0239362D01*
X0180145Y0240942D01*
X0178936Y0242152D01*
X0179816Y0241271D02*
X0229050Y0241271D01*
X0229050Y0240273D02*
X0180423Y0240273D01*
X0180800Y0239274D02*
X0229050Y0239274D01*
X0229050Y0238276D02*
X0180800Y0238276D01*
X0180645Y0237277D02*
X0229050Y0237277D01*
X0229050Y0236279D02*
X0180231Y0236279D01*
X0179355Y0235280D02*
X0229483Y0235280D01*
X0230482Y0234282D02*
X0177537Y0234282D01*
X0177355Y0232806D02*
X0175645Y0232806D01*
X0174064Y0232152D01*
X0172855Y0230942D01*
X0172200Y0229362D01*
X0172200Y0227651D01*
X0172855Y0226071D01*
X0174064Y0224861D01*
X0175645Y0224206D01*
X0177355Y0224206D01*
X0178936Y0224861D01*
X0180145Y0226071D01*
X0180800Y0227651D01*
X0180800Y0229362D01*
X0180145Y0230942D01*
X0178936Y0232152D01*
X0177355Y0232806D01*
X0178615Y0232284D02*
X0232479Y0232284D01*
X0233477Y0231286D02*
X0179801Y0231286D01*
X0180416Y0230287D02*
X0234476Y0230287D01*
X0235474Y0229289D02*
X0180800Y0229289D01*
X0180800Y0228290D02*
X0236473Y0228290D01*
X0237471Y0227292D02*
X0180651Y0227292D01*
X0180238Y0226293D02*
X0238470Y0226293D01*
X0239468Y0225295D02*
X0179370Y0225295D01*
X0177573Y0224296D02*
X0240467Y0224296D01*
X0241465Y0223298D02*
X0110173Y0223298D01*
X0109175Y0224296D02*
X0145427Y0224296D01*
X0145645Y0224206D02*
X0147355Y0224206D01*
X0148936Y0224861D01*
X0150145Y0226071D01*
X0150800Y0227651D01*
X0150800Y0229362D01*
X0150145Y0230942D01*
X0148936Y0232152D01*
X0147355Y0232806D01*
X0145645Y0232806D01*
X0144064Y0232152D01*
X0142855Y0230942D01*
X0142200Y0229362D01*
X0142200Y0227651D01*
X0142855Y0226071D01*
X0144064Y0224861D01*
X0145645Y0224206D01*
X0145645Y0222806D02*
X0144064Y0222152D01*
X0142855Y0220942D01*
X0142200Y0219362D01*
X0142200Y0217651D01*
X0142855Y0216071D01*
X0144064Y0214861D01*
X0145645Y0214206D01*
X0147355Y0214206D01*
X0148936Y0214861D01*
X0150145Y0216071D01*
X0150800Y0217651D01*
X0150800Y0219362D01*
X0150145Y0220942D01*
X0148936Y0222152D01*
X0147355Y0222806D01*
X0145645Y0222806D01*
X0144421Y0222299D02*
X0111172Y0222299D01*
X0112170Y0221301D02*
X0143213Y0221301D01*
X0142590Y0220302D02*
X0113169Y0220302D01*
X0113822Y0219304D02*
X0142200Y0219304D01*
X0142200Y0218305D02*
X0113950Y0218305D01*
X0113950Y0217307D02*
X0142343Y0217307D01*
X0142756Y0216308D02*
X0118069Y0216308D01*
X0119205Y0215310D02*
X0143615Y0215310D01*
X0145391Y0214311D02*
X0119618Y0214311D01*
X0119689Y0213313D02*
X0247497Y0213313D01*
X0247497Y0214311D02*
X0177609Y0214311D01*
X0177355Y0214206D02*
X0178936Y0214861D01*
X0180145Y0216071D01*
X0180800Y0217651D01*
X0180800Y0219362D01*
X0180145Y0220942D01*
X0178936Y0222152D01*
X0177355Y0222806D01*
X0175645Y0222806D01*
X0174064Y0222152D01*
X0172855Y0220942D01*
X0172200Y0219362D01*
X0172200Y0217651D01*
X0172855Y0216071D01*
X0174064Y0214861D01*
X0175645Y0214206D01*
X0177355Y0214206D01*
X0176823Y0212606D02*
X0176800Y0212606D01*
X0176800Y0208806D01*
X0180600Y0208806D01*
X0180600Y0208829D01*
X0180499Y0209466D01*
X0180300Y0210080D01*
X0180007Y0210655D01*
X0179627Y0211177D01*
X0179171Y0211634D01*
X0178649Y0212013D01*
X0178074Y0212306D01*
X0177460Y0212505D01*
X0176823Y0212606D01*
X0176800Y0212314D02*
X0176200Y0212314D01*
X0176200Y0212606D02*
X0176177Y0212606D01*
X0175540Y0212505D01*
X0174926Y0212306D01*
X0174351Y0212013D01*
X0173829Y0211634D01*
X0173373Y0211177D01*
X0172993Y0210655D01*
X0172700Y0210080D01*
X0172501Y0209466D01*
X0172400Y0208829D01*
X0172400Y0208806D01*
X0176200Y0208806D01*
X0176200Y0208206D01*
X0176800Y0208206D01*
X0176800Y0204406D01*
X0176823Y0204406D01*
X0177460Y0204507D01*
X0178074Y0204707D01*
X0178649Y0205000D01*
X0179171Y0205379D01*
X0179627Y0205835D01*
X0180007Y0206357D01*
X0180300Y0206932D01*
X0180499Y0207546D01*
X0180600Y0208184D01*
X0180600Y0208206D01*
X0176800Y0208206D01*
X0176800Y0208806D01*
X0176200Y0208806D01*
X0176200Y0212606D01*
X0174952Y0212314D02*
X0148543Y0212314D01*
X0149772Y0211316D02*
X0173511Y0211316D01*
X0172821Y0210317D02*
X0150404Y0210317D01*
X0150800Y0209319D02*
X0172478Y0209319D01*
X0172400Y0208206D02*
X0172400Y0208184D01*
X0172501Y0207546D01*
X0172700Y0206932D01*
X0172993Y0206357D01*
X0173373Y0205835D01*
X0173829Y0205379D01*
X0174351Y0205000D01*
X0174926Y0204707D01*
X0175540Y0204507D01*
X0176177Y0204406D01*
X0176200Y0204406D01*
X0176200Y0208206D01*
X0172400Y0208206D01*
X0172574Y0207322D02*
X0150664Y0207322D01*
X0150800Y0208320D02*
X0176200Y0208320D01*
X0176800Y0208320D02*
X0193311Y0208320D01*
X0193385Y0209319D02*
X0180522Y0209319D01*
X0180179Y0210317D02*
X0193801Y0210317D01*
X0194949Y0211316D02*
X0179489Y0211316D01*
X0178048Y0212314D02*
X0247497Y0212314D01*
X0247497Y0211316D02*
X0198051Y0211316D01*
X0193539Y0207322D02*
X0180426Y0207322D01*
X0179982Y0206323D02*
X0194173Y0206323D01*
X0195848Y0205325D02*
X0179096Y0205325D01*
X0176800Y0205325D02*
X0176200Y0205325D01*
X0176200Y0206323D02*
X0176800Y0206323D01*
X0176800Y0207322D02*
X0176200Y0207322D01*
X0176200Y0209319D02*
X0176800Y0209319D01*
X0176800Y0210317D02*
X0176200Y0210317D01*
X0176200Y0211316D02*
X0176800Y0211316D01*
X0175391Y0214311D02*
X0147609Y0214311D01*
X0149385Y0215310D02*
X0173615Y0215310D01*
X0172756Y0216308D02*
X0150244Y0216308D01*
X0150657Y0217307D02*
X0172343Y0217307D01*
X0172200Y0218305D02*
X0150800Y0218305D01*
X0150800Y0219304D02*
X0172200Y0219304D01*
X0172590Y0220302D02*
X0150410Y0220302D01*
X0149787Y0221301D02*
X0173213Y0221301D01*
X0174421Y0222299D02*
X0148579Y0222299D01*
X0147573Y0224296D02*
X0175427Y0224296D01*
X0173630Y0225295D02*
X0149370Y0225295D01*
X0150238Y0226293D02*
X0172762Y0226293D01*
X0172349Y0227292D02*
X0150651Y0227292D01*
X0150800Y0228290D02*
X0172200Y0228290D01*
X0172200Y0229289D02*
X0150800Y0229289D01*
X0150416Y0230287D02*
X0172584Y0230287D01*
X0173199Y0231286D02*
X0149801Y0231286D01*
X0148615Y0232284D02*
X0174385Y0232284D01*
X0175463Y0234282D02*
X0103950Y0234282D01*
X0103950Y0235280D02*
X0143965Y0235280D01*
X0143829Y0235379D02*
X0144351Y0235000D01*
X0144926Y0234707D01*
X0145540Y0234507D01*
X0146177Y0234406D01*
X0146200Y0234406D01*
X0146200Y0238206D01*
X0146800Y0238206D01*
X0146800Y0234406D01*
X0146823Y0234406D01*
X0147460Y0234507D01*
X0148074Y0234707D01*
X0148649Y0235000D01*
X0149171Y0235379D01*
X0149627Y0235835D01*
X0150007Y0236357D01*
X0150300Y0236932D01*
X0150499Y0237546D01*
X0150600Y0238184D01*
X0150600Y0238206D01*
X0146800Y0238206D01*
X0146800Y0238806D01*
X0150600Y0238806D01*
X0150600Y0238829D01*
X0150499Y0239466D01*
X0150300Y0240080D01*
X0150007Y0240655D01*
X0149627Y0241177D01*
X0149171Y0241634D01*
X0148649Y0242013D01*
X0148074Y0242306D01*
X0147460Y0242505D01*
X0146823Y0242606D01*
X0146800Y0242606D01*
X0146800Y0238806D01*
X0146200Y0238806D01*
X0146200Y0238206D01*
X0142400Y0238206D01*
X0142400Y0238184D01*
X0142501Y0237546D01*
X0142700Y0236932D01*
X0142993Y0236357D01*
X0143373Y0235835D01*
X0143829Y0235379D01*
X0143051Y0236279D02*
X0103950Y0236279D01*
X0103950Y0237277D02*
X0142588Y0237277D01*
X0142400Y0238806D02*
X0146200Y0238806D01*
X0146200Y0242606D01*
X0146177Y0242606D01*
X0145540Y0242505D01*
X0144926Y0242306D01*
X0144351Y0242013D01*
X0143829Y0241634D01*
X0143373Y0241177D01*
X0142993Y0240655D01*
X0142700Y0240080D01*
X0142501Y0239466D01*
X0142400Y0238829D01*
X0142400Y0238806D01*
X0142471Y0239274D02*
X0103950Y0239274D01*
X0103950Y0238276D02*
X0146200Y0238276D01*
X0146800Y0238276D02*
X0172200Y0238276D01*
X0172200Y0239274D02*
X0150529Y0239274D01*
X0150202Y0240273D02*
X0172577Y0240273D01*
X0173184Y0241271D02*
X0149533Y0241271D01*
X0148145Y0242270D02*
X0174349Y0242270D01*
X0172355Y0237277D02*
X0150412Y0237277D01*
X0149949Y0236279D02*
X0172768Y0236279D01*
X0173645Y0235280D02*
X0149035Y0235280D01*
X0146800Y0235280D02*
X0146200Y0235280D01*
X0146200Y0236279D02*
X0146800Y0236279D01*
X0146800Y0237277D02*
X0146200Y0237277D01*
X0146200Y0239274D02*
X0146800Y0239274D01*
X0146800Y0240273D02*
X0146200Y0240273D01*
X0146200Y0241271D02*
X0146800Y0241271D01*
X0146800Y0242270D02*
X0146200Y0242270D01*
X0144855Y0242270D02*
X0104439Y0242270D01*
X0103950Y0241271D02*
X0143467Y0241271D01*
X0142798Y0240273D02*
X0103950Y0240273D01*
X0103950Y0233283D02*
X0231480Y0233283D01*
X0235414Y0236279D02*
X0263191Y0236279D01*
X0262855Y0235942D02*
X0262200Y0234362D01*
X0262200Y0232651D01*
X0262855Y0231071D01*
X0264064Y0229861D01*
X0265645Y0229206D01*
X0267355Y0229206D01*
X0268936Y0229861D01*
X0270145Y0231071D01*
X0270800Y0232651D01*
X0270800Y0234362D01*
X0270145Y0235942D01*
X0268936Y0237152D01*
X0267355Y0237806D01*
X0265645Y0237806D01*
X0264064Y0237152D01*
X0262855Y0235942D01*
X0262580Y0235280D02*
X0236413Y0235280D01*
X0237411Y0234282D02*
X0262200Y0234282D01*
X0262200Y0233283D02*
X0238410Y0233283D01*
X0239408Y0232284D02*
X0262352Y0232284D01*
X0262765Y0231286D02*
X0240407Y0231286D01*
X0241405Y0230287D02*
X0263638Y0230287D01*
X0265445Y0229289D02*
X0242404Y0229289D01*
X0243402Y0228290D02*
X0305605Y0228290D01*
X0306603Y0227292D02*
X0298101Y0227292D01*
X0298074Y0227306D02*
X0297460Y0227505D01*
X0296823Y0227606D01*
X0296800Y0227606D01*
X0296800Y0223806D01*
X0300600Y0223806D01*
X0300600Y0223829D01*
X0300499Y0224466D01*
X0300300Y0225080D01*
X0300007Y0225655D01*
X0299627Y0226177D01*
X0299171Y0226634D01*
X0298649Y0227013D01*
X0298074Y0227306D01*
X0296800Y0227292D02*
X0296200Y0227292D01*
X0296200Y0227606D02*
X0296177Y0227606D01*
X0295540Y0227505D01*
X0294926Y0227306D01*
X0294351Y0227013D01*
X0293829Y0226634D01*
X0293373Y0226177D01*
X0292993Y0225655D01*
X0292700Y0225080D01*
X0292501Y0224466D01*
X0292400Y0223829D01*
X0292400Y0223806D01*
X0296200Y0223806D01*
X0296200Y0223206D01*
X0296800Y0223206D01*
X0296800Y0219406D01*
X0296823Y0219406D01*
X0297460Y0219507D01*
X0298074Y0219707D01*
X0298649Y0220000D01*
X0299171Y0220379D01*
X0299627Y0220835D01*
X0300007Y0221357D01*
X0300300Y0221932D01*
X0300499Y0222546D01*
X0300600Y0223184D01*
X0300600Y0223206D01*
X0296800Y0223206D01*
X0296800Y0223806D01*
X0296200Y0223806D01*
X0296200Y0227606D01*
X0296200Y0226293D02*
X0296800Y0226293D01*
X0296800Y0225295D02*
X0296200Y0225295D01*
X0296200Y0224296D02*
X0296800Y0224296D01*
X0296800Y0223298D02*
X0353863Y0223298D01*
X0353863Y0222578D02*
X0354574Y0220862D01*
X0355887Y0219549D01*
X0357603Y0218838D01*
X0365397Y0218838D01*
X0367113Y0219549D01*
X0368426Y0220862D01*
X0369137Y0222578D01*
X0369137Y0224435D01*
X0368426Y0226151D01*
X0367113Y0227464D01*
X0365397Y0228175D01*
X0357603Y0228175D01*
X0355887Y0227464D01*
X0354574Y0226151D01*
X0353863Y0224435D01*
X0353863Y0222578D01*
X0353978Y0222299D02*
X0300419Y0222299D01*
X0299966Y0221301D02*
X0354392Y0221301D01*
X0355133Y0220302D02*
X0299065Y0220302D01*
X0296800Y0220302D02*
X0296200Y0220302D01*
X0296200Y0219406D02*
X0296200Y0223206D01*
X0292400Y0223206D01*
X0292400Y0223184D01*
X0292501Y0222546D01*
X0292700Y0221932D01*
X0292993Y0221357D01*
X0293373Y0220835D01*
X0293829Y0220379D01*
X0294351Y0220000D01*
X0294926Y0219707D01*
X0295540Y0219507D01*
X0296177Y0219406D01*
X0296200Y0219406D01*
X0296200Y0221301D02*
X0296800Y0221301D01*
X0296800Y0222299D02*
X0296200Y0222299D01*
X0296200Y0223298D02*
X0270800Y0223298D01*
X0270800Y0222651D02*
X0270145Y0221071D01*
X0268936Y0219861D01*
X0267355Y0219206D01*
X0265645Y0219206D01*
X0264064Y0219861D01*
X0262855Y0221071D01*
X0262200Y0222651D01*
X0262200Y0224362D01*
X0262855Y0225942D01*
X0264064Y0227152D01*
X0265645Y0227806D01*
X0267355Y0227806D01*
X0268936Y0227152D01*
X0270145Y0225942D01*
X0270800Y0224362D01*
X0270800Y0222651D01*
X0270654Y0222299D02*
X0292581Y0222299D01*
X0293034Y0221301D02*
X0270241Y0221301D01*
X0269377Y0220302D02*
X0293934Y0220302D01*
X0292474Y0224296D02*
X0270800Y0224296D01*
X0270413Y0225295D02*
X0292810Y0225295D01*
X0293489Y0226293D02*
X0269794Y0226293D01*
X0268597Y0227292D02*
X0294899Y0227292D01*
X0295445Y0229289D02*
X0267555Y0229289D01*
X0269362Y0230287D02*
X0293638Y0230287D01*
X0292765Y0231286D02*
X0270235Y0231286D01*
X0270648Y0232284D02*
X0292352Y0232284D01*
X0292200Y0233283D02*
X0270800Y0233283D01*
X0270800Y0234282D02*
X0292200Y0234282D01*
X0292580Y0235280D02*
X0270420Y0235280D01*
X0269809Y0236279D02*
X0293191Y0236279D01*
X0294367Y0237277D02*
X0268633Y0237277D01*
X0267519Y0239274D02*
X0295481Y0239274D01*
X0295645Y0239206D02*
X0297355Y0239206D01*
X0298936Y0239861D01*
X0300145Y0241071D01*
X0300800Y0242651D01*
X0300800Y0244362D01*
X0300145Y0245942D01*
X0298936Y0247152D01*
X0297355Y0247806D01*
X0295645Y0247806D01*
X0294064Y0247152D01*
X0292855Y0245942D01*
X0292200Y0244362D01*
X0292200Y0242651D01*
X0292855Y0241071D01*
X0294064Y0239861D01*
X0295645Y0239206D01*
X0297519Y0239274D02*
X0305278Y0239274D01*
X0305310Y0240273D02*
X0299347Y0240273D01*
X0300228Y0241271D02*
X0305310Y0241271D01*
X0305310Y0242270D02*
X0300642Y0242270D01*
X0300800Y0243268D02*
X0305310Y0243268D01*
X0305310Y0244267D02*
X0300800Y0244267D01*
X0300426Y0245265D02*
X0305310Y0245265D01*
X0305310Y0246264D02*
X0299824Y0246264D01*
X0298669Y0247262D02*
X0305310Y0247262D01*
X0305310Y0248261D02*
X0233950Y0248261D01*
X0233950Y0249259D02*
X0295517Y0249259D01*
X0295645Y0249206D02*
X0297355Y0249206D01*
X0298936Y0249861D01*
X0300145Y0251071D01*
X0300800Y0252651D01*
X0300800Y0254362D01*
X0300145Y0255942D01*
X0298936Y0257152D01*
X0297355Y0257806D01*
X0295645Y0257806D01*
X0294064Y0257152D01*
X0292855Y0255942D01*
X0292200Y0254362D01*
X0292200Y0252651D01*
X0292855Y0251071D01*
X0294064Y0249861D01*
X0295645Y0249206D01*
X0297483Y0249259D02*
X0305310Y0249259D01*
X0305310Y0250258D02*
X0299333Y0250258D01*
X0300222Y0251256D02*
X0305310Y0251256D01*
X0305310Y0252255D02*
X0300636Y0252255D01*
X0300800Y0253253D02*
X0305310Y0253253D01*
X0305310Y0254252D02*
X0300800Y0254252D01*
X0300432Y0255250D02*
X0305310Y0255250D01*
X0305310Y0256249D02*
X0299839Y0256249D01*
X0298705Y0257247D02*
X0305310Y0257247D01*
X0305310Y0258246D02*
X0233950Y0258246D01*
X0233950Y0259244D02*
X0305310Y0259244D01*
X0305310Y0260243D02*
X0233950Y0260243D01*
X0233950Y0261241D02*
X0234255Y0261241D01*
X0233950Y0257247D02*
X0264811Y0257247D01*
X0264926Y0257306D02*
X0264351Y0257013D01*
X0263829Y0256634D01*
X0263373Y0256177D01*
X0262993Y0255655D01*
X0262700Y0255080D01*
X0262501Y0254466D01*
X0262400Y0253829D01*
X0262400Y0253806D01*
X0266200Y0253806D01*
X0266200Y0253206D01*
X0266800Y0253206D01*
X0266800Y0249406D01*
X0266823Y0249406D01*
X0267460Y0249507D01*
X0268074Y0249707D01*
X0268649Y0250000D01*
X0269171Y0250379D01*
X0269627Y0250835D01*
X0270007Y0251357D01*
X0270300Y0251932D01*
X0270499Y0252546D01*
X0270600Y0253184D01*
X0270600Y0253206D01*
X0266800Y0253206D01*
X0266800Y0253806D01*
X0270600Y0253806D01*
X0270600Y0253829D01*
X0270499Y0254466D01*
X0270300Y0255080D01*
X0270007Y0255655D01*
X0269627Y0256177D01*
X0269171Y0256634D01*
X0268649Y0257013D01*
X0268074Y0257306D01*
X0267460Y0257505D01*
X0266823Y0257606D01*
X0266800Y0257606D01*
X0266800Y0253806D01*
X0266200Y0253806D01*
X0266200Y0257606D01*
X0266177Y0257606D01*
X0265540Y0257505D01*
X0264926Y0257306D01*
X0266200Y0257247D02*
X0266800Y0257247D01*
X0266800Y0256249D02*
X0266200Y0256249D01*
X0266200Y0255250D02*
X0266800Y0255250D01*
X0266800Y0254252D02*
X0266200Y0254252D01*
X0266200Y0253253D02*
X0233950Y0253253D01*
X0233950Y0252255D02*
X0262596Y0252255D01*
X0262501Y0252546D02*
X0262700Y0251932D01*
X0262993Y0251357D01*
X0263373Y0250835D01*
X0263829Y0250379D01*
X0264351Y0250000D01*
X0264926Y0249707D01*
X0265540Y0249507D01*
X0266177Y0249406D01*
X0266200Y0249406D01*
X0266200Y0253206D01*
X0262400Y0253206D01*
X0262400Y0253184D01*
X0262501Y0252546D01*
X0263067Y0251256D02*
X0233950Y0251256D01*
X0233950Y0250258D02*
X0263996Y0250258D01*
X0266200Y0250258D02*
X0266800Y0250258D01*
X0266800Y0251256D02*
X0266200Y0251256D01*
X0266200Y0252255D02*
X0266800Y0252255D01*
X0266800Y0253253D02*
X0292200Y0253253D01*
X0292200Y0254252D02*
X0270533Y0254252D01*
X0270213Y0255250D02*
X0292568Y0255250D01*
X0293161Y0256249D02*
X0269556Y0256249D01*
X0268189Y0257247D02*
X0294295Y0257247D01*
X0292364Y0252255D02*
X0270404Y0252255D01*
X0269933Y0251256D02*
X0292778Y0251256D01*
X0293667Y0250258D02*
X0269004Y0250258D01*
X0267355Y0247806D02*
X0265645Y0247806D01*
X0264064Y0247152D01*
X0262855Y0245942D01*
X0262200Y0244362D01*
X0262200Y0242651D01*
X0262855Y0241071D01*
X0264064Y0239861D01*
X0265645Y0239206D01*
X0267355Y0239206D01*
X0268936Y0239861D01*
X0270145Y0241071D01*
X0270800Y0242651D01*
X0270800Y0244362D01*
X0270145Y0245942D01*
X0268936Y0247152D01*
X0267355Y0247806D01*
X0268669Y0247262D02*
X0294331Y0247262D01*
X0293176Y0246264D02*
X0269824Y0246264D01*
X0270426Y0245265D02*
X0292574Y0245265D01*
X0292200Y0244267D02*
X0270800Y0244267D01*
X0270800Y0243268D02*
X0292200Y0243268D01*
X0292358Y0242270D02*
X0270642Y0242270D01*
X0270228Y0241271D02*
X0292772Y0241271D01*
X0293653Y0240273D02*
X0269347Y0240273D01*
X0265481Y0239274D02*
X0233950Y0239274D01*
X0233950Y0238276D02*
X0304734Y0238276D01*
X0304571Y0237277D02*
X0298633Y0237277D01*
X0299809Y0236279D02*
X0301860Y0236279D01*
X0300783Y0235280D02*
X0300420Y0235280D01*
X0303500Y0233506D02*
X0308500Y0228506D01*
X0311500Y0228506D01*
X0314449Y0227292D02*
X0355715Y0227292D01*
X0354716Y0226293D02*
X0313797Y0226293D01*
X0314689Y0228290D02*
X0442000Y0228290D01*
X0442000Y0227292D02*
X0367285Y0227292D01*
X0368284Y0226293D02*
X0442000Y0226293D01*
X0442000Y0225295D02*
X0368781Y0225295D01*
X0369137Y0224296D02*
X0442000Y0224296D01*
X0442000Y0223298D02*
X0369137Y0223298D01*
X0369022Y0222299D02*
X0442000Y0222299D01*
X0442000Y0221301D02*
X0368608Y0221301D01*
X0367867Y0220302D02*
X0442000Y0220302D01*
X0442000Y0219304D02*
X0366522Y0219304D01*
X0367270Y0217307D02*
X0442000Y0217307D01*
X0442000Y0218305D02*
X0253136Y0218305D01*
X0252995Y0217307D02*
X0355730Y0217307D01*
X0354731Y0216308D02*
X0252485Y0216308D01*
X0252397Y0215310D02*
X0310192Y0215310D01*
X0309194Y0214311D02*
X0252397Y0214311D01*
X0252397Y0213313D02*
X0308195Y0213313D01*
X0307197Y0212314D02*
X0252397Y0212314D01*
X0252397Y0211316D02*
X0306198Y0211316D01*
X0305200Y0210317D02*
X0252397Y0210317D01*
X0252600Y0209319D02*
X0304201Y0209319D01*
X0303203Y0208320D02*
X0253598Y0208320D01*
X0254597Y0207322D02*
X0302204Y0207322D01*
X0301206Y0206323D02*
X0266033Y0206323D01*
X0267191Y0205325D02*
X0300207Y0205325D01*
X0299209Y0204326D02*
X0267612Y0204326D01*
X0267689Y0203328D02*
X0298210Y0203328D01*
X0297212Y0202329D02*
X0267464Y0202329D01*
X0266834Y0201331D02*
X0296213Y0201331D01*
X0295215Y0200332D02*
X0265170Y0200332D01*
X0263830Y0200332D02*
X0163700Y0200332D01*
X0163700Y0199334D02*
X0294216Y0199334D01*
X0293218Y0198335D02*
X0163700Y0198335D01*
X0163700Y0197337D02*
X0182219Y0197337D01*
X0181221Y0196338D02*
X0163700Y0196338D01*
X0164177Y0195340D02*
X0180222Y0195340D01*
X0184000Y0196006D02*
X0171500Y0183506D01*
X0161500Y0193506D02*
X0161500Y0203506D01*
X0164464Y0202329D02*
X0252660Y0202329D01*
X0251661Y0203328D02*
X0164689Y0203328D01*
X0164612Y0204326D02*
X0250663Y0204326D01*
X0249664Y0205325D02*
X0197152Y0205325D01*
X0184000Y0196006D02*
X0216500Y0196006D01*
X0216500Y0188506D01*
X0220825Y0190347D02*
X0257175Y0190347D01*
X0257516Y0191169D02*
X0256800Y0189441D01*
X0256800Y0187571D01*
X0257516Y0185844D01*
X0258838Y0184522D01*
X0260565Y0183806D01*
X0262435Y0183806D01*
X0264162Y0184522D01*
X0265484Y0185844D01*
X0266200Y0187571D01*
X0266200Y0189441D01*
X0265484Y0191169D01*
X0264162Y0192491D01*
X0262435Y0193206D01*
X0260565Y0193206D01*
X0258838Y0192491D01*
X0257516Y0191169D01*
X0257692Y0191346D02*
X0220308Y0191346D01*
X0219309Y0192344D02*
X0258691Y0192344D01*
X0256800Y0189348D02*
X0221200Y0189348D01*
X0221200Y0188350D02*
X0256800Y0188350D01*
X0256891Y0187351D02*
X0221109Y0187351D01*
X0220695Y0186353D02*
X0257305Y0186353D01*
X0258005Y0185354D02*
X0219995Y0185354D01*
X0218762Y0184356D02*
X0259238Y0184356D01*
X0263762Y0184356D02*
X0269238Y0184356D01*
X0268838Y0184522D02*
X0270565Y0183806D01*
X0272435Y0183806D01*
X0274162Y0184522D01*
X0275484Y0185844D01*
X0276200Y0187571D01*
X0276200Y0189441D01*
X0275484Y0191169D01*
X0274162Y0192491D01*
X0272435Y0193206D01*
X0270565Y0193206D01*
X0268838Y0192491D01*
X0267516Y0191169D01*
X0266800Y0189441D01*
X0266800Y0187571D01*
X0267516Y0185844D01*
X0268838Y0184522D01*
X0268005Y0185354D02*
X0264995Y0185354D01*
X0265695Y0186353D02*
X0267305Y0186353D01*
X0266891Y0187351D02*
X0266109Y0187351D01*
X0266200Y0188350D02*
X0266800Y0188350D01*
X0266800Y0189348D02*
X0266200Y0189348D01*
X0265825Y0190347D02*
X0267175Y0190347D01*
X0267692Y0191346D02*
X0265308Y0191346D01*
X0264309Y0192344D02*
X0268691Y0192344D01*
X0274309Y0192344D02*
X0278691Y0192344D01*
X0278838Y0192491D02*
X0277516Y0191169D01*
X0276800Y0189441D01*
X0276800Y0187571D01*
X0277516Y0185844D01*
X0278838Y0184522D01*
X0280565Y0183806D01*
X0282435Y0183806D01*
X0284162Y0184522D01*
X0285484Y0185844D01*
X0286200Y0187571D01*
X0286200Y0189441D01*
X0285484Y0191169D01*
X0284162Y0192491D01*
X0282435Y0193206D01*
X0280565Y0193206D01*
X0278838Y0192491D01*
X0277692Y0191346D02*
X0275308Y0191346D01*
X0275825Y0190347D02*
X0277175Y0190347D01*
X0276800Y0189348D02*
X0276200Y0189348D01*
X0276200Y0188350D02*
X0276800Y0188350D01*
X0276891Y0187351D02*
X0276109Y0187351D01*
X0275695Y0186353D02*
X0277305Y0186353D01*
X0278005Y0185354D02*
X0274995Y0185354D01*
X0273762Y0184356D02*
X0279238Y0184356D01*
X0283762Y0184356D02*
X0289238Y0184356D01*
X0288005Y0185354D02*
X0284995Y0185354D01*
X0285695Y0186353D02*
X0287305Y0186353D01*
X0286891Y0187351D02*
X0286109Y0187351D01*
X0286200Y0188350D02*
X0286800Y0188350D01*
X0286800Y0189348D02*
X0286200Y0189348D01*
X0285825Y0190347D02*
X0287175Y0190347D01*
X0287692Y0191346D02*
X0285308Y0191346D01*
X0284309Y0192344D02*
X0288691Y0192344D01*
X0288552Y0193343D02*
X0218700Y0193343D01*
X0216500Y0196006D02*
X0289000Y0196006D01*
X0291500Y0193506D01*
X0291500Y0188506D01*
X0295825Y0190347D02*
X0355089Y0190347D01*
X0354574Y0190862D02*
X0355887Y0189549D01*
X0357603Y0188838D01*
X0365397Y0188838D01*
X0367113Y0189549D01*
X0368426Y0190862D01*
X0369137Y0192578D01*
X0369137Y0194435D01*
X0368426Y0196151D01*
X0367113Y0197464D01*
X0365397Y0198175D01*
X0357603Y0198175D01*
X0355887Y0197464D01*
X0354574Y0196151D01*
X0353863Y0194435D01*
X0353863Y0192578D01*
X0354574Y0190862D01*
X0354373Y0191346D02*
X0295308Y0191346D01*
X0294309Y0192344D02*
X0353960Y0192344D01*
X0353863Y0193343D02*
X0294448Y0193343D01*
X0295446Y0194341D02*
X0353863Y0194341D01*
X0354238Y0195340D02*
X0296445Y0195340D01*
X0297443Y0196338D02*
X0354761Y0196338D01*
X0355760Y0197337D02*
X0298442Y0197337D01*
X0299440Y0198335D02*
X0442000Y0198335D01*
X0442000Y0197337D02*
X0367240Y0197337D01*
X0368239Y0196338D02*
X0442000Y0196338D01*
X0442000Y0195340D02*
X0368762Y0195340D01*
X0369137Y0194341D02*
X0442000Y0194341D01*
X0442000Y0193343D02*
X0369137Y0193343D01*
X0369040Y0192344D02*
X0442000Y0192344D01*
X0442000Y0191346D02*
X0368627Y0191346D01*
X0367911Y0190347D02*
X0442000Y0190347D01*
X0442000Y0189348D02*
X0366630Y0189348D01*
X0366184Y0187647D02*
X0365515Y0187865D01*
X0364820Y0187975D01*
X0361984Y0187975D01*
X0361984Y0183991D01*
X0368916Y0183991D01*
X0368827Y0184553D01*
X0368610Y0185222D01*
X0368290Y0185848D01*
X0367877Y0186417D01*
X0367380Y0186915D01*
X0366811Y0187328D01*
X0366184Y0187647D01*
X0366765Y0187351D02*
X0442000Y0187351D01*
X0442000Y0186353D02*
X0367924Y0186353D01*
X0368542Y0185354D02*
X0442000Y0185354D01*
X0442000Y0184356D02*
X0368858Y0184356D01*
X0361984Y0184356D02*
X0361016Y0184356D01*
X0361016Y0185354D02*
X0361984Y0185354D01*
X0361984Y0186353D02*
X0361016Y0186353D01*
X0361016Y0187351D02*
X0361984Y0187351D01*
X0356235Y0187351D02*
X0296109Y0187351D01*
X0296200Y0188350D02*
X0442000Y0188350D01*
X0442000Y0179363D02*
X0441645Y0179363D01*
X0442000Y0199334D02*
X0300439Y0199334D01*
X0301437Y0200332D02*
X0442000Y0200332D01*
X0442000Y0201331D02*
X0302436Y0201331D01*
X0303434Y0202329D02*
X0442000Y0202329D01*
X0442000Y0203328D02*
X0304433Y0203328D01*
X0305431Y0204326D02*
X0442000Y0204326D01*
X0442000Y0205325D02*
X0306430Y0205325D01*
X0307428Y0206323D02*
X0442000Y0206323D01*
X0442000Y0207322D02*
X0308427Y0207322D01*
X0309425Y0208320D02*
X0442000Y0208320D01*
X0442000Y0209319D02*
X0366558Y0209319D01*
X0367882Y0210317D02*
X0442000Y0210317D01*
X0442000Y0211316D02*
X0368614Y0211316D01*
X0369028Y0212314D02*
X0442000Y0212314D01*
X0442000Y0213313D02*
X0369137Y0213313D01*
X0369137Y0214311D02*
X0442000Y0214311D01*
X0442000Y0215310D02*
X0368775Y0215310D01*
X0368269Y0216308D02*
X0442000Y0216308D01*
X0442000Y0229289D02*
X0366486Y0229289D01*
X0367113Y0229549D02*
X0368426Y0230862D01*
X0369137Y0232578D01*
X0369137Y0234435D01*
X0368426Y0236151D01*
X0367113Y0237464D01*
X0365397Y0238175D01*
X0357603Y0238175D01*
X0355887Y0237464D01*
X0354574Y0236151D01*
X0353863Y0234435D01*
X0353863Y0232578D01*
X0354574Y0230862D01*
X0355887Y0229549D01*
X0357603Y0228838D01*
X0365397Y0228838D01*
X0367113Y0229549D01*
X0367852Y0230287D02*
X0442000Y0230287D01*
X0442000Y0231286D02*
X0368602Y0231286D01*
X0369016Y0232284D02*
X0442000Y0232284D01*
X0442000Y0233283D02*
X0369137Y0233283D01*
X0369137Y0234282D02*
X0442000Y0234282D01*
X0442000Y0235280D02*
X0368787Y0235280D01*
X0368299Y0236279D02*
X0442000Y0236279D01*
X0442000Y0237277D02*
X0367300Y0237277D01*
X0366450Y0239274D02*
X0442000Y0239274D01*
X0442000Y0238276D02*
X0310785Y0238276D01*
X0310949Y0237277D02*
X0355700Y0237277D01*
X0354701Y0236279D02*
X0310811Y0236279D01*
X0310303Y0235280D02*
X0354213Y0235280D01*
X0353863Y0234282D02*
X0308935Y0234282D01*
X0307833Y0232284D02*
X0353984Y0232284D01*
X0353863Y0233283D02*
X0306835Y0233283D01*
X0308832Y0231286D02*
X0309878Y0231286D01*
X0313122Y0231286D02*
X0354398Y0231286D01*
X0355148Y0230287D02*
X0314214Y0230287D01*
X0314628Y0229289D02*
X0356514Y0229289D01*
X0354219Y0225295D02*
X0300190Y0225295D01*
X0300526Y0224296D02*
X0353863Y0224296D01*
X0356478Y0219304D02*
X0267591Y0219304D01*
X0265409Y0219304D02*
X0252975Y0219304D01*
X0252436Y0220302D02*
X0263623Y0220302D01*
X0262759Y0221301D02*
X0250989Y0221301D01*
X0249394Y0222299D02*
X0262346Y0222299D01*
X0262200Y0223298D02*
X0248395Y0223298D01*
X0247396Y0224296D02*
X0262200Y0224296D01*
X0262587Y0225295D02*
X0246398Y0225295D01*
X0245399Y0226293D02*
X0263206Y0226293D01*
X0264403Y0227292D02*
X0244401Y0227292D01*
X0242464Y0222299D02*
X0178579Y0222299D01*
X0179787Y0221301D02*
X0243462Y0221301D01*
X0244461Y0220302D02*
X0180410Y0220302D01*
X0180800Y0219304D02*
X0245459Y0219304D01*
X0246458Y0218305D02*
X0180800Y0218305D01*
X0180657Y0217307D02*
X0246899Y0217307D01*
X0247410Y0216308D02*
X0180244Y0216308D01*
X0179385Y0215310D02*
X0247497Y0215310D01*
X0255595Y0206323D02*
X0262967Y0206323D01*
X0253798Y0201331D02*
X0163834Y0201331D01*
X0164191Y0205325D02*
X0173904Y0205325D01*
X0173018Y0206323D02*
X0163033Y0206323D01*
X0159967Y0206323D02*
X0150250Y0206323D01*
X0149399Y0205325D02*
X0158809Y0205325D01*
X0143630Y0225295D02*
X0108176Y0225295D01*
X0107178Y0226293D02*
X0142762Y0226293D01*
X0142349Y0227292D02*
X0106179Y0227292D01*
X0105181Y0228290D02*
X0142200Y0228290D01*
X0142200Y0229289D02*
X0104182Y0229289D01*
X0103950Y0230287D02*
X0142584Y0230287D01*
X0143199Y0231286D02*
X0103950Y0231286D01*
X0103950Y0232284D02*
X0144385Y0232284D01*
X0114931Y0216308D02*
X0113950Y0216308D01*
X0107238Y0219304D02*
X0031522Y0219304D01*
X0032867Y0220302D02*
X0106239Y0220302D01*
X0105241Y0221301D02*
X0033608Y0221301D01*
X0034022Y0222299D02*
X0104242Y0222299D01*
X0103244Y0223298D02*
X0034137Y0223298D01*
X0034137Y0224296D02*
X0102245Y0224296D01*
X0101247Y0225295D02*
X0033781Y0225295D01*
X0033284Y0226293D02*
X0100248Y0226293D01*
X0090494Y0241271D02*
X0033596Y0241271D01*
X0034009Y0242270D02*
X0089272Y0242270D01*
X0088273Y0243268D02*
X0034137Y0243268D01*
X0034137Y0244267D02*
X0087275Y0244267D01*
X0086276Y0245265D02*
X0033793Y0245265D01*
X0033313Y0246264D02*
X0085278Y0246264D01*
X0084279Y0247262D02*
X0032315Y0247262D01*
X0020178Y0250258D02*
X0013700Y0250258D01*
X0013700Y0251256D02*
X0019410Y0251256D01*
X0018997Y0252255D02*
X0013700Y0252255D01*
X0013700Y0253253D02*
X0018863Y0253253D01*
X0018863Y0254252D02*
X0013700Y0254252D01*
X0013700Y0255250D02*
X0019201Y0255250D01*
X0019672Y0256249D02*
X0013700Y0256249D01*
X0013700Y0257247D02*
X0020670Y0257247D01*
X0022603Y0268838D02*
X0030397Y0268838D01*
X0032113Y0269549D01*
X0033426Y0270862D01*
X0034137Y0272578D01*
X0034137Y0274435D01*
X0033426Y0276151D01*
X0032113Y0277464D01*
X0030397Y0278175D01*
X0022603Y0278175D01*
X0020887Y0277464D01*
X0019574Y0276151D01*
X0018863Y0274435D01*
X0018863Y0272578D01*
X0019574Y0270862D01*
X0020887Y0269549D01*
X0022603Y0268838D01*
X0020208Y0270228D02*
X0013700Y0270228D01*
X0013700Y0271226D02*
X0019423Y0271226D01*
X0019009Y0272225D02*
X0013700Y0272225D01*
X0014328Y0273223D02*
X0018863Y0273223D01*
X0018863Y0274222D02*
X0015327Y0274222D01*
X0016325Y0275220D02*
X0019188Y0275220D01*
X0019642Y0276219D02*
X0017324Y0276219D01*
X0018322Y0277217D02*
X0020640Y0277217D01*
X0019321Y0278216D02*
X0053325Y0278216D01*
X0052327Y0279215D02*
X0020319Y0279215D01*
X0021318Y0280213D02*
X0051328Y0280213D01*
X0049285Y0281212D02*
X0022317Y0281212D01*
X0023315Y0282210D02*
X0048585Y0282210D01*
X0048311Y0283209D02*
X0024314Y0283209D01*
X0025312Y0284207D02*
X0048339Y0284207D01*
X0048752Y0285206D02*
X0026311Y0285206D01*
X0027309Y0286204D02*
X0049688Y0286204D01*
X0053312Y0286204D02*
X0098117Y0286204D01*
X0097855Y0285942D02*
X0097200Y0284362D01*
X0097200Y0282651D01*
X0097855Y0281071D01*
X0099064Y0279861D01*
X0100645Y0279206D01*
X0102355Y0279206D01*
X0103936Y0279861D01*
X0105145Y0281071D01*
X0105800Y0282651D01*
X0105800Y0284362D01*
X0105145Y0285942D01*
X0103936Y0287152D01*
X0102355Y0287806D01*
X0100645Y0287806D01*
X0099064Y0287152D01*
X0097855Y0285942D01*
X0097550Y0285206D02*
X0054248Y0285206D01*
X0054661Y0284207D02*
X0097200Y0284207D01*
X0097200Y0283209D02*
X0055263Y0283209D01*
X0056261Y0282210D02*
X0097383Y0282210D01*
X0097796Y0281212D02*
X0057260Y0281212D01*
X0058258Y0280213D02*
X0098712Y0280213D01*
X0100625Y0279215D02*
X0059257Y0279215D01*
X0060255Y0278216D02*
X0226200Y0278216D01*
X0226200Y0278206D02*
X0222400Y0278206D01*
X0222400Y0278184D01*
X0222501Y0277546D01*
X0222700Y0276932D01*
X0222993Y0276357D01*
X0223373Y0275835D01*
X0223829Y0275379D01*
X0224351Y0275000D01*
X0224926Y0274707D01*
X0225540Y0274507D01*
X0226177Y0274406D01*
X0226200Y0274406D01*
X0226200Y0278206D01*
X0226200Y0278806D02*
X0222400Y0278806D01*
X0222400Y0278829D01*
X0222501Y0279466D01*
X0222700Y0280080D01*
X0222993Y0280655D01*
X0223373Y0281177D01*
X0223829Y0281634D01*
X0224351Y0282013D01*
X0224926Y0282306D01*
X0225540Y0282505D01*
X0226177Y0282606D01*
X0226200Y0282606D01*
X0226200Y0278806D01*
X0226200Y0279215D02*
X0226800Y0279215D01*
X0226800Y0280213D02*
X0226200Y0280213D01*
X0226200Y0281212D02*
X0226800Y0281212D01*
X0226800Y0282210D02*
X0226200Y0282210D01*
X0224738Y0282210D02*
X0169415Y0282210D01*
X0169689Y0283209D02*
X0229050Y0283209D01*
X0229050Y0284207D02*
X0169661Y0284207D01*
X0169248Y0285206D02*
X0229050Y0285206D01*
X0229050Y0286204D02*
X0168312Y0286204D01*
X0166269Y0287203D02*
X0229050Y0287203D01*
X0228340Y0288201D02*
X0165270Y0288201D01*
X0164271Y0289200D02*
X0227342Y0289200D01*
X0226343Y0290198D02*
X0163273Y0290198D01*
X0162274Y0291197D02*
X0225345Y0291197D01*
X0224346Y0292195D02*
X0161276Y0292195D01*
X0160277Y0293194D02*
X0223348Y0293194D01*
X0222349Y0294192D02*
X0159668Y0294192D01*
X0159254Y0295191D02*
X0221351Y0295191D01*
X0220352Y0296189D02*
X0158327Y0296189D01*
X0158340Y0288201D02*
X0029306Y0288201D01*
X0028308Y0287203D02*
X0099187Y0287203D01*
X0103813Y0287203D02*
X0129187Y0287203D01*
X0129064Y0287152D02*
X0127855Y0285942D01*
X0127200Y0284362D01*
X0127200Y0282651D01*
X0127855Y0281071D01*
X0129064Y0279861D01*
X0130645Y0279206D01*
X0132355Y0279206D01*
X0133936Y0279861D01*
X0135145Y0281071D01*
X0135800Y0282651D01*
X0135800Y0284362D01*
X0135145Y0285942D01*
X0133936Y0287152D01*
X0132355Y0287806D01*
X0130645Y0287806D01*
X0129064Y0287152D01*
X0128117Y0286204D02*
X0104883Y0286204D01*
X0105450Y0285206D02*
X0127550Y0285206D01*
X0127200Y0284207D02*
X0105800Y0284207D01*
X0105800Y0283209D02*
X0127200Y0283209D01*
X0127383Y0282210D02*
X0105617Y0282210D01*
X0105204Y0281212D02*
X0127796Y0281212D01*
X0128712Y0280213D02*
X0104288Y0280213D01*
X0102375Y0279215D02*
X0130625Y0279215D01*
X0130645Y0277806D02*
X0129064Y0277152D01*
X0127855Y0275942D01*
X0127200Y0274362D01*
X0127200Y0272651D01*
X0127855Y0271071D01*
X0129064Y0269861D01*
X0130645Y0269206D01*
X0132355Y0269206D01*
X0133936Y0269861D01*
X0135145Y0271071D01*
X0135800Y0272651D01*
X0135800Y0274362D01*
X0135145Y0275942D01*
X0133936Y0277152D01*
X0132355Y0277806D01*
X0130645Y0277806D01*
X0129223Y0277217D02*
X0103777Y0277217D01*
X0103936Y0277152D02*
X0102355Y0277806D01*
X0100645Y0277806D01*
X0099064Y0277152D01*
X0097855Y0275942D01*
X0097200Y0274362D01*
X0097200Y0272651D01*
X0097855Y0271071D01*
X0099064Y0269861D01*
X0100645Y0269206D01*
X0102355Y0269206D01*
X0103936Y0269861D01*
X0105145Y0271071D01*
X0105800Y0272651D01*
X0105800Y0274362D01*
X0105145Y0275942D01*
X0103936Y0277152D01*
X0104868Y0276219D02*
X0128132Y0276219D01*
X0127556Y0275220D02*
X0105444Y0275220D01*
X0105800Y0274222D02*
X0127200Y0274222D01*
X0127200Y0273223D02*
X0105800Y0273223D01*
X0105624Y0272225D02*
X0127376Y0272225D01*
X0127790Y0271226D02*
X0105210Y0271226D01*
X0104303Y0270228D02*
X0128697Y0270228D01*
X0130589Y0269229D02*
X0102411Y0269229D01*
X0100589Y0269229D02*
X0069242Y0269229D01*
X0070240Y0268231D02*
X0229050Y0268231D01*
X0229050Y0269229D02*
X0132411Y0269229D01*
X0132460Y0267505D02*
X0131823Y0267606D01*
X0131800Y0267606D01*
X0131800Y0263806D01*
X0135600Y0263806D01*
X0135600Y0263829D01*
X0135499Y0264466D01*
X0135300Y0265080D01*
X0135007Y0265655D01*
X0134627Y0266177D01*
X0134171Y0266634D01*
X0133649Y0267013D01*
X0133074Y0267306D01*
X0132460Y0267505D01*
X0131800Y0267232D02*
X0131200Y0267232D01*
X0131200Y0267606D02*
X0131177Y0267606D01*
X0130540Y0267505D01*
X0129926Y0267306D01*
X0129351Y0267013D01*
X0128829Y0266634D01*
X0128373Y0266177D01*
X0127993Y0265655D01*
X0127700Y0265080D01*
X0127501Y0264466D01*
X0127400Y0263829D01*
X0127400Y0263806D01*
X0131200Y0263806D01*
X0131200Y0263206D01*
X0131800Y0263206D01*
X0131800Y0259406D01*
X0131823Y0259406D01*
X0132460Y0259507D01*
X0133074Y0259707D01*
X0133649Y0260000D01*
X0134171Y0260379D01*
X0134627Y0260835D01*
X0135007Y0261357D01*
X0135300Y0261932D01*
X0135499Y0262546D01*
X0135600Y0263184D01*
X0135600Y0263206D01*
X0131800Y0263206D01*
X0131800Y0263806D01*
X0131200Y0263806D01*
X0131200Y0267606D01*
X0131200Y0266234D02*
X0131800Y0266234D01*
X0131800Y0265235D02*
X0131200Y0265235D01*
X0131200Y0264237D02*
X0131800Y0264237D01*
X0131800Y0263238D02*
X0183311Y0263238D01*
X0183311Y0262872D02*
X0183797Y0261700D01*
X0184694Y0260803D01*
X0185866Y0260317D01*
X0187134Y0260317D01*
X0188306Y0260803D01*
X0188560Y0261056D01*
X0214440Y0261056D01*
X0214694Y0260803D01*
X0215866Y0260317D01*
X0217134Y0260317D01*
X0218306Y0260803D01*
X0219203Y0261700D01*
X0219689Y0262872D01*
X0219689Y0264141D01*
X0219203Y0265313D01*
X0218306Y0266210D01*
X0217134Y0266695D01*
X0215866Y0266695D01*
X0214694Y0266210D01*
X0214440Y0265956D01*
X0188560Y0265956D01*
X0188306Y0266210D01*
X0187134Y0266695D01*
X0185866Y0266695D01*
X0184694Y0266210D01*
X0183797Y0265313D01*
X0183311Y0264141D01*
X0183311Y0262872D01*
X0183573Y0262240D02*
X0135399Y0262240D01*
X0134922Y0261241D02*
X0184255Y0261241D01*
X0183351Y0264237D02*
X0135535Y0264237D01*
X0135221Y0265235D02*
X0183764Y0265235D01*
X0184752Y0266234D02*
X0134571Y0266234D01*
X0133218Y0267232D02*
X0229050Y0267232D01*
X0229050Y0266234D02*
X0218248Y0266234D01*
X0219236Y0265235D02*
X0229050Y0265235D01*
X0229050Y0264237D02*
X0219649Y0264237D01*
X0219689Y0263238D02*
X0229050Y0263238D01*
X0229050Y0262240D02*
X0219427Y0262240D01*
X0218745Y0261241D02*
X0229050Y0261241D01*
X0229050Y0260243D02*
X0133984Y0260243D01*
X0131800Y0260243D02*
X0131200Y0260243D01*
X0131200Y0259406D02*
X0131200Y0263206D01*
X0127400Y0263206D01*
X0127400Y0263184D01*
X0127501Y0262546D01*
X0127700Y0261932D01*
X0127993Y0261357D01*
X0128373Y0260835D01*
X0128829Y0260379D01*
X0129351Y0260000D01*
X0129926Y0259707D01*
X0130540Y0259507D01*
X0131177Y0259406D01*
X0131200Y0259406D01*
X0131200Y0261241D02*
X0131800Y0261241D01*
X0131800Y0262240D02*
X0131200Y0262240D01*
X0131200Y0263238D02*
X0105800Y0263238D01*
X0105800Y0264237D02*
X0127465Y0264237D01*
X0127779Y0265235D02*
X0105438Y0265235D01*
X0104854Y0266234D02*
X0128429Y0266234D01*
X0129782Y0267232D02*
X0103741Y0267232D01*
X0099259Y0267232D02*
X0071239Y0267232D01*
X0072237Y0266234D02*
X0098146Y0266234D01*
X0097562Y0265235D02*
X0073236Y0265235D01*
X0074234Y0264237D02*
X0097200Y0264237D01*
X0098697Y0270228D02*
X0068243Y0270228D01*
X0067245Y0271226D02*
X0097790Y0271226D01*
X0097376Y0272225D02*
X0066246Y0272225D01*
X0065248Y0273223D02*
X0097200Y0273223D01*
X0097200Y0274222D02*
X0064249Y0274222D01*
X0063251Y0275220D02*
X0097556Y0275220D01*
X0098132Y0276219D02*
X0062252Y0276219D01*
X0061254Y0277217D02*
X0099223Y0277217D01*
X0103922Y0290198D02*
X0128727Y0290198D01*
X0127802Y0291197D02*
X0104890Y0291197D01*
X0105385Y0292195D02*
X0127389Y0292195D01*
X0127200Y0293194D02*
X0105600Y0293194D01*
X0105542Y0294192D02*
X0127200Y0294192D01*
X0127543Y0295191D02*
X0105243Y0295191D01*
X0104615Y0296189D02*
X0128102Y0296189D01*
X0129151Y0297188D02*
X0103306Y0297188D01*
X0074300Y0291197D02*
X0032302Y0291197D01*
X0032360Y0277217D02*
X0054324Y0277217D01*
X0055322Y0276219D02*
X0033358Y0276219D01*
X0033812Y0275220D02*
X0056321Y0275220D01*
X0057320Y0274222D02*
X0034137Y0274222D01*
X0034137Y0273223D02*
X0058318Y0273223D01*
X0059317Y0272225D02*
X0033991Y0272225D01*
X0033577Y0271226D02*
X0060315Y0271226D01*
X0061314Y0270228D02*
X0032792Y0270228D01*
X0031343Y0269229D02*
X0062312Y0269229D01*
X0092207Y0246264D02*
X0099824Y0246264D01*
X0104318Y0260243D02*
X0129016Y0260243D01*
X0128078Y0261241D02*
X0105216Y0261241D01*
X0105630Y0262240D02*
X0127601Y0262240D01*
X0134303Y0270228D02*
X0229050Y0270228D01*
X0229050Y0271226D02*
X0135210Y0271226D01*
X0135624Y0272225D02*
X0229050Y0272225D01*
X0229050Y0273223D02*
X0135800Y0273223D01*
X0135800Y0274222D02*
X0229050Y0274222D01*
X0229050Y0275220D02*
X0228953Y0275220D01*
X0226800Y0275220D02*
X0226200Y0275220D01*
X0226200Y0276219D02*
X0226800Y0276219D01*
X0226800Y0277217D02*
X0226200Y0277217D01*
X0224047Y0275220D02*
X0135444Y0275220D01*
X0134868Y0276219D02*
X0223094Y0276219D01*
X0222608Y0277217D02*
X0133777Y0277217D01*
X0132375Y0279215D02*
X0222461Y0279215D01*
X0222768Y0280213D02*
X0134288Y0280213D01*
X0135204Y0281212D02*
X0164285Y0281212D01*
X0163585Y0282210D02*
X0135617Y0282210D01*
X0135800Y0283209D02*
X0163311Y0283209D01*
X0162334Y0284207D02*
X0135800Y0284207D01*
X0135450Y0285206D02*
X0161336Y0285206D01*
X0160337Y0286204D02*
X0134883Y0286204D01*
X0133813Y0287203D02*
X0159339Y0287203D01*
X0168715Y0281212D02*
X0223407Y0281212D01*
X0228262Y0282210D02*
X0229050Y0282210D01*
X0233950Y0282210D02*
X0234205Y0282210D01*
X0233950Y0283209D02*
X0328686Y0283209D01*
X0327688Y0284207D02*
X0233950Y0284207D01*
X0233950Y0285206D02*
X0326689Y0285206D01*
X0325691Y0286204D02*
X0233950Y0286204D01*
X0233950Y0287203D02*
X0324692Y0287203D01*
X0324300Y0288201D02*
X0234660Y0288201D01*
X0235658Y0289200D02*
X0324300Y0289200D01*
X0324300Y0290198D02*
X0236657Y0290198D01*
X0237655Y0291197D02*
X0324300Y0291197D01*
X0324300Y0292195D02*
X0238654Y0292195D01*
X0239652Y0293194D02*
X0324300Y0293194D01*
X0324300Y0294192D02*
X0240651Y0294192D01*
X0241649Y0295191D02*
X0324300Y0295191D01*
X0324300Y0296189D02*
X0262308Y0296189D01*
X0263646Y0297188D02*
X0324300Y0297188D01*
X0324300Y0298186D02*
X0264645Y0298186D01*
X0265643Y0299185D02*
X0324300Y0299185D01*
X0324300Y0300183D02*
X0266642Y0300183D01*
X0268685Y0301182D02*
X0324300Y0301182D01*
X0324300Y0302180D02*
X0269402Y0302180D01*
X0269689Y0303179D02*
X0324300Y0303179D01*
X0324300Y0304177D02*
X0269674Y0304177D01*
X0269260Y0305176D02*
X0283749Y0305176D01*
X0284064Y0304861D02*
X0282855Y0306071D01*
X0282200Y0307651D01*
X0282200Y0309362D01*
X0282855Y0310942D01*
X0284064Y0312152D01*
X0285645Y0312806D01*
X0287355Y0312806D01*
X0288936Y0312152D01*
X0290145Y0310942D01*
X0290800Y0309362D01*
X0290800Y0307651D01*
X0290145Y0306071D01*
X0288936Y0304861D01*
X0287355Y0304206D01*
X0285645Y0304206D01*
X0284064Y0304861D01*
X0282812Y0306174D02*
X0268342Y0306174D01*
X0264658Y0306174D02*
X0259874Y0306174D01*
X0260007Y0306357D02*
X0260300Y0306932D01*
X0260499Y0307546D01*
X0260600Y0308184D01*
X0260600Y0308206D01*
X0256800Y0308206D01*
X0256800Y0304406D01*
X0256823Y0304406D01*
X0257460Y0304507D01*
X0258074Y0304707D01*
X0258649Y0305000D01*
X0259171Y0305379D01*
X0259627Y0305835D01*
X0260007Y0306357D01*
X0260378Y0307173D02*
X0282398Y0307173D01*
X0282200Y0308171D02*
X0260598Y0308171D01*
X0260600Y0308806D02*
X0260600Y0308829D01*
X0260499Y0309466D01*
X0260300Y0310080D01*
X0260007Y0310655D01*
X0259627Y0311177D01*
X0259171Y0311634D01*
X0258649Y0312013D01*
X0258074Y0312306D01*
X0257460Y0312505D01*
X0256823Y0312606D01*
X0256800Y0312606D01*
X0256800Y0308806D01*
X0260600Y0308806D01*
X0260546Y0309170D02*
X0282200Y0309170D01*
X0282534Y0310168D02*
X0260255Y0310168D01*
X0259635Y0311167D02*
X0283079Y0311167D01*
X0284097Y0312165D02*
X0258350Y0312165D01*
X0256800Y0312165D02*
X0256200Y0312165D01*
X0256200Y0312606D02*
X0256177Y0312606D01*
X0255540Y0312505D01*
X0254926Y0312306D01*
X0254351Y0312013D01*
X0253829Y0311634D01*
X0253373Y0311177D01*
X0252993Y0310655D01*
X0252700Y0310080D01*
X0252501Y0309466D01*
X0252400Y0308829D01*
X0252400Y0308806D01*
X0256200Y0308806D01*
X0256200Y0308206D01*
X0256800Y0308206D01*
X0256800Y0308806D01*
X0256200Y0308806D01*
X0256200Y0312606D01*
X0256200Y0311167D02*
X0256800Y0311167D01*
X0256800Y0310168D02*
X0256200Y0310168D01*
X0256200Y0309170D02*
X0256800Y0309170D01*
X0256800Y0308171D02*
X0256200Y0308171D01*
X0256200Y0308206D02*
X0256200Y0304406D01*
X0256177Y0304406D01*
X0255540Y0304507D01*
X0254926Y0304707D01*
X0254351Y0305000D01*
X0253829Y0305379D01*
X0253373Y0305835D01*
X0252993Y0306357D01*
X0252700Y0306932D01*
X0252501Y0307546D01*
X0252400Y0308184D01*
X0252400Y0308206D01*
X0256200Y0308206D01*
X0256200Y0307173D02*
X0256800Y0307173D01*
X0256800Y0306174D02*
X0256200Y0306174D01*
X0256200Y0305176D02*
X0256800Y0305176D01*
X0258891Y0305176D02*
X0263740Y0305176D01*
X0263326Y0304177D02*
X0219674Y0304177D01*
X0220292Y0303179D02*
X0262708Y0303179D01*
X0261709Y0302180D02*
X0221291Y0302180D01*
X0222289Y0301182D02*
X0260711Y0301182D01*
X0254109Y0305176D02*
X0249251Y0305176D01*
X0248936Y0304861D02*
X0250145Y0306071D01*
X0250800Y0307651D01*
X0250800Y0309362D01*
X0250145Y0310942D01*
X0248936Y0312152D01*
X0247355Y0312806D01*
X0245645Y0312806D01*
X0244064Y0312152D01*
X0242855Y0310942D01*
X0242200Y0309362D01*
X0242200Y0307651D01*
X0242855Y0306071D01*
X0244064Y0304861D01*
X0245645Y0304206D01*
X0247355Y0304206D01*
X0248936Y0304861D01*
X0250188Y0306174D02*
X0253126Y0306174D01*
X0252622Y0307173D02*
X0250602Y0307173D01*
X0250800Y0308171D02*
X0252402Y0308171D01*
X0252454Y0309170D02*
X0250800Y0309170D01*
X0250466Y0310168D02*
X0252745Y0310168D01*
X0253365Y0311167D02*
X0249921Y0311167D01*
X0248903Y0312165D02*
X0254650Y0312165D01*
X0244097Y0312165D02*
X0238903Y0312165D01*
X0239921Y0311167D02*
X0243079Y0311167D01*
X0242534Y0310168D02*
X0240466Y0310168D01*
X0240800Y0309170D02*
X0242200Y0309170D01*
X0242200Y0308171D02*
X0240800Y0308171D01*
X0240602Y0307173D02*
X0242398Y0307173D01*
X0242812Y0306174D02*
X0240188Y0306174D01*
X0239251Y0305176D02*
X0243749Y0305176D01*
X0239712Y0300183D02*
X0223288Y0300183D01*
X0224286Y0299185D02*
X0238714Y0299185D01*
X0237715Y0298186D02*
X0225285Y0298186D01*
X0226283Y0297188D02*
X0236717Y0297188D01*
X0235718Y0296189D02*
X0227282Y0296189D01*
X0228280Y0295191D02*
X0234720Y0295191D01*
X0233721Y0294192D02*
X0229279Y0294192D01*
X0230277Y0293194D02*
X0232723Y0293194D01*
X0231724Y0292195D02*
X0231276Y0292195D01*
X0238795Y0282210D02*
X0244205Y0282210D01*
X0244064Y0282152D02*
X0242855Y0280942D01*
X0242200Y0279362D01*
X0242200Y0277651D01*
X0242855Y0276071D01*
X0244064Y0274861D01*
X0245645Y0274206D01*
X0247355Y0274206D01*
X0248936Y0274861D01*
X0250145Y0276071D01*
X0250800Y0277651D01*
X0250800Y0279362D01*
X0250145Y0280942D01*
X0248936Y0282152D01*
X0247355Y0282806D01*
X0245645Y0282806D01*
X0244064Y0282152D01*
X0243124Y0281212D02*
X0239876Y0281212D01*
X0240447Y0280213D02*
X0242553Y0280213D01*
X0242200Y0279215D02*
X0240800Y0279215D01*
X0240800Y0278216D02*
X0242200Y0278216D01*
X0242380Y0277217D02*
X0240620Y0277217D01*
X0240207Y0276219D02*
X0242793Y0276219D01*
X0243705Y0275220D02*
X0239295Y0275220D01*
X0237393Y0274222D02*
X0245607Y0274222D01*
X0247393Y0274222D02*
X0255607Y0274222D01*
X0255645Y0274206D02*
X0257355Y0274206D01*
X0258936Y0274861D01*
X0260145Y0276071D01*
X0260800Y0277651D01*
X0260800Y0279362D01*
X0260145Y0280942D01*
X0258936Y0282152D01*
X0257355Y0282806D01*
X0255645Y0282806D01*
X0254064Y0282152D01*
X0252855Y0280942D01*
X0252200Y0279362D01*
X0252200Y0277651D01*
X0252855Y0276071D01*
X0254064Y0274861D01*
X0255645Y0274206D01*
X0257393Y0274222D02*
X0295607Y0274222D01*
X0295645Y0274206D02*
X0297355Y0274206D01*
X0298936Y0274861D01*
X0300145Y0276071D01*
X0300800Y0277651D01*
X0300800Y0279362D01*
X0300145Y0280942D01*
X0298936Y0282152D01*
X0297355Y0282806D01*
X0295645Y0282806D01*
X0294064Y0282152D01*
X0292855Y0280942D01*
X0292200Y0279362D01*
X0292200Y0277651D01*
X0292855Y0276071D01*
X0294064Y0274861D01*
X0295645Y0274206D01*
X0297393Y0274222D02*
X0305607Y0274222D01*
X0305645Y0274206D02*
X0307355Y0274206D01*
X0308936Y0274861D01*
X0310145Y0276071D01*
X0310800Y0277651D01*
X0310800Y0279362D01*
X0310145Y0280942D01*
X0308936Y0282152D01*
X0307355Y0282806D01*
X0305645Y0282806D01*
X0304064Y0282152D01*
X0302855Y0280942D01*
X0302200Y0279362D01*
X0302200Y0277651D01*
X0302855Y0276071D01*
X0304064Y0274861D01*
X0305645Y0274206D01*
X0307393Y0274222D02*
X0315607Y0274222D01*
X0315645Y0274206D02*
X0317355Y0274206D01*
X0318936Y0274861D01*
X0320145Y0276071D01*
X0320800Y0277651D01*
X0320800Y0279362D01*
X0320145Y0280942D01*
X0318936Y0282152D01*
X0317355Y0282806D01*
X0315645Y0282806D01*
X0314064Y0282152D01*
X0312855Y0280942D01*
X0312200Y0279362D01*
X0312200Y0277651D01*
X0312855Y0276071D01*
X0314064Y0274861D01*
X0315645Y0274206D01*
X0317393Y0274222D02*
X0337673Y0274222D01*
X0336675Y0275220D02*
X0319295Y0275220D01*
X0320207Y0276219D02*
X0335676Y0276219D01*
X0334678Y0277217D02*
X0320620Y0277217D01*
X0320800Y0278216D02*
X0333679Y0278216D01*
X0332680Y0279215D02*
X0320800Y0279215D01*
X0320447Y0280213D02*
X0331682Y0280213D01*
X0330683Y0281212D02*
X0319876Y0281212D01*
X0318795Y0282210D02*
X0329685Y0282210D01*
X0338672Y0273223D02*
X0233950Y0273223D01*
X0233950Y0272225D02*
X0339670Y0272225D01*
X0340669Y0271226D02*
X0303266Y0271226D01*
X0304239Y0270228D02*
X0341667Y0270228D01*
X0342666Y0269229D02*
X0304652Y0269229D01*
X0305240Y0268231D02*
X0343664Y0268231D01*
X0344663Y0267232D02*
X0306239Y0267232D01*
X0307237Y0266234D02*
X0345661Y0266234D01*
X0346660Y0265235D02*
X0308236Y0265235D01*
X0309234Y0264237D02*
X0347658Y0264237D01*
X0348657Y0263238D02*
X0310001Y0263238D01*
X0310210Y0262240D02*
X0349655Y0262240D01*
X0350654Y0261241D02*
X0310210Y0261241D01*
X0310210Y0260243D02*
X0351652Y0260243D01*
X0352651Y0259244D02*
X0310210Y0259244D01*
X0310210Y0258246D02*
X0353649Y0258246D01*
X0354648Y0257247D02*
X0310210Y0257247D01*
X0310210Y0256249D02*
X0354672Y0256249D01*
X0354201Y0255250D02*
X0310210Y0255250D01*
X0310210Y0254252D02*
X0353863Y0254252D01*
X0353863Y0253253D02*
X0310210Y0253253D01*
X0310210Y0252255D02*
X0353997Y0252255D01*
X0354410Y0251256D02*
X0310210Y0251256D01*
X0310210Y0250258D02*
X0355178Y0250258D01*
X0356586Y0249259D02*
X0310210Y0249259D01*
X0310210Y0248261D02*
X0442000Y0248261D01*
X0442000Y0249259D02*
X0366414Y0249259D01*
X0365397Y0248175D02*
X0357603Y0248175D01*
X0355887Y0247464D01*
X0354574Y0246151D01*
X0353863Y0244435D01*
X0353863Y0242578D01*
X0354574Y0240862D01*
X0355887Y0239549D01*
X0357603Y0238838D01*
X0365397Y0238838D01*
X0367113Y0239549D01*
X0368426Y0240862D01*
X0369137Y0242578D01*
X0369137Y0244435D01*
X0368426Y0246151D01*
X0367113Y0247464D01*
X0365397Y0248175D01*
X0367315Y0247262D02*
X0442000Y0247262D01*
X0442000Y0246264D02*
X0368313Y0246264D01*
X0368793Y0245265D02*
X0442000Y0245265D01*
X0442000Y0244267D02*
X0369137Y0244267D01*
X0369137Y0243268D02*
X0442000Y0243268D01*
X0442000Y0242270D02*
X0369009Y0242270D01*
X0368596Y0241271D02*
X0442000Y0241271D01*
X0442000Y0240273D02*
X0367837Y0240273D01*
X0356550Y0239274D02*
X0310242Y0239274D01*
X0310210Y0240273D02*
X0355163Y0240273D01*
X0354404Y0241271D02*
X0310210Y0241271D01*
X0310210Y0242270D02*
X0353991Y0242270D01*
X0353863Y0243268D02*
X0310210Y0243268D01*
X0310210Y0244267D02*
X0353863Y0244267D01*
X0354207Y0245265D02*
X0310210Y0245265D01*
X0310210Y0246264D02*
X0354687Y0246264D01*
X0355685Y0247262D02*
X0310210Y0247262D01*
X0305300Y0261241D02*
X0238745Y0261241D01*
X0239427Y0262240D02*
X0304302Y0262240D01*
X0303303Y0263238D02*
X0239697Y0263238D01*
X0240695Y0264237D02*
X0302305Y0264237D01*
X0301306Y0265235D02*
X0241694Y0265235D01*
X0237760Y0268231D02*
X0233950Y0268231D01*
X0233950Y0269229D02*
X0238348Y0269229D01*
X0238761Y0270228D02*
X0233950Y0270228D01*
X0233950Y0271226D02*
X0239734Y0271226D01*
X0243266Y0271226D02*
X0299734Y0271226D01*
X0299295Y0275220D02*
X0303705Y0275220D01*
X0302793Y0276219D02*
X0300207Y0276219D01*
X0300620Y0277217D02*
X0302380Y0277217D01*
X0302200Y0278216D02*
X0300800Y0278216D01*
X0300800Y0279215D02*
X0302200Y0279215D01*
X0302553Y0280213D02*
X0300447Y0280213D01*
X0299876Y0281212D02*
X0303124Y0281212D01*
X0304205Y0282210D02*
X0298795Y0282210D01*
X0294205Y0282210D02*
X0288262Y0282210D01*
X0288074Y0282306D02*
X0287460Y0282505D01*
X0286823Y0282606D01*
X0286800Y0282606D01*
X0286800Y0278806D01*
X0290600Y0278806D01*
X0290600Y0278829D01*
X0290499Y0279466D01*
X0290300Y0280080D01*
X0290007Y0280655D01*
X0289627Y0281177D01*
X0289171Y0281634D01*
X0288649Y0282013D01*
X0288074Y0282306D01*
X0286800Y0282210D02*
X0286200Y0282210D01*
X0286200Y0282606D02*
X0286177Y0282606D01*
X0285540Y0282505D01*
X0284926Y0282306D01*
X0284351Y0282013D01*
X0283829Y0281634D01*
X0283373Y0281177D01*
X0282993Y0280655D01*
X0282700Y0280080D01*
X0282501Y0279466D01*
X0282400Y0278829D01*
X0282400Y0278806D01*
X0286200Y0278806D01*
X0286200Y0278206D01*
X0286800Y0278206D01*
X0286800Y0274406D01*
X0286823Y0274406D01*
X0287460Y0274507D01*
X0288074Y0274707D01*
X0288649Y0275000D01*
X0289171Y0275379D01*
X0289627Y0275835D01*
X0290007Y0276357D01*
X0290300Y0276932D01*
X0290499Y0277546D01*
X0290600Y0278184D01*
X0290600Y0278206D01*
X0286800Y0278206D01*
X0286800Y0278806D01*
X0286200Y0278806D01*
X0286200Y0282606D01*
X0286200Y0281212D02*
X0286800Y0281212D01*
X0286800Y0280213D02*
X0286200Y0280213D01*
X0286200Y0279215D02*
X0286800Y0279215D01*
X0286800Y0278216D02*
X0292200Y0278216D01*
X0292200Y0279215D02*
X0290539Y0279215D01*
X0290232Y0280213D02*
X0292553Y0280213D01*
X0293124Y0281212D02*
X0289593Y0281212D01*
X0290392Y0277217D02*
X0292380Y0277217D01*
X0292793Y0276219D02*
X0289906Y0276219D01*
X0288953Y0275220D02*
X0293705Y0275220D01*
X0286800Y0275220D02*
X0286200Y0275220D01*
X0286200Y0274406D02*
X0286200Y0278206D01*
X0282400Y0278206D01*
X0282400Y0278184D01*
X0282501Y0277546D01*
X0282700Y0276932D01*
X0282993Y0276357D01*
X0283373Y0275835D01*
X0283829Y0275379D01*
X0284351Y0275000D01*
X0284926Y0274707D01*
X0285540Y0274507D01*
X0286177Y0274406D01*
X0286200Y0274406D01*
X0286200Y0276219D02*
X0286800Y0276219D01*
X0286800Y0277217D02*
X0286200Y0277217D01*
X0286200Y0278216D02*
X0260800Y0278216D01*
X0260800Y0279215D02*
X0282461Y0279215D01*
X0282768Y0280213D02*
X0260447Y0280213D01*
X0259876Y0281212D02*
X0283407Y0281212D01*
X0284738Y0282210D02*
X0258795Y0282210D01*
X0254205Y0282210D02*
X0248795Y0282210D01*
X0249876Y0281212D02*
X0253124Y0281212D01*
X0252553Y0280213D02*
X0250447Y0280213D01*
X0250800Y0279215D02*
X0252200Y0279215D01*
X0252200Y0278216D02*
X0250800Y0278216D01*
X0250620Y0277217D02*
X0252380Y0277217D01*
X0252793Y0276219D02*
X0250207Y0276219D01*
X0249295Y0275220D02*
X0253705Y0275220D01*
X0259295Y0275220D02*
X0284047Y0275220D01*
X0283094Y0276219D02*
X0260207Y0276219D01*
X0260620Y0277217D02*
X0282608Y0277217D01*
X0263444Y0256249D02*
X0233950Y0256249D01*
X0233950Y0255250D02*
X0262787Y0255250D01*
X0262467Y0254252D02*
X0233950Y0254252D01*
X0233950Y0247262D02*
X0264331Y0247262D01*
X0263176Y0246264D02*
X0233950Y0246264D01*
X0233950Y0245265D02*
X0262574Y0245265D01*
X0262200Y0244267D02*
X0233950Y0244267D01*
X0233950Y0243268D02*
X0262200Y0243268D01*
X0262358Y0242270D02*
X0233950Y0242270D01*
X0233950Y0241271D02*
X0262772Y0241271D01*
X0263653Y0240273D02*
X0233950Y0240273D01*
X0234416Y0237277D02*
X0264367Y0237277D01*
X0297555Y0229289D02*
X0304606Y0229289D01*
X0303608Y0230287D02*
X0299362Y0230287D01*
X0300235Y0231286D02*
X0301210Y0231286D01*
X0299511Y0226293D02*
X0309203Y0226293D01*
X0311500Y0213506D02*
X0361500Y0213506D01*
X0356442Y0209319D02*
X0310424Y0209319D01*
X0311422Y0210317D02*
X0355118Y0210317D01*
X0356370Y0189348D02*
X0296200Y0189348D01*
X0295695Y0186353D02*
X0355076Y0186353D01*
X0354458Y0185354D02*
X0294995Y0185354D01*
X0293762Y0184356D02*
X0354142Y0184356D01*
X0361016Y0181360D02*
X0361984Y0181360D01*
X0361984Y0180362D02*
X0361016Y0180362D01*
X0361016Y0179363D02*
X0361984Y0179363D01*
X0311500Y0213506D02*
X0291500Y0193506D01*
X0291200Y0196918D02*
X0291200Y0196918D01*
X0290781Y0197337D02*
X0292219Y0197337D01*
X0288736Y0162389D02*
X0283792Y0162389D01*
X0284967Y0161390D02*
X0287737Y0161390D01*
X0287194Y0160392D02*
X0285590Y0160392D01*
X0285916Y0159393D02*
X0286800Y0159393D01*
X0281800Y0160392D02*
X0281200Y0160392D01*
X0281200Y0161390D02*
X0281800Y0161390D01*
X0281800Y0162389D02*
X0281200Y0162389D01*
X0279208Y0162389D02*
X0273792Y0162389D01*
X0274967Y0161390D02*
X0278033Y0161390D01*
X0277410Y0160392D02*
X0275590Y0160392D01*
X0275916Y0159393D02*
X0277084Y0159393D01*
X0277129Y0157396D02*
X0275871Y0157396D01*
X0275476Y0156398D02*
X0277524Y0156398D01*
X0278243Y0155399D02*
X0274757Y0155399D01*
X0273354Y0154401D02*
X0279646Y0154401D01*
X0281200Y0154401D02*
X0281800Y0154401D01*
X0281800Y0155399D02*
X0281200Y0155399D01*
X0281200Y0156398D02*
X0281800Y0156398D01*
X0281800Y0157396D02*
X0281200Y0157396D01*
X0268243Y0155399D02*
X0266200Y0155399D01*
X0266200Y0156398D02*
X0267524Y0156398D01*
X0267129Y0157396D02*
X0266200Y0157396D01*
X0261500Y0158506D02*
X0261500Y0133506D01*
X0214130Y0154401D02*
X0208354Y0154401D01*
X0206800Y0154401D02*
X0206200Y0154401D01*
X0206200Y0155399D02*
X0206800Y0155399D01*
X0206800Y0156398D02*
X0206200Y0156398D01*
X0206200Y0157396D02*
X0206800Y0157396D01*
X0206200Y0158806D02*
X0202000Y0158806D01*
X0202000Y0158860D01*
X0202111Y0159560D01*
X0202330Y0160234D01*
X0202651Y0160865D01*
X0203068Y0161438D01*
X0203568Y0161939D01*
X0204141Y0162355D01*
X0204773Y0162677D01*
X0205446Y0162895D01*
X0206146Y0163006D01*
X0206200Y0163006D01*
X0206200Y0158806D01*
X0206200Y0159393D02*
X0206800Y0159393D01*
X0206800Y0160392D02*
X0206200Y0160392D01*
X0206200Y0161390D02*
X0206800Y0161390D01*
X0206800Y0162389D02*
X0206200Y0162389D01*
X0204208Y0162389D02*
X0199264Y0162389D01*
X0200263Y0161390D02*
X0203033Y0161390D01*
X0202410Y0160392D02*
X0200806Y0160392D01*
X0201200Y0159393D02*
X0202084Y0159393D01*
X0209757Y0155399D02*
X0212960Y0155399D01*
X0212286Y0156398D02*
X0210476Y0156398D01*
X0210871Y0157396D02*
X0211873Y0157396D01*
X0199516Y0118454D02*
X0173484Y0118454D01*
X0173996Y0117456D02*
X0199004Y0117456D01*
X0198590Y0116457D02*
X0174410Y0116457D01*
X0174823Y0115459D02*
X0198177Y0115459D01*
X0198063Y0114460D02*
X0174937Y0114460D01*
X0174937Y0113462D02*
X0198063Y0113462D01*
X0198063Y0112463D02*
X0174937Y0112463D01*
X0174786Y0111465D02*
X0198214Y0111465D01*
X0198627Y0110466D02*
X0174373Y0110466D01*
X0173959Y0109468D02*
X0199041Y0109468D01*
X0199605Y0108469D02*
X0173395Y0108469D01*
X0172396Y0107471D02*
X0200604Y0107471D01*
X0201603Y0106472D02*
X0171397Y0106472D01*
X0169154Y0105474D02*
X0203846Y0105474D01*
X0163846Y0105474D02*
X0134154Y0105474D01*
X0133178Y0105069D02*
X0136279Y0106354D01*
X0138653Y0108727D01*
X0139937Y0111828D01*
X0139937Y0115185D01*
X0138653Y0118285D01*
X0136279Y0120659D01*
X0133178Y0121943D01*
X0129822Y0121943D01*
X0126721Y0120659D01*
X0124347Y0118285D01*
X0123063Y0115185D01*
X0123063Y0111828D01*
X0124347Y0108727D01*
X0126721Y0106354D01*
X0129822Y0105069D01*
X0133178Y0105069D01*
X0136397Y0106472D02*
X0161603Y0106472D01*
X0160604Y0107471D02*
X0137396Y0107471D01*
X0138395Y0108469D02*
X0159605Y0108469D01*
X0159041Y0109468D02*
X0138959Y0109468D01*
X0139373Y0110466D02*
X0158627Y0110466D01*
X0158214Y0111465D02*
X0139786Y0111465D01*
X0139937Y0112463D02*
X0158063Y0112463D01*
X0158063Y0113462D02*
X0139937Y0113462D01*
X0139937Y0114460D02*
X0158063Y0114460D01*
X0158177Y0115459D02*
X0139823Y0115459D01*
X0139410Y0116457D02*
X0158590Y0116457D01*
X0159004Y0117456D02*
X0138996Y0117456D01*
X0138484Y0118454D02*
X0159516Y0118454D01*
X0160515Y0119453D02*
X0137485Y0119453D01*
X0136487Y0120451D02*
X0161513Y0120451D01*
X0163630Y0121450D02*
X0134370Y0121450D01*
X0128630Y0121450D02*
X0094370Y0121450D01*
X0093178Y0121943D02*
X0089822Y0121943D01*
X0086721Y0120659D01*
X0084347Y0118285D01*
X0083063Y0115185D01*
X0083063Y0111828D01*
X0084347Y0108727D01*
X0086721Y0106354D01*
X0089822Y0105069D01*
X0093178Y0105069D01*
X0096279Y0106354D01*
X0098653Y0108727D01*
X0099937Y0111828D01*
X0099937Y0115185D01*
X0098653Y0118285D01*
X0096279Y0120659D01*
X0093178Y0121943D01*
X0096487Y0120451D02*
X0126513Y0120451D01*
X0125515Y0119453D02*
X0097485Y0119453D01*
X0098484Y0118454D02*
X0124516Y0118454D01*
X0124004Y0117456D02*
X0098996Y0117456D01*
X0099410Y0116457D02*
X0123590Y0116457D01*
X0123177Y0115459D02*
X0099823Y0115459D01*
X0099937Y0114460D02*
X0123063Y0114460D01*
X0123063Y0113462D02*
X0099937Y0113462D01*
X0099937Y0112463D02*
X0123063Y0112463D01*
X0123214Y0111465D02*
X0099786Y0111465D01*
X0099373Y0110466D02*
X0123627Y0110466D01*
X0124041Y0109468D02*
X0098959Y0109468D01*
X0098395Y0108469D02*
X0124605Y0108469D01*
X0125604Y0107471D02*
X0097396Y0107471D01*
X0096397Y0106472D02*
X0126603Y0106472D01*
X0128846Y0105474D02*
X0094154Y0105474D01*
X0088846Y0105474D02*
X0059154Y0105474D01*
X0058178Y0105069D02*
X0061279Y0106354D01*
X0063653Y0108727D01*
X0064937Y0111828D01*
X0064937Y0115185D01*
X0063653Y0118285D01*
X0061279Y0120659D01*
X0058178Y0121943D01*
X0054822Y0121943D01*
X0051721Y0120659D01*
X0049347Y0118285D01*
X0048063Y0115185D01*
X0048063Y0111828D01*
X0049347Y0108727D01*
X0051721Y0106354D01*
X0054822Y0105069D01*
X0058178Y0105069D01*
X0061397Y0106472D02*
X0086603Y0106472D01*
X0085604Y0107471D02*
X0062396Y0107471D01*
X0063395Y0108469D02*
X0084605Y0108469D01*
X0084041Y0109468D02*
X0063959Y0109468D01*
X0064373Y0110466D02*
X0083627Y0110466D01*
X0083214Y0111465D02*
X0064786Y0111465D01*
X0064937Y0112463D02*
X0083063Y0112463D01*
X0083063Y0113462D02*
X0064937Y0113462D01*
X0064937Y0114460D02*
X0083063Y0114460D01*
X0083177Y0115459D02*
X0064823Y0115459D01*
X0064410Y0116457D02*
X0083590Y0116457D01*
X0084004Y0117456D02*
X0063996Y0117456D01*
X0063484Y0118454D02*
X0084516Y0118454D01*
X0085515Y0119453D02*
X0062485Y0119453D01*
X0061487Y0120451D02*
X0086513Y0120451D01*
X0088630Y0121450D02*
X0059370Y0121450D01*
X0053630Y0121450D02*
X0019370Y0121450D01*
X0021487Y0120451D02*
X0051513Y0120451D01*
X0050515Y0119453D02*
X0022485Y0119453D01*
X0023484Y0118454D02*
X0049516Y0118454D01*
X0049004Y0117456D02*
X0023996Y0117456D01*
X0024410Y0116457D02*
X0048590Y0116457D01*
X0048177Y0115459D02*
X0024823Y0115459D01*
X0024937Y0114460D02*
X0048063Y0114460D01*
X0048063Y0113462D02*
X0024937Y0113462D01*
X0024937Y0112463D02*
X0048063Y0112463D01*
X0048214Y0111465D02*
X0024786Y0111465D01*
X0024373Y0110466D02*
X0048627Y0110466D01*
X0049041Y0109468D02*
X0023959Y0109468D01*
X0023395Y0108469D02*
X0049605Y0108469D01*
X0050604Y0107471D02*
X0022396Y0107471D01*
X0021397Y0106472D02*
X0051603Y0106472D01*
X0053846Y0105474D02*
X0019154Y0105474D01*
X0006000Y0129438D02*
X0034637Y0129438D01*
X0033967Y0129715D02*
X0035611Y0129035D01*
X0037389Y0129035D01*
X0039033Y0129715D01*
X0040291Y0130973D01*
X0040972Y0132617D01*
X0040972Y0134396D01*
X0040291Y0136039D01*
X0039033Y0137297D01*
X0037389Y0137978D01*
X0035611Y0137978D01*
X0033967Y0137297D01*
X0032709Y0136039D01*
X0032028Y0134396D01*
X0032028Y0132617D01*
X0032709Y0130973D01*
X0033967Y0129715D01*
X0033246Y0130436D02*
X0006000Y0130436D01*
X0006000Y0131435D02*
X0032518Y0131435D01*
X0032104Y0132433D02*
X0006000Y0132433D01*
X0006000Y0133432D02*
X0032028Y0133432D01*
X0032043Y0134430D02*
X0006000Y0134430D01*
X0006000Y0135429D02*
X0032456Y0135429D01*
X0033097Y0136427D02*
X0006000Y0136427D01*
X0006000Y0137426D02*
X0034278Y0137426D01*
X0038722Y0137426D02*
X0044784Y0137426D01*
X0044860Y0137465D02*
X0044261Y0137160D01*
X0043717Y0136765D01*
X0043242Y0136289D01*
X0042847Y0135745D01*
X0042541Y0135146D01*
X0042334Y0134507D01*
X0042236Y0133892D01*
X0046114Y0133892D01*
X0046114Y0133120D01*
X0046886Y0133120D01*
X0046886Y0129243D01*
X0047500Y0129340D01*
X0048140Y0129548D01*
X0048739Y0129853D01*
X0049283Y0130248D01*
X0049758Y0130723D01*
X0050153Y0131267D01*
X0050459Y0131867D01*
X0050666Y0132506D01*
X0050764Y0133120D01*
X0046886Y0133120D01*
X0046886Y0133892D01*
X0050764Y0133892D01*
X0050666Y0134507D01*
X0050459Y0135146D01*
X0050153Y0135745D01*
X0049758Y0136289D01*
X0049283Y0136765D01*
X0048739Y0137160D01*
X0048140Y0137465D01*
X0047500Y0137673D01*
X0046886Y0137770D01*
X0046886Y0133892D01*
X0046114Y0133892D01*
X0046114Y0137770D01*
X0045500Y0137673D01*
X0044860Y0137465D01*
X0046114Y0137426D02*
X0046886Y0137426D01*
X0046886Y0136427D02*
X0046114Y0136427D01*
X0046114Y0135429D02*
X0046886Y0135429D01*
X0046886Y0134430D02*
X0046114Y0134430D01*
X0046114Y0133432D02*
X0040972Y0133432D01*
X0040957Y0134430D02*
X0042321Y0134430D01*
X0042685Y0135429D02*
X0040544Y0135429D01*
X0039903Y0136427D02*
X0043380Y0136427D01*
X0042236Y0133120D02*
X0042334Y0132506D01*
X0042541Y0131867D01*
X0042847Y0131267D01*
X0043242Y0130723D01*
X0043717Y0130248D01*
X0044261Y0129853D01*
X0044860Y0129548D01*
X0045500Y0129340D01*
X0046114Y0129243D01*
X0046114Y0133120D01*
X0042236Y0133120D01*
X0042357Y0132433D02*
X0040896Y0132433D01*
X0040482Y0131435D02*
X0042761Y0131435D01*
X0043529Y0130436D02*
X0039754Y0130436D01*
X0038363Y0129438D02*
X0045198Y0129438D01*
X0046114Y0129438D02*
X0046886Y0129438D01*
X0047802Y0129438D02*
X0109637Y0129438D01*
X0108246Y0130436D02*
X0049471Y0130436D01*
X0050239Y0131435D02*
X0107518Y0131435D01*
X0107104Y0132433D02*
X0050643Y0132433D01*
X0050679Y0134430D02*
X0107043Y0134430D01*
X0107028Y0133432D02*
X0046886Y0133432D01*
X0046886Y0132433D02*
X0046114Y0132433D01*
X0046114Y0131435D02*
X0046886Y0131435D01*
X0046886Y0130436D02*
X0046114Y0130436D01*
X0050315Y0135429D02*
X0107456Y0135429D01*
X0108097Y0136427D02*
X0049620Y0136427D01*
X0048216Y0137426D02*
X0109278Y0137426D01*
X0109300Y0138424D02*
X0006000Y0138424D01*
X0006000Y0139423D02*
X0109300Y0139423D01*
X0109300Y0140421D02*
X0006000Y0140421D01*
X0006000Y0141420D02*
X0109300Y0141420D01*
X0109300Y0142418D02*
X0006000Y0142418D01*
X0006000Y0143417D02*
X0109300Y0143417D01*
X0109300Y0144415D02*
X0006000Y0144415D01*
X0006000Y0145414D02*
X0109300Y0145414D01*
X0109300Y0146413D02*
X0006000Y0146413D01*
X0006000Y0147411D02*
X0109300Y0147411D01*
X0108485Y0148410D02*
X0006000Y0148410D01*
X0006000Y0149408D02*
X0107487Y0149408D01*
X0106488Y0150407D02*
X0006000Y0150407D01*
X0006000Y0151405D02*
X0045490Y0151405D01*
X0044491Y0152404D02*
X0006000Y0152404D01*
X0006000Y0153402D02*
X0043493Y0153402D01*
X0042494Y0154401D02*
X0006000Y0154401D01*
X0006000Y0155399D02*
X0041496Y0155399D01*
X0081500Y0198506D02*
X0091500Y0208506D01*
X0107718Y0155399D02*
X0115282Y0155399D01*
X0114283Y0154401D02*
X0108717Y0154401D01*
X0109715Y0153402D02*
X0113285Y0153402D01*
X0112286Y0152404D02*
X0110714Y0152404D01*
X0111500Y0148506D02*
X0111500Y0133506D01*
X0188248Y0266234D02*
X0214752Y0266234D01*
X0233950Y0266234D02*
X0234752Y0266234D01*
X0233950Y0267232D02*
X0236761Y0267232D01*
X0235607Y0274222D02*
X0233950Y0274222D01*
X0222200Y0308171D02*
X0035405Y0308171D01*
X0035583Y0309170D02*
X0222200Y0309170D01*
X0222534Y0310168D02*
X0037450Y0310168D01*
X0038292Y0311167D02*
X0223079Y0311167D01*
X0224097Y0312165D02*
X0038731Y0312165D01*
X0031984Y0312165D02*
X0031016Y0312165D01*
X0031016Y0311167D02*
X0031984Y0311167D01*
X0031984Y0310168D02*
X0031016Y0310168D01*
X0031016Y0309170D02*
X0031984Y0309170D01*
X0031984Y0314162D02*
X0031016Y0314162D01*
X0031016Y0315161D02*
X0031984Y0315161D01*
X0031984Y0316159D02*
X0031016Y0316159D01*
X0031016Y0317158D02*
X0031984Y0317158D01*
X0006000Y0330139D02*
X0216756Y0330139D01*
X0215758Y0331137D02*
X0006000Y0331137D01*
X0006000Y0332136D02*
X0214759Y0332136D01*
X0213761Y0333134D02*
X0006000Y0333134D01*
X0006000Y0334133D02*
X0212762Y0334133D01*
X0215989Y0337128D02*
X0217225Y0337128D01*
X0217225Y0336130D02*
X0216988Y0336130D01*
X0221500Y0338506D02*
X0236500Y0323506D01*
X0321500Y0323506D01*
X0331500Y0313506D01*
X0331500Y0293506D01*
X0361500Y0263506D01*
X0359887Y0268231D02*
X0442000Y0268231D01*
X0442000Y0279215D02*
X0366307Y0279215D01*
X0367777Y0280213D02*
X0442000Y0280213D01*
X0442000Y0281212D02*
X0368571Y0281212D01*
X0368985Y0282210D02*
X0442000Y0282210D01*
X0442000Y0283209D02*
X0369137Y0283209D01*
X0369137Y0284207D02*
X0442000Y0284207D01*
X0442000Y0285206D02*
X0368818Y0285206D01*
X0368373Y0286204D02*
X0442000Y0286204D01*
X0442000Y0287203D02*
X0367374Y0287203D01*
X0355626Y0287203D02*
X0350915Y0287203D01*
X0349916Y0288201D02*
X0442000Y0288201D01*
X0442000Y0289200D02*
X0348918Y0289200D01*
X0347919Y0290198D02*
X0442000Y0290198D01*
X0442000Y0291197D02*
X0346921Y0291197D01*
X0345922Y0292195D02*
X0442000Y0292195D01*
X0442000Y0293194D02*
X0344924Y0293194D01*
X0343925Y0294192D02*
X0442000Y0294192D01*
X0442000Y0295191D02*
X0342927Y0295191D01*
X0341928Y0296189D02*
X0442000Y0296189D01*
X0442000Y0297188D02*
X0340930Y0297188D01*
X0339931Y0298186D02*
X0442000Y0298186D01*
X0442000Y0299185D02*
X0338933Y0299185D01*
X0338700Y0300183D02*
X0442000Y0300183D01*
X0442000Y0301182D02*
X0338700Y0301182D01*
X0338700Y0302180D02*
X0442000Y0302180D01*
X0442000Y0303179D02*
X0338700Y0303179D01*
X0338700Y0304177D02*
X0442000Y0304177D01*
X0442000Y0305176D02*
X0338700Y0305176D01*
X0338700Y0306174D02*
X0442000Y0306174D01*
X0442000Y0307173D02*
X0338700Y0307173D01*
X0338700Y0308171D02*
X0442000Y0308171D01*
X0442000Y0309170D02*
X0338700Y0309170D01*
X0338700Y0310168D02*
X0442000Y0310168D01*
X0442000Y0311167D02*
X0338700Y0311167D01*
X0338700Y0312165D02*
X0442000Y0312165D01*
X0442000Y0313164D02*
X0338700Y0313164D01*
X0338700Y0314162D02*
X0442000Y0314162D01*
X0442000Y0315161D02*
X0338700Y0315161D01*
X0338700Y0316159D02*
X0442000Y0316159D01*
X0442000Y0317158D02*
X0338700Y0317158D01*
X0338700Y0318156D02*
X0442000Y0318156D01*
X0442000Y0319155D02*
X0338700Y0319155D01*
X0337964Y0320153D02*
X0442000Y0320153D01*
X0442000Y0321152D02*
X0336966Y0321152D01*
X0335967Y0322151D02*
X0442000Y0322151D01*
X0442000Y0323149D02*
X0334969Y0323149D01*
X0333970Y0324148D02*
X0442000Y0324148D01*
X0442000Y0325146D02*
X0332972Y0325146D01*
X0331973Y0326145D02*
X0442000Y0326145D01*
X0442000Y0327143D02*
X0330974Y0327143D01*
X0329976Y0328142D02*
X0442000Y0328142D01*
X0442000Y0329140D02*
X0328977Y0329140D01*
X0327979Y0330139D02*
X0442000Y0330139D01*
X0442000Y0331137D02*
X0241980Y0331137D01*
X0240982Y0332136D02*
X0442000Y0332136D01*
X0442000Y0333134D02*
X0239983Y0333134D01*
X0238985Y0334133D02*
X0442000Y0334133D01*
X0442000Y0335131D02*
X0245679Y0335131D01*
X0245775Y0336130D02*
X0442000Y0336130D01*
X0442000Y0337128D02*
X0245775Y0337128D01*
X0245775Y0338127D02*
X0442000Y0338127D01*
X0442000Y0339125D02*
X0245775Y0339125D01*
X0245775Y0340124D02*
X0442000Y0340124D01*
X0442000Y0341122D02*
X0245775Y0341122D01*
X0245439Y0342121D02*
X0442000Y0342121D01*
X0442000Y0343119D02*
X0099800Y0343119D01*
X0099800Y0342512D02*
X0099800Y0344501D01*
X0099039Y0346339D01*
X0097632Y0347745D01*
X0095795Y0348506D01*
X0087205Y0348506D01*
X0085368Y0347745D01*
X0083961Y0346339D01*
X0083200Y0344501D01*
X0083200Y0342512D01*
X0083961Y0340674D01*
X0085368Y0339268D01*
X0087205Y0338506D01*
X0095795Y0338506D01*
X0097632Y0339268D01*
X0099039Y0340674D01*
X0099800Y0342512D01*
X0099638Y0342121D02*
X0147561Y0342121D01*
X0147225Y0341785D02*
X0147225Y0335227D01*
X0148221Y0334231D01*
X0154779Y0334231D01*
X0155775Y0335227D01*
X0155775Y0341785D01*
X0154779Y0342781D01*
X0148221Y0342781D01*
X0147225Y0341785D01*
X0147225Y0341122D02*
X0099224Y0341122D01*
X0098488Y0340124D02*
X0147225Y0340124D01*
X0147225Y0339125D02*
X0097289Y0339125D01*
X0099800Y0344118D02*
X0442000Y0344118D01*
X0442000Y0345116D02*
X0245664Y0345116D01*
X0245775Y0345227D02*
X0245775Y0351785D01*
X0244779Y0352781D01*
X0238221Y0352781D01*
X0237225Y0351785D01*
X0237225Y0345227D01*
X0238221Y0344231D01*
X0244779Y0344231D01*
X0245775Y0345227D01*
X0245775Y0346115D02*
X0442000Y0346115D01*
X0442000Y0347113D02*
X0245775Y0347113D01*
X0245775Y0348112D02*
X0442000Y0348112D01*
X0442000Y0349110D02*
X0245775Y0349110D01*
X0245775Y0350109D02*
X0442000Y0350109D01*
X0442000Y0351107D02*
X0245775Y0351107D01*
X0245454Y0352106D02*
X0442000Y0352106D01*
X0442000Y0353104D02*
X0092000Y0353104D01*
X0092000Y0353006D02*
X0092000Y0354006D01*
X0099581Y0354006D01*
X0099482Y0354630D01*
X0099248Y0355349D01*
X0098905Y0356022D01*
X0098461Y0356633D01*
X0097927Y0357168D01*
X0097316Y0357612D01*
X0096643Y0357955D01*
X0095924Y0358188D01*
X0095178Y0358306D01*
X0092000Y0358306D01*
X0092000Y0354006D01*
X0091000Y0354006D01*
X0091000Y0353006D01*
X0092000Y0353006D01*
X0092000Y0348706D01*
X0095178Y0348706D01*
X0095924Y0348824D01*
X0096643Y0349058D01*
X0097316Y0349401D01*
X0097927Y0349845D01*
X0098461Y0350379D01*
X0098905Y0350991D01*
X0099248Y0351664D01*
X0099482Y0352382D01*
X0099581Y0353006D01*
X0092000Y0353006D01*
X0092000Y0352106D02*
X0091000Y0352106D01*
X0091000Y0353006D02*
X0091000Y0348706D01*
X0087822Y0348706D01*
X0087076Y0348824D01*
X0086357Y0349058D01*
X0085684Y0349401D01*
X0085073Y0349845D01*
X0084539Y0350379D01*
X0084095Y0350991D01*
X0083752Y0351664D01*
X0083518Y0352382D01*
X0083419Y0353006D01*
X0091000Y0353006D01*
X0091000Y0353104D02*
X0044200Y0353104D01*
X0044200Y0352106D02*
X0083608Y0352106D01*
X0084035Y0351107D02*
X0043970Y0351107D01*
X0044200Y0351966D02*
X0043403Y0348990D01*
X0041862Y0346322D01*
X0039684Y0344144D01*
X0037016Y0342604D01*
X0034040Y0341806D01*
X0030960Y0341806D01*
X0027984Y0342604D01*
X0025316Y0344144D01*
X0023138Y0346322D01*
X0021597Y0348990D01*
X0020800Y0351966D01*
X0020800Y0355047D01*
X0021597Y0358022D01*
X0023138Y0360690D01*
X0025316Y0362869D01*
X0027984Y0364409D01*
X0030960Y0365206D01*
X0034040Y0365206D01*
X0037016Y0364409D01*
X0039684Y0362869D01*
X0041862Y0360690D01*
X0043403Y0358022D01*
X0044200Y0355047D01*
X0044200Y0351966D01*
X0043702Y0350109D02*
X0084809Y0350109D01*
X0086255Y0349110D02*
X0043435Y0349110D01*
X0042895Y0348112D02*
X0086253Y0348112D01*
X0084736Y0347113D02*
X0042319Y0347113D01*
X0041655Y0346115D02*
X0083869Y0346115D01*
X0083455Y0345116D02*
X0040656Y0345116D01*
X0039639Y0344118D02*
X0083200Y0344118D01*
X0083200Y0343119D02*
X0037909Y0343119D01*
X0035214Y0342121D02*
X0083362Y0342121D01*
X0083776Y0341122D02*
X0006000Y0341122D01*
X0006000Y0340124D02*
X0084512Y0340124D01*
X0085711Y0339125D02*
X0006000Y0339125D01*
X0006000Y0338127D02*
X0147225Y0338127D01*
X0147225Y0337128D02*
X0006000Y0337128D01*
X0006000Y0336130D02*
X0147225Y0336130D01*
X0147321Y0335131D02*
X0006000Y0335131D01*
X0006000Y0342121D02*
X0029786Y0342121D01*
X0027091Y0343119D02*
X0006000Y0343119D01*
X0006000Y0344118D02*
X0025361Y0344118D01*
X0024344Y0345116D02*
X0006000Y0345116D01*
X0006000Y0346115D02*
X0023345Y0346115D01*
X0022681Y0347113D02*
X0006000Y0347113D01*
X0006000Y0348112D02*
X0022105Y0348112D01*
X0021565Y0349110D02*
X0006000Y0349110D01*
X0006000Y0350109D02*
X0021298Y0350109D01*
X0021030Y0351107D02*
X0006000Y0351107D01*
X0006000Y0352106D02*
X0020800Y0352106D01*
X0020800Y0353104D02*
X0006000Y0353104D01*
X0006000Y0354103D02*
X0020800Y0354103D01*
X0020815Y0355101D02*
X0006000Y0355101D01*
X0006000Y0356100D02*
X0021082Y0356100D01*
X0021350Y0357098D02*
X0006000Y0357098D01*
X0006000Y0358097D02*
X0021640Y0358097D01*
X0022217Y0359095D02*
X0006000Y0359095D01*
X0006000Y0360094D02*
X0022793Y0360094D01*
X0023540Y0361092D02*
X0006000Y0361092D01*
X0006000Y0362091D02*
X0024538Y0362091D01*
X0025699Y0363089D02*
X0006000Y0363089D01*
X0006000Y0364088D02*
X0027428Y0364088D01*
X0030513Y0365086D02*
X0006000Y0365086D01*
X0006000Y0366085D02*
X0083856Y0366085D01*
X0083961Y0366339D02*
X0083200Y0364501D01*
X0083200Y0362512D01*
X0083961Y0360674D01*
X0085368Y0359268D01*
X0087205Y0358506D01*
X0095795Y0358506D01*
X0097632Y0359268D01*
X0099039Y0360674D01*
X0099800Y0362512D01*
X0099800Y0364501D01*
X0099039Y0366339D01*
X0097632Y0367745D01*
X0095795Y0368506D01*
X0087205Y0368506D01*
X0085368Y0367745D01*
X0083961Y0366339D01*
X0084706Y0367084D02*
X0006000Y0367084D01*
X0006000Y0368082D02*
X0086181Y0368082D01*
X0083443Y0365086D02*
X0034487Y0365086D01*
X0037572Y0364088D02*
X0083200Y0364088D01*
X0083200Y0363089D02*
X0039301Y0363089D01*
X0040462Y0362091D02*
X0083374Y0362091D01*
X0083788Y0361092D02*
X0041460Y0361092D01*
X0042207Y0360094D02*
X0084541Y0360094D01*
X0085783Y0359095D02*
X0042783Y0359095D01*
X0043360Y0358097D02*
X0086795Y0358097D01*
X0087076Y0358188D02*
X0086357Y0357955D01*
X0085684Y0357612D01*
X0085073Y0357168D01*
X0084539Y0356633D01*
X0084095Y0356022D01*
X0083752Y0355349D01*
X0083518Y0354630D01*
X0083419Y0354006D01*
X0091000Y0354006D01*
X0091000Y0358306D01*
X0087822Y0358306D01*
X0087076Y0358188D01*
X0085004Y0357098D02*
X0043650Y0357098D01*
X0043918Y0356100D02*
X0084151Y0356100D01*
X0083671Y0355101D02*
X0044185Y0355101D01*
X0044200Y0354103D02*
X0083435Y0354103D01*
X0091000Y0354103D02*
X0092000Y0354103D01*
X0092000Y0355101D02*
X0091000Y0355101D01*
X0091000Y0356100D02*
X0092000Y0356100D01*
X0092000Y0357098D02*
X0091000Y0357098D01*
X0091000Y0358097D02*
X0092000Y0358097D01*
X0096205Y0358097D02*
X0442000Y0358097D01*
X0442000Y0359095D02*
X0097217Y0359095D01*
X0098459Y0360094D02*
X0442000Y0360094D01*
X0442000Y0361092D02*
X0099212Y0361092D01*
X0099626Y0362091D02*
X0442000Y0362091D01*
X0442000Y0363089D02*
X0099800Y0363089D01*
X0099800Y0364088D02*
X0442000Y0364088D01*
X0442000Y0365086D02*
X0099557Y0365086D01*
X0099144Y0366085D02*
X0442000Y0366085D01*
X0442000Y0367084D02*
X0098294Y0367084D01*
X0096819Y0368082D02*
X0442000Y0368082D01*
X0442000Y0369081D02*
X0006000Y0369081D01*
X0006000Y0370079D02*
X0442000Y0370079D01*
X0442000Y0371078D02*
X0006000Y0371078D01*
X0006000Y0372076D02*
X0442000Y0372076D01*
X0442000Y0373075D02*
X0006000Y0373075D01*
X0006000Y0374073D02*
X0442000Y0374073D01*
X0442000Y0375072D02*
X0006000Y0375072D01*
X0006000Y0376070D02*
X0442000Y0376070D01*
X0442000Y0377069D02*
X0006000Y0377069D01*
X0006000Y0378067D02*
X0442000Y0378067D01*
X0442000Y0379066D02*
X0006000Y0379066D01*
X0006000Y0380064D02*
X0442000Y0380064D01*
X0442000Y0381063D02*
X0222895Y0381063D01*
X0222429Y0380869D02*
X0224144Y0381580D01*
X0225458Y0382893D01*
X0226168Y0384609D01*
X0226168Y0392403D01*
X0225458Y0394119D01*
X0224144Y0395433D01*
X0222429Y0396143D01*
X0220571Y0396143D01*
X0218855Y0395433D01*
X0217542Y0394119D01*
X0216831Y0392403D01*
X0216831Y0384609D01*
X0217542Y0382893D01*
X0218855Y0381580D01*
X0220571Y0380869D01*
X0222429Y0380869D01*
X0220105Y0381063D02*
X0212895Y0381063D01*
X0212429Y0380869D02*
X0214144Y0381580D01*
X0215458Y0382893D01*
X0216168Y0384609D01*
X0216168Y0392403D01*
X0215458Y0394119D01*
X0214144Y0395433D01*
X0212429Y0396143D01*
X0210571Y0396143D01*
X0208855Y0395433D01*
X0207542Y0394119D01*
X0206831Y0392403D01*
X0206831Y0384609D01*
X0207542Y0382893D01*
X0208855Y0381580D01*
X0210571Y0380869D01*
X0212429Y0380869D01*
X0210105Y0381063D02*
X0202895Y0381063D01*
X0202429Y0380869D02*
X0204144Y0381580D01*
X0205458Y0382893D01*
X0206168Y0384609D01*
X0206168Y0392403D01*
X0205458Y0394119D01*
X0204144Y0395433D01*
X0202429Y0396143D01*
X0200571Y0396143D01*
X0198855Y0395433D01*
X0197542Y0394119D01*
X0196831Y0392403D01*
X0196831Y0384609D01*
X0197542Y0382893D01*
X0198855Y0381580D01*
X0200571Y0380869D01*
X0202429Y0380869D01*
X0200105Y0381063D02*
X0192895Y0381063D01*
X0192429Y0380869D02*
X0194144Y0381580D01*
X0195458Y0382893D01*
X0196168Y0384609D01*
X0196168Y0392403D01*
X0195458Y0394119D01*
X0194144Y0395433D01*
X0192429Y0396143D01*
X0190571Y0396143D01*
X0188855Y0395433D01*
X0187542Y0394119D01*
X0186831Y0392403D01*
X0186831Y0384609D01*
X0187542Y0382893D01*
X0188855Y0381580D01*
X0190571Y0380869D01*
X0192429Y0380869D01*
X0190105Y0381063D02*
X0182895Y0381063D01*
X0182429Y0380869D02*
X0184144Y0381580D01*
X0185458Y0382893D01*
X0186168Y0384609D01*
X0186168Y0392403D01*
X0185458Y0394119D01*
X0184144Y0395433D01*
X0182429Y0396143D01*
X0180571Y0396143D01*
X0178855Y0395433D01*
X0177542Y0394119D01*
X0176831Y0392403D01*
X0176831Y0384609D01*
X0177542Y0382893D01*
X0178855Y0381580D01*
X0180571Y0380869D01*
X0182429Y0380869D01*
X0180105Y0381063D02*
X0172895Y0381063D01*
X0172429Y0380869D02*
X0174144Y0381580D01*
X0175458Y0382893D01*
X0176168Y0384609D01*
X0176168Y0392403D01*
X0175458Y0394119D01*
X0174144Y0395433D01*
X0172429Y0396143D01*
X0170571Y0396143D01*
X0168855Y0395433D01*
X0167542Y0394119D01*
X0166831Y0392403D01*
X0166831Y0384609D01*
X0167542Y0382893D01*
X0168855Y0381580D01*
X0170571Y0380869D01*
X0172429Y0380869D01*
X0170105Y0381063D02*
X0162895Y0381063D01*
X0162429Y0380869D02*
X0164144Y0381580D01*
X0165458Y0382893D01*
X0166168Y0384609D01*
X0166168Y0392403D01*
X0165458Y0394119D01*
X0164144Y0395433D01*
X0162429Y0396143D01*
X0160571Y0396143D01*
X0158855Y0395433D01*
X0157542Y0394119D01*
X0156831Y0392403D01*
X0156831Y0384609D01*
X0157542Y0382893D01*
X0158855Y0381580D01*
X0160571Y0380869D01*
X0162429Y0380869D01*
X0160105Y0381063D02*
X0152895Y0381063D01*
X0152429Y0380869D02*
X0154144Y0381580D01*
X0155458Y0382893D01*
X0156168Y0384609D01*
X0156168Y0392403D01*
X0155458Y0394119D01*
X0154144Y0395433D01*
X0152429Y0396143D01*
X0150571Y0396143D01*
X0148855Y0395433D01*
X0147542Y0394119D01*
X0146831Y0392403D01*
X0146831Y0384609D01*
X0147542Y0382893D01*
X0148855Y0381580D01*
X0150571Y0380869D01*
X0152429Y0380869D01*
X0150105Y0381063D02*
X0006000Y0381063D01*
X0006000Y0382061D02*
X0007946Y0382061D01*
X0015054Y0382061D02*
X0148374Y0382061D01*
X0147473Y0383060D02*
X0017356Y0383060D01*
X0018987Y0384058D02*
X0147060Y0384058D01*
X0146831Y0385057D02*
X0019986Y0385057D01*
X0020984Y0386055D02*
X0146831Y0386055D01*
X0146831Y0387054D02*
X0021602Y0387054D01*
X0022179Y0388052D02*
X0146831Y0388052D01*
X0146831Y0389051D02*
X0022704Y0389051D01*
X0022971Y0390049D02*
X0146831Y0390049D01*
X0146831Y0391048D02*
X0023239Y0391048D01*
X0023475Y0392046D02*
X0146831Y0392046D01*
X0147097Y0393045D02*
X0023475Y0393045D01*
X0023475Y0394043D02*
X0147511Y0394043D01*
X0148465Y0395042D02*
X0023475Y0395042D01*
X0023218Y0396040D02*
X0150323Y0396040D01*
X0152677Y0396040D02*
X0160323Y0396040D01*
X0158465Y0395042D02*
X0154535Y0395042D01*
X0155489Y0394043D02*
X0157511Y0394043D01*
X0157097Y0393045D02*
X0155903Y0393045D01*
X0156168Y0392046D02*
X0156831Y0392046D01*
X0156831Y0391048D02*
X0156168Y0391048D01*
X0156168Y0390049D02*
X0156831Y0390049D01*
X0156831Y0389051D02*
X0156168Y0389051D01*
X0156168Y0388052D02*
X0156831Y0388052D01*
X0156831Y0387054D02*
X0156168Y0387054D01*
X0156168Y0386055D02*
X0156831Y0386055D01*
X0156831Y0385057D02*
X0156168Y0385057D01*
X0155940Y0384058D02*
X0157060Y0384058D01*
X0157473Y0383060D02*
X0155527Y0383060D01*
X0154626Y0382061D02*
X0158374Y0382061D01*
X0164626Y0382061D02*
X0168374Y0382061D01*
X0167473Y0383060D02*
X0165527Y0383060D01*
X0165940Y0384058D02*
X0167060Y0384058D01*
X0166831Y0385057D02*
X0166168Y0385057D01*
X0166168Y0386055D02*
X0166831Y0386055D01*
X0166831Y0387054D02*
X0166168Y0387054D01*
X0166168Y0388052D02*
X0166831Y0388052D01*
X0166831Y0389051D02*
X0166168Y0389051D01*
X0166168Y0390049D02*
X0166831Y0390049D01*
X0166831Y0391048D02*
X0166168Y0391048D01*
X0166168Y0392046D02*
X0166831Y0392046D01*
X0167097Y0393045D02*
X0165903Y0393045D01*
X0165489Y0394043D02*
X0167511Y0394043D01*
X0168465Y0395042D02*
X0164535Y0395042D01*
X0162677Y0396040D02*
X0170323Y0396040D01*
X0172677Y0396040D02*
X0180323Y0396040D01*
X0178465Y0395042D02*
X0174535Y0395042D01*
X0175489Y0394043D02*
X0177511Y0394043D01*
X0177097Y0393045D02*
X0175903Y0393045D01*
X0176168Y0392046D02*
X0176831Y0392046D01*
X0176831Y0391048D02*
X0176168Y0391048D01*
X0176168Y0390049D02*
X0176831Y0390049D01*
X0176831Y0389051D02*
X0176168Y0389051D01*
X0176168Y0388052D02*
X0176831Y0388052D01*
X0176831Y0387054D02*
X0176168Y0387054D01*
X0176168Y0386055D02*
X0176831Y0386055D01*
X0176831Y0385057D02*
X0176168Y0385057D01*
X0175940Y0384058D02*
X0177060Y0384058D01*
X0177473Y0383060D02*
X0175527Y0383060D01*
X0174626Y0382061D02*
X0178374Y0382061D01*
X0184626Y0382061D02*
X0188374Y0382061D01*
X0187473Y0383060D02*
X0185527Y0383060D01*
X0185940Y0384058D02*
X0187060Y0384058D01*
X0186831Y0385057D02*
X0186168Y0385057D01*
X0186168Y0386055D02*
X0186831Y0386055D01*
X0186831Y0387054D02*
X0186168Y0387054D01*
X0186168Y0388052D02*
X0186831Y0388052D01*
X0186831Y0389051D02*
X0186168Y0389051D01*
X0186168Y0390049D02*
X0186831Y0390049D01*
X0186831Y0391048D02*
X0186168Y0391048D01*
X0186168Y0392046D02*
X0186831Y0392046D01*
X0187097Y0393045D02*
X0185903Y0393045D01*
X0185489Y0394043D02*
X0187511Y0394043D01*
X0188465Y0395042D02*
X0184535Y0395042D01*
X0182677Y0396040D02*
X0190323Y0396040D01*
X0192677Y0396040D02*
X0200323Y0396040D01*
X0198465Y0395042D02*
X0194535Y0395042D01*
X0195489Y0394043D02*
X0197511Y0394043D01*
X0197097Y0393045D02*
X0195903Y0393045D01*
X0196168Y0392046D02*
X0196831Y0392046D01*
X0196831Y0391048D02*
X0196168Y0391048D01*
X0196168Y0390049D02*
X0196831Y0390049D01*
X0196831Y0389051D02*
X0196168Y0389051D01*
X0196168Y0388052D02*
X0196831Y0388052D01*
X0196831Y0387054D02*
X0196168Y0387054D01*
X0196168Y0386055D02*
X0196831Y0386055D01*
X0196831Y0385057D02*
X0196168Y0385057D01*
X0195940Y0384058D02*
X0197060Y0384058D01*
X0197473Y0383060D02*
X0195527Y0383060D01*
X0194626Y0382061D02*
X0198374Y0382061D01*
X0204626Y0382061D02*
X0208374Y0382061D01*
X0207473Y0383060D02*
X0205527Y0383060D01*
X0205940Y0384058D02*
X0207060Y0384058D01*
X0206831Y0385057D02*
X0206168Y0385057D01*
X0206168Y0386055D02*
X0206831Y0386055D01*
X0206831Y0387054D02*
X0206168Y0387054D01*
X0206168Y0388052D02*
X0206831Y0388052D01*
X0206831Y0389051D02*
X0206168Y0389051D01*
X0206168Y0390049D02*
X0206831Y0390049D01*
X0206831Y0391048D02*
X0206168Y0391048D01*
X0206168Y0392046D02*
X0206831Y0392046D01*
X0207097Y0393045D02*
X0205903Y0393045D01*
X0205489Y0394043D02*
X0207511Y0394043D01*
X0208465Y0395042D02*
X0204535Y0395042D01*
X0202677Y0396040D02*
X0210323Y0396040D01*
X0212677Y0396040D02*
X0220323Y0396040D01*
X0218465Y0395042D02*
X0214535Y0395042D01*
X0215489Y0394043D02*
X0217511Y0394043D01*
X0217097Y0393045D02*
X0215903Y0393045D01*
X0216168Y0392046D02*
X0216831Y0392046D01*
X0216831Y0391048D02*
X0216168Y0391048D01*
X0216168Y0390049D02*
X0216831Y0390049D01*
X0216831Y0389051D02*
X0216168Y0389051D01*
X0216168Y0388052D02*
X0216831Y0388052D01*
X0216831Y0387054D02*
X0216168Y0387054D01*
X0216168Y0386055D02*
X0216831Y0386055D01*
X0216831Y0385057D02*
X0216168Y0385057D01*
X0215940Y0384058D02*
X0217060Y0384058D01*
X0217473Y0383060D02*
X0215527Y0383060D01*
X0214626Y0382061D02*
X0218374Y0382061D01*
X0224626Y0382061D02*
X0432946Y0382061D01*
X0430644Y0383060D02*
X0225527Y0383060D01*
X0225940Y0384058D02*
X0429013Y0384058D01*
X0428014Y0385057D02*
X0226168Y0385057D01*
X0226168Y0386055D02*
X0427016Y0386055D01*
X0426398Y0387054D02*
X0226168Y0387054D01*
X0226168Y0388052D02*
X0425821Y0388052D01*
X0425296Y0389051D02*
X0226168Y0389051D01*
X0226168Y0390049D02*
X0425029Y0390049D01*
X0424761Y0391048D02*
X0226168Y0391048D01*
X0226168Y0392046D02*
X0424525Y0392046D01*
X0424525Y0393045D02*
X0225903Y0393045D01*
X0225489Y0394043D02*
X0424525Y0394043D01*
X0424525Y0395042D02*
X0224535Y0395042D01*
X0222677Y0396040D02*
X0424782Y0396040D01*
X0425049Y0397039D02*
X0022951Y0397039D01*
X0022683Y0398037D02*
X0425317Y0398037D01*
X0425865Y0399036D02*
X0022135Y0399036D01*
X0021559Y0400034D02*
X0426441Y0400034D01*
X0427091Y0401033D02*
X0020909Y0401033D01*
X0019910Y0402031D02*
X0428090Y0402031D01*
X0429088Y0403030D02*
X0018912Y0403030D01*
X0091000Y0351107D02*
X0092000Y0351107D01*
X0092000Y0350109D02*
X0091000Y0350109D01*
X0091000Y0349110D02*
X0092000Y0349110D01*
X0096745Y0349110D02*
X0147225Y0349110D01*
X0147225Y0348112D02*
X0096747Y0348112D01*
X0098264Y0347113D02*
X0147225Y0347113D01*
X0147225Y0346115D02*
X0099131Y0346115D01*
X0099545Y0345116D02*
X0147336Y0345116D01*
X0147225Y0345227D02*
X0148221Y0344231D01*
X0154779Y0344231D01*
X0155775Y0345227D01*
X0155775Y0351785D01*
X0154779Y0352781D01*
X0148221Y0352781D01*
X0147225Y0351785D01*
X0147225Y0345227D01*
X0147225Y0350109D02*
X0098191Y0350109D01*
X0098965Y0351107D02*
X0147225Y0351107D01*
X0147546Y0352106D02*
X0099392Y0352106D01*
X0099565Y0354103D02*
X0442000Y0354103D01*
X0442000Y0355101D02*
X0099329Y0355101D01*
X0098849Y0356100D02*
X0442000Y0356100D01*
X0442000Y0357098D02*
X0097996Y0357098D01*
X0155454Y0352106D02*
X0157546Y0352106D01*
X0157225Y0351785D02*
X0157225Y0345227D01*
X0158221Y0344231D01*
X0164779Y0344231D01*
X0165775Y0345227D01*
X0165775Y0351785D01*
X0164779Y0352781D01*
X0158221Y0352781D01*
X0157225Y0351785D01*
X0157225Y0351107D02*
X0155775Y0351107D01*
X0155775Y0350109D02*
X0157225Y0350109D01*
X0157225Y0349110D02*
X0155775Y0349110D01*
X0155775Y0348112D02*
X0157225Y0348112D01*
X0157225Y0347113D02*
X0155775Y0347113D01*
X0155775Y0346115D02*
X0157225Y0346115D01*
X0157336Y0345116D02*
X0155664Y0345116D01*
X0155439Y0342121D02*
X0157844Y0342121D01*
X0157725Y0342002D02*
X0157527Y0341660D01*
X0157425Y0341279D01*
X0157425Y0338794D01*
X0161213Y0338794D01*
X0161213Y0342581D01*
X0158728Y0342581D01*
X0158346Y0342479D01*
X0158004Y0342281D01*
X0157725Y0342002D01*
X0157425Y0341122D02*
X0155775Y0341122D01*
X0155775Y0340124D02*
X0157425Y0340124D01*
X0157425Y0339125D02*
X0155775Y0339125D01*
X0155775Y0338127D02*
X0157425Y0338127D01*
X0157425Y0338219D02*
X0157425Y0335734D01*
X0157527Y0335353D01*
X0157725Y0335010D01*
X0158004Y0334731D01*
X0158346Y0334534D01*
X0158728Y0334431D01*
X0161213Y0334431D01*
X0161213Y0338219D01*
X0161787Y0338219D01*
X0161787Y0334431D01*
X0164272Y0334431D01*
X0164654Y0334534D01*
X0164996Y0334731D01*
X0165275Y0335010D01*
X0165473Y0335353D01*
X0165575Y0335734D01*
X0165575Y0338219D01*
X0161787Y0338219D01*
X0161787Y0338794D01*
X0161213Y0338794D01*
X0161213Y0338219D01*
X0157425Y0338219D01*
X0157425Y0337128D02*
X0155775Y0337128D01*
X0155775Y0336130D02*
X0157425Y0336130D01*
X0157655Y0335131D02*
X0155679Y0335131D01*
X0161213Y0335131D02*
X0161787Y0335131D01*
X0161787Y0336130D02*
X0161213Y0336130D01*
X0161213Y0337128D02*
X0161787Y0337128D01*
X0161787Y0338127D02*
X0161213Y0338127D01*
X0161787Y0338794D02*
X0161787Y0342581D01*
X0164272Y0342581D01*
X0164654Y0342479D01*
X0164996Y0342281D01*
X0165275Y0342002D01*
X0165473Y0341660D01*
X0165575Y0341279D01*
X0165575Y0338794D01*
X0161787Y0338794D01*
X0161787Y0339125D02*
X0161213Y0339125D01*
X0161213Y0340124D02*
X0161787Y0340124D01*
X0161787Y0341122D02*
X0161213Y0341122D01*
X0161213Y0342121D02*
X0161787Y0342121D01*
X0165156Y0342121D02*
X0167561Y0342121D01*
X0167225Y0341785D02*
X0167225Y0335227D01*
X0168221Y0334231D01*
X0174779Y0334231D01*
X0175775Y0335227D01*
X0175775Y0341785D01*
X0174779Y0342781D01*
X0168221Y0342781D01*
X0167225Y0341785D01*
X0167225Y0341122D02*
X0165575Y0341122D01*
X0165575Y0340124D02*
X0167225Y0340124D01*
X0167225Y0339125D02*
X0165575Y0339125D01*
X0165575Y0338127D02*
X0167225Y0338127D01*
X0167225Y0337128D02*
X0165575Y0337128D01*
X0165575Y0336130D02*
X0167225Y0336130D01*
X0167321Y0335131D02*
X0165345Y0335131D01*
X0168221Y0344231D02*
X0174779Y0344231D01*
X0175775Y0345227D01*
X0175775Y0351785D01*
X0174779Y0352781D01*
X0168221Y0352781D01*
X0167225Y0351785D01*
X0167225Y0345227D01*
X0168221Y0344231D01*
X0167336Y0345116D02*
X0165664Y0345116D01*
X0165775Y0346115D02*
X0167225Y0346115D01*
X0167225Y0347113D02*
X0165775Y0347113D01*
X0165775Y0348112D02*
X0167225Y0348112D01*
X0167225Y0349110D02*
X0165775Y0349110D01*
X0165775Y0350109D02*
X0167225Y0350109D01*
X0167225Y0351107D02*
X0165775Y0351107D01*
X0165454Y0352106D02*
X0167546Y0352106D01*
X0175454Y0352106D02*
X0177546Y0352106D01*
X0177225Y0351785D02*
X0177225Y0345227D01*
X0178221Y0344231D01*
X0184779Y0344231D01*
X0185775Y0345227D01*
X0185775Y0351785D01*
X0184779Y0352781D01*
X0178221Y0352781D01*
X0177225Y0351785D01*
X0177225Y0351107D02*
X0175775Y0351107D01*
X0175775Y0350109D02*
X0177225Y0350109D01*
X0177225Y0349110D02*
X0175775Y0349110D01*
X0175775Y0348112D02*
X0177225Y0348112D01*
X0177225Y0347113D02*
X0175775Y0347113D01*
X0175775Y0346115D02*
X0177225Y0346115D01*
X0177336Y0345116D02*
X0175664Y0345116D01*
X0175439Y0342121D02*
X0177561Y0342121D01*
X0177225Y0341785D02*
X0177225Y0335227D01*
X0178221Y0334231D01*
X0184779Y0334231D01*
X0185775Y0335227D01*
X0185775Y0341785D01*
X0184779Y0342781D01*
X0178221Y0342781D01*
X0177225Y0341785D01*
X0177225Y0341122D02*
X0175775Y0341122D01*
X0175775Y0340124D02*
X0177225Y0340124D01*
X0177225Y0339125D02*
X0175775Y0339125D01*
X0175775Y0338127D02*
X0177225Y0338127D01*
X0177225Y0337128D02*
X0175775Y0337128D01*
X0175775Y0336130D02*
X0177225Y0336130D01*
X0177321Y0335131D02*
X0175679Y0335131D01*
X0185679Y0335131D02*
X0187321Y0335131D01*
X0187225Y0335227D02*
X0188221Y0334231D01*
X0194779Y0334231D01*
X0195775Y0335227D01*
X0195775Y0341785D01*
X0194779Y0342781D01*
X0188221Y0342781D01*
X0187225Y0341785D01*
X0187225Y0335227D01*
X0187225Y0336130D02*
X0185775Y0336130D01*
X0185775Y0337128D02*
X0187225Y0337128D01*
X0187225Y0338127D02*
X0185775Y0338127D01*
X0185775Y0339125D02*
X0187225Y0339125D01*
X0187225Y0340124D02*
X0185775Y0340124D01*
X0185775Y0341122D02*
X0187225Y0341122D01*
X0187561Y0342121D02*
X0185439Y0342121D01*
X0185664Y0345116D02*
X0187336Y0345116D01*
X0187225Y0345227D02*
X0188221Y0344231D01*
X0194779Y0344231D01*
X0195775Y0345227D01*
X0195775Y0351785D01*
X0194779Y0352781D01*
X0188221Y0352781D01*
X0187225Y0351785D01*
X0187225Y0345227D01*
X0187225Y0346115D02*
X0185775Y0346115D01*
X0185775Y0347113D02*
X0187225Y0347113D01*
X0187225Y0348112D02*
X0185775Y0348112D01*
X0185775Y0349110D02*
X0187225Y0349110D01*
X0187225Y0350109D02*
X0185775Y0350109D01*
X0185775Y0351107D02*
X0187225Y0351107D01*
X0187546Y0352106D02*
X0185454Y0352106D01*
X0195454Y0352106D02*
X0197546Y0352106D01*
X0197225Y0351785D02*
X0197225Y0345227D01*
X0198221Y0344231D01*
X0204779Y0344231D01*
X0205775Y0345227D01*
X0205775Y0351785D01*
X0204779Y0352781D01*
X0198221Y0352781D01*
X0197225Y0351785D01*
X0197225Y0351107D02*
X0195775Y0351107D01*
X0195775Y0350109D02*
X0197225Y0350109D01*
X0197225Y0349110D02*
X0195775Y0349110D01*
X0195775Y0348112D02*
X0197225Y0348112D01*
X0197225Y0347113D02*
X0195775Y0347113D01*
X0195775Y0346115D02*
X0197225Y0346115D01*
X0197336Y0345116D02*
X0195664Y0345116D01*
X0195439Y0342121D02*
X0197561Y0342121D01*
X0197225Y0341785D02*
X0197225Y0335227D01*
X0198221Y0334231D01*
X0204779Y0334231D01*
X0205775Y0335227D01*
X0205775Y0341785D01*
X0204779Y0342781D01*
X0198221Y0342781D01*
X0197225Y0341785D01*
X0197225Y0341122D02*
X0195775Y0341122D01*
X0195775Y0340124D02*
X0197225Y0340124D01*
X0197225Y0339125D02*
X0195775Y0339125D01*
X0195775Y0338127D02*
X0197225Y0338127D01*
X0197225Y0337128D02*
X0195775Y0337128D01*
X0195775Y0336130D02*
X0197225Y0336130D01*
X0197321Y0335131D02*
X0195679Y0335131D01*
X0205679Y0335131D02*
X0207321Y0335131D01*
X0207225Y0336130D02*
X0205775Y0336130D01*
X0205775Y0337128D02*
X0207225Y0337128D01*
X0207225Y0338127D02*
X0205775Y0338127D01*
X0205775Y0339125D02*
X0207225Y0339125D01*
X0207225Y0340124D02*
X0205775Y0340124D01*
X0205775Y0341122D02*
X0207225Y0341122D01*
X0207561Y0342121D02*
X0205439Y0342121D01*
X0205664Y0345116D02*
X0207336Y0345116D01*
X0207225Y0346115D02*
X0205775Y0346115D01*
X0205775Y0347113D02*
X0207225Y0347113D01*
X0207225Y0348112D02*
X0205775Y0348112D01*
X0205775Y0349110D02*
X0207225Y0349110D01*
X0207225Y0350109D02*
X0205775Y0350109D01*
X0205775Y0351107D02*
X0207225Y0351107D01*
X0207546Y0352106D02*
X0205454Y0352106D01*
X0235454Y0352106D02*
X0237546Y0352106D01*
X0237225Y0351107D02*
X0235775Y0351107D01*
X0235775Y0350109D02*
X0237225Y0350109D01*
X0237225Y0349110D02*
X0235775Y0349110D01*
X0235775Y0348112D02*
X0237225Y0348112D01*
X0237225Y0347113D02*
X0235775Y0347113D01*
X0235775Y0346115D02*
X0237225Y0346115D01*
X0237336Y0345116D02*
X0235664Y0345116D01*
X0235439Y0342121D02*
X0237561Y0342121D01*
X0237225Y0341122D02*
X0235775Y0341122D01*
X0235775Y0340124D02*
X0237225Y0340124D01*
X0237225Y0339125D02*
X0235775Y0339125D01*
X0235775Y0338127D02*
X0237225Y0338127D01*
X0237225Y0337128D02*
X0235989Y0337128D01*
X0236988Y0336130D02*
X0237225Y0336130D01*
X0288903Y0312165D02*
X0294097Y0312165D01*
X0294064Y0312152D02*
X0292855Y0310942D01*
X0292200Y0309362D01*
X0292200Y0307651D01*
X0292855Y0306071D01*
X0294064Y0304861D01*
X0295645Y0304206D01*
X0297355Y0304206D01*
X0298936Y0304861D01*
X0300145Y0306071D01*
X0300800Y0307651D01*
X0300800Y0309362D01*
X0300145Y0310942D01*
X0298936Y0312152D01*
X0297355Y0312806D01*
X0295645Y0312806D01*
X0294064Y0312152D01*
X0293079Y0311167D02*
X0289921Y0311167D01*
X0290466Y0310168D02*
X0292534Y0310168D01*
X0292200Y0309170D02*
X0290800Y0309170D01*
X0290800Y0308171D02*
X0292200Y0308171D01*
X0292398Y0307173D02*
X0290602Y0307173D01*
X0290188Y0306174D02*
X0292812Y0306174D01*
X0293749Y0305176D02*
X0289251Y0305176D01*
X0299251Y0305176D02*
X0303749Y0305176D01*
X0302812Y0306174D02*
X0300188Y0306174D01*
X0300602Y0307173D02*
X0302398Y0307173D01*
X0302200Y0308171D02*
X0300800Y0308171D01*
X0300800Y0309170D02*
X0302200Y0309170D01*
X0302534Y0310168D02*
X0300466Y0310168D01*
X0299921Y0311167D02*
X0303079Y0311167D01*
X0304097Y0312165D02*
X0298903Y0312165D01*
X0308795Y0282210D02*
X0314205Y0282210D01*
X0313124Y0281212D02*
X0309876Y0281212D01*
X0310447Y0280213D02*
X0312553Y0280213D01*
X0312200Y0279215D02*
X0310800Y0279215D01*
X0310800Y0278216D02*
X0312200Y0278216D01*
X0312380Y0277217D02*
X0310620Y0277217D01*
X0310207Y0276219D02*
X0312793Y0276219D01*
X0313705Y0275220D02*
X0309295Y0275220D01*
X0351913Y0286204D02*
X0354627Y0286204D01*
X0354182Y0285206D02*
X0352912Y0285206D01*
X0367330Y0257247D02*
X0442000Y0257247D01*
X0442000Y0256249D02*
X0368328Y0256249D01*
X0368799Y0255250D02*
X0442000Y0255250D01*
X0442000Y0254252D02*
X0369137Y0254252D01*
X0369137Y0253253D02*
X0442000Y0253253D01*
X0442000Y0252255D02*
X0369003Y0252255D01*
X0368590Y0251256D02*
X0442000Y0251256D01*
X0442000Y0250258D02*
X0367822Y0250258D01*
X0414903Y0136427D02*
X0418380Y0136427D01*
X0417685Y0135429D02*
X0415544Y0135429D01*
X0440054Y0382061D02*
X0442000Y0382061D01*
M02*
